<svg width="132" height="118" viewBox="0 0 132 118" fill="none" xmlns="http://www.w3.org/2000/svg">
<path d="M62.6742 0.086319C51.7881 0.64521 42.1072 3.20341 32.942 7.93954C30.0222 9.44336 26.6385 11.5464 24.2408 13.3383C23.9443 13.5572 23.5963 13.8165 23.4674 13.9145C21.9656 15.0149 18.8525 17.6884 17.4346 19.0827C15.3721 21.1166 14.1668 22.436 12.4717 24.516C12.4008 24.6024 12.2525 24.7811 12.143 24.9136C12.0334 25.0461 11.6402 25.5531 11.2664 26.0429C5.2207 34.0862 1.61778 42.8671 0.425394 52.4892C-0.0644494 56.4244 -0.116012 59.9736 0.257816 64.0126C0.999026 71.9638 3.5836 79.8055 7.7666 86.7772C8.38535 87.8143 8.43691 87.8892 9.44238 89.393C10.3125 90.6836 11.9432 92.8961 12.4201 93.4262C12.4523 93.455 12.6328 93.6797 12.8262 93.9159C14.8371 96.3704 17.0027 98.6117 19.5615 100.87C20.7668 101.936 22.623 103.469 23.4674 104.085C23.5963 104.183 23.9443 104.443 24.2408 104.662C25.3558 105.497 27.167 106.718 28.643 107.629C37.5052 113.097 47.7146 116.513 58.4267 117.591C63.699 118.121 68.3138 118.121 73.5732 117.591C84.2917 116.508 94.4818 113.102 103.357 107.623C105.942 106.033 108.094 104.494 110.653 102.414C112.316 101.066 115.165 98.4043 116.434 97.0215C116.544 96.9063 116.834 96.5951 117.079 96.3301C117.736 95.6329 118.594 94.6304 119.528 93.4838C119.599 93.3974 119.747 93.2188 119.857 93.0862C121.571 91.012 123.885 87.5204 125.393 84.7375C128.706 78.607 130.73 72.3325 131.575 65.5107C132.064 61.5869 132.116 57.9455 131.742 53.9872C130.872 44.8088 127.636 35.9703 122.313 28.2323C121.745 27.4084 120.392 25.5762 119.954 25.0346C119.773 24.8099 119.586 24.5794 119.535 24.516C116.447 20.6787 112.251 16.6628 108.184 13.6552C107.907 13.4478 107.579 13.2 107.45 13.1078C106.734 12.5662 104.633 11.1603 103.357 10.371C96.7119 6.27441 89.2353 3.2956 81.4365 1.63622C75.3005 0.339836 68.6168 -0.213287 62.6742 0.086319ZM70.7695 2.03954C76.6863 2.49472 81.4365 3.36474 86.6249 4.94345C96.3316 7.90498 105.297 13.0617 112.374 19.7626C115.345 22.5743 118.072 25.726 120.257 28.8719C123.466 33.4928 126.109 38.8685 127.585 43.7832C128.1 45.4944 128.171 45.7537 128.584 47.5053C129.08 49.5795 129.486 52.2068 129.725 54.7939C129.886 56.5627 129.886 61.4371 129.725 63.206C129.016 70.9728 126.915 77.7658 123.131 84.5243C118.284 93.1784 111.136 100.507 102.1 106.096C99.0451 107.986 95.2165 109.899 91.8456 111.224C91.2978 111.437 90.7628 111.651 90.6533 111.691C90.0281 111.944 87.8818 112.67 86.7539 113.016C82.3001 114.382 77.7949 115.292 73.1865 115.747C70.3763 116.029 69.5255 116.064 66.0322 116.07C62.6355 116.07 62.1972 116.052 59.458 115.805C53.5927 115.28 47.8758 114.024 42.2168 112.008C41.8429 111.875 41.4562 111.731 41.3467 111.691C41.2435 111.651 40.7021 111.437 40.1543 111.224C32.6197 108.263 25.3623 103.676 19.626 98.2372C11.6725 90.7009 6.1875 81.534 3.68027 71.5893C2.23653 65.8391 1.78535 59.9391 2.35254 54.016C2.8875 48.4214 4.40859 42.7864 6.78691 37.5663C8.18554 34.4953 10.1385 31.1189 12.1172 28.336C17.5377 20.7421 25.1238 14.2198 33.7734 9.7084C35.9197 8.59062 38.4334 7.43828 40.3799 6.68349C40.8052 6.52216 41.2435 6.34931 41.3467 6.30898C41.4562 6.26865 41.8429 6.1246 42.2168 5.99209C48.791 3.65282 55.333 2.35068 62.5195 1.96465C63.9955 1.88398 69.3709 1.93007 70.7695 2.03954Z" fill="#013600"/>
<path d="M62.9384 4.39605C62.1972 4.41909 61.5784 4.45366 61.5655 4.46519C61.5526 4.47671 61.5784 5.5023 61.6235 6.74106L61.7073 8.9939L62.4808 8.97661L63.2607 8.95933L63.2349 8.02017L63.2091 7.08677H63.4025C63.7119 7.08677 63.8924 7.26538 64.4338 8.09507L64.9366 8.8729H65.7874C66.2515 8.8729 66.6511 8.84985 66.6705 8.82681C66.7091 8.76343 66.0001 7.63989 65.7036 7.30571C65.5554 7.13286 65.3813 7.0061 65.2395 6.96577L65.0075 6.89663L65.3233 6.76987C66.2386 6.41265 66.49 5.36401 65.8196 4.73023C65.4329 4.36724 65.0397 4.32114 62.9384 4.39605ZM64.4274 5.39282C64.6079 5.49077 64.6723 5.727 64.5692 5.9229C64.4596 6.12456 64.1567 6.21675 63.6023 6.21675L63.164 6.22251V5.76733V5.3064L63.5056 5.28335C63.9375 5.2603 64.2598 5.29487 64.4274 5.39282Z" fill="#013600"/>
<path d="M68.2042 6.62583C67.5919 7.83579 67.0956 8.83257 67.1085 8.84409C67.1214 8.85562 67.4759 8.87866 67.9013 8.90171L68.6748 8.94204L68.823 8.57905L68.9648 8.2103L69.822 8.2564C70.2861 8.27944 70.7051 8.31401 70.7437 8.32554C70.7824 8.33706 70.8533 8.50991 70.8984 8.71733L70.9822 9.08608L71.7814 9.13794C72.2262 9.16675 72.5936 9.17827 72.6064 9.17251C72.6193 9.16099 72.5871 9.03999 72.5355 8.91323C72.484 8.78071 72.3422 8.37163 72.2197 8.00864C71.6654 6.30318 71.0724 4.57466 71.0338 4.54009C71.0144 4.51704 70.6148 4.48247 70.1572 4.45943L69.3193 4.42486L68.2042 6.62583ZM70.5117 7.25386C70.5117 7.31724 70.415 7.32876 69.9832 7.29419C69.6931 7.27114 69.4418 7.24233 69.4289 7.23081C69.4095 7.21353 69.7963 6.25132 70.0412 5.70396C70.0734 5.62905 70.5052 7.0522 70.5117 7.25386Z" fill="#013600"/>
<path d="M57.2021 4.88579C56.8476 4.93188 56.5511 4.97798 56.5382 4.98374C56.506 5.00678 55.3651 9.69682 55.3845 9.71411C55.3974 9.72563 55.7454 9.69682 56.1579 9.63921C56.9829 9.5355 56.9249 9.58159 57.0087 9.03423C57.0603 8.73462 57.0023 8.75766 58.0077 8.64243C58.3107 8.60786 58.62 8.56753 58.7038 8.556C58.8327 8.5272 58.8779 8.57329 59.0454 8.89018L59.2324 9.25317L60.0123 9.15522C60.4441 9.09761 60.805 9.03999 60.8115 9.03423C60.8308 9.01694 59.9542 7.57075 58.6523 5.4562C58.1753 4.68413 58.3107 4.73598 57.2021 4.88579ZM57.9626 6.8102C58.1689 7.202 58.33 7.5477 58.33 7.57651C58.33 7.61108 58.2269 7.64565 58.1044 7.65141C57.982 7.66294 57.7499 7.68598 57.5888 7.71479C57.4277 7.7436 57.2859 7.74936 57.273 7.72632C57.2343 7.6687 57.505 6.10727 57.5566 6.10727C57.5759 6.10727 57.7628 6.42417 57.9626 6.8102Z" fill="#013600"/>
<path d="M74.2886 4.93765C74.2306 5.11626 73.4636 9.28198 73.4893 9.30503C73.5151 9.33384 77.4212 9.91577 77.4406 9.89849C77.4664 9.86392 77.6533 8.84409 77.6404 8.82681C77.6275 8.82105 77.0861 8.73462 76.435 8.63667C75.784 8.53872 75.2426 8.4523 75.2297 8.44077C75.2232 8.43501 75.3457 7.7148 75.5069 6.85054C75.668 5.98052 75.8034 5.21997 75.8162 5.15659C75.8291 5.05864 75.7582 5.02983 75.249 4.94341C74.4884 4.81665 74.3337 4.81665 74.2886 4.93765Z" fill="#013600"/>
<path d="M50.9565 5.99784C50.5698 6.08426 50.2475 6.17069 50.2411 6.17645C50.2346 6.18797 50.1702 6.72381 50.0864 7.37489C50.0091 8.02596 49.8737 9.09764 49.7899 9.766C49.7061 10.4286 49.6417 10.9817 49.6546 10.9875C49.6675 10.999 49.9059 10.9529 50.1831 10.8895C50.4667 10.8204 50.8018 10.7455 50.9307 10.7109L51.1692 10.6533L51.1885 10.2673L51.2079 9.88124L51.9813 9.69686C52.961 9.46639 53.0126 9.46639 53.1028 9.66805C53.1415 9.75448 53.2446 9.89852 53.3219 9.98495L53.4637 10.1463L54.1727 9.99071C54.5659 9.90428 54.9075 9.81786 54.9397 9.78905C54.9719 9.76024 54.9268 9.66229 54.8366 9.55282C54.6819 9.36844 54.4756 9.10917 53.6313 8.00868C51.9749 5.85956 51.9426 5.81922 51.8008 5.82499C51.7235 5.82499 51.3432 5.90565 50.9565 5.99784ZM51.9362 7.90497C52.1876 8.27948 52.3745 8.59061 52.3487 8.60213C52.31 8.61942 51.6139 8.78075 51.3368 8.8326C51.2788 8.84413 51.2788 8.59061 51.3432 7.6745C51.369 7.37489 51.4077 7.15594 51.4335 7.18475C51.4592 7.2078 51.6848 7.53622 51.9362 7.90497Z" fill="#013600"/>
<path d="M80.9981 6.26288C80.9079 6.38387 80.5728 6.80448 80.244 7.20204C79.9218 7.5996 79.3224 8.34286 78.9099 8.86141C78.5038 9.37421 78.1429 9.8121 78.1106 9.82938C77.9366 9.92157 78.1042 10.0195 78.6907 10.1578C79.0388 10.2442 79.3675 10.3249 79.4255 10.3479C79.4899 10.371 79.5931 10.273 79.7606 10.031C79.896 9.83514 80.0056 9.67958 80.012 9.67958C80.0185 9.67958 80.4116 9.78329 80.8886 9.90428L81.7587 10.1232L81.7909 10.515L81.8231 10.9068L82.5644 11.097C82.9704 11.1949 83.3185 11.2698 83.3314 11.2583C83.3442 11.2468 83.2927 10.6475 83.2153 9.92733C83.138 9.20135 83.0349 8.17001 82.9769 7.63417C82.9253 7.09257 82.8673 6.60282 82.8544 6.53944C82.8351 6.44149 82.6868 6.38964 82.0552 6.23407C81.6362 6.13612 81.256 6.0497 81.2237 6.0497C81.1915 6.0497 81.0884 6.14764 80.9981 6.26288ZM81.72 8.63094L81.7265 9.10341L81.5589 9.06884C81.0368 8.9536 80.663 8.82684 80.6759 8.76923C80.6888 8.73466 80.9015 8.40624 81.1593 8.03749L81.6298 7.36337L81.6685 7.75516C81.6942 7.97411 81.7136 8.36591 81.72 8.63094Z" fill="#013600"/>
<path d="M46.535 7.16759C46.0839 7.28283 43.9312 7.96271 43.8667 8.01456C43.8409 8.03761 43.9183 8.3257 44.0407 8.65411C44.3372 9.43195 45.4587 12.2955 45.4716 12.3186C45.5038 12.3531 46.8831 11.8807 46.9024 11.8288C46.9153 11.7943 46.7929 11.437 46.6317 11.0279C46.4706 10.6246 46.361 10.2732 46.3932 10.2559C46.419 10.2328 46.6704 10.1464 46.954 10.06C47.2376 9.97355 47.5921 9.83527 47.7403 9.76036C48.3268 9.45499 48.6104 8.91915 48.4751 8.35451C48.3139 7.68615 47.9981 7.31163 47.4825 7.17335C47.1022 7.06964 46.9282 7.06964 46.535 7.16759ZM46.722 8.26808C47.0184 8.4006 47.0829 8.83273 46.8315 9.04015C46.6962 9.14962 46.0259 9.42042 45.9872 9.38009C45.9292 9.31095 45.6392 8.44093 45.6714 8.41788C45.7294 8.36603 46.2966 8.19318 46.4255 8.18742C46.4899 8.18165 46.6253 8.22199 46.722 8.26808Z" fill="#013600"/>
<path d="M85.6775 8.08357C84.8589 9.94461 84.253 11.3332 84.2144 11.4369C84.1821 11.5406 84.253 11.5809 84.8073 11.7711C85.1554 11.8863 85.4648 11.9843 85.497 11.9843C85.5357 11.9843 85.7806 11.4772 86.0448 10.8607C86.3091 10.2442 86.5411 9.73719 86.5605 9.73719C86.5798 9.73719 86.6958 10.1175 86.8118 10.5842C86.9279 11.0566 87.0954 11.7077 87.1792 12.0419L87.3404 12.6469L88.0236 12.8946C88.3974 13.0271 88.7132 13.1308 88.7132 13.1251C88.8744 12.8888 90.5566 8.9075 90.5115 8.87293C90.389 8.77498 89.2417 8.41199 89.2031 8.45232C89.1773 8.47537 88.9388 8.99969 88.681 9.60467C88.4167 10.2154 88.1911 10.7167 88.1718 10.7167C88.1525 10.7167 87.9849 10.1059 87.798 9.36267C87.6111 8.61365 87.4306 7.94529 87.4048 7.87039C87.3597 7.77244 87.1921 7.69178 86.7216 7.53045C86.3736 7.41521 86.0771 7.31726 86.0513 7.31726C86.032 7.31726 85.8644 7.66297 85.6775 8.08357Z" fill="#013600"/>
<path d="M92.7738 10.2557C91.8392 10.4285 91.0529 11.1603 90.7242 12.1513C90.5759 12.595 90.5952 13.1193 90.7628 13.5226C91.1302 14.4099 92.7094 15.2223 94.0307 15.2051C94.7462 15.1935 94.7204 15.2166 95.2683 14.2889L95.7581 13.4535L95.4294 13.2921C94.8235 12.9925 93.6504 12.4452 93.6182 12.4452C93.5924 12.4452 93.1348 13.2172 93.1348 13.2691C93.1348 13.2806 93.3411 13.3728 93.586 13.4823C93.8374 13.5918 94.0372 13.7012 94.0372 13.73C94.0372 13.7588 93.9856 13.8568 93.9276 13.949C93.8051 14.1334 93.6375 14.1564 93.1348 14.0527C92.5031 13.9259 92.1035 13.5457 92.1035 13.0674C92.1035 12.5143 92.6449 11.6616 93.1412 11.4369C93.7213 11.1661 94.5722 11.5521 94.6366 12.111C94.6624 12.2954 94.6753 12.3069 95.3585 12.5201C95.7452 12.6353 96.0675 12.7217 96.0869 12.7044C96.1062 12.6929 96.132 12.5489 96.1513 12.3933C96.2158 11.7653 95.8097 11.1949 94.9911 10.7685C94.1467 10.3248 93.3604 10.1462 92.7738 10.2557Z" fill="#013600"/>
<path d="M37.267 10.7226C36.5387 11.074 36.5322 11.0798 36.5709 11.2584C36.5902 11.3563 36.7062 12.1515 36.8351 13.0215C37.1123 14.9517 37.2541 15.862 37.2734 15.8851C37.2863 15.8908 37.3636 15.8678 37.4474 15.8217C37.6279 15.741 38.6333 15.257 38.6527 15.2455C38.6591 15.2397 38.6204 15.0669 38.5689 14.8652C38.5173 14.6636 38.498 14.4792 38.5238 14.4619C38.5495 14.4389 38.9234 14.2602 39.3487 14.0586L40.1157 13.6956L40.4122 13.9837L40.7086 14.2775L41.4047 13.9434C41.785 13.7647 42.0943 13.5919 42.0879 13.5631C42.0814 13.5343 41.6689 13.1886 41.1662 12.7968C40.6635 12.3992 39.7677 11.6963 39.1683 11.2238C38.5753 10.7571 38.0662 10.3711 38.0404 10.3711C38.0146 10.3711 37.6666 10.5324 37.267 10.7226ZM38.6398 12.3877C38.9878 12.6988 39.2649 12.9696 39.2456 12.9869C39.1812 13.0445 38.3691 13.4248 38.3111 13.4248C38.2788 13.4248 38.1822 13.0964 38.0984 12.6873C38.0146 12.284 37.9308 11.921 37.9115 11.8807C37.847 11.7136 38.0339 11.8461 38.6398 12.3877Z" fill="#013600"/>
<path d="M33.1289 12.8601C32.826 13.0445 32.5617 13.2173 32.5359 13.2462C32.5037 13.2692 32.8324 13.7359 33.2643 14.289C33.6896 14.8421 34.0119 15.3031 33.9861 15.3088C33.9603 15.3204 33.2514 15.0841 32.4199 14.7845C31.2211 14.3582 30.8795 14.2602 30.7764 14.3063C30.7055 14.3351 30.4219 14.5022 30.1512 14.6808L29.6485 14.9977L29.9965 15.4356C30.1834 15.6776 30.8215 16.5188 31.4145 17.3024C32.1557 18.2761 32.5295 18.7255 32.5875 18.7025C32.7164 18.6564 33.6316 18.1033 33.6703 18.0456C33.7025 17.9995 33.4576 17.6596 32.4908 16.3747C32.3361 16.1731 32.2266 16.0002 32.2395 15.983C32.2652 15.9657 34.9787 16.8991 35.2043 17.0028C35.2945 17.0489 35.4492 16.9797 35.9133 16.7032C36.242 16.5073 36.5255 16.3344 36.5384 16.3229C36.5578 16.3114 36.3129 15.9599 35.9906 15.5393C34.882 14.0643 33.7541 12.5893 33.7154 12.5548C33.6961 12.5317 33.4318 12.67 33.1289 12.8601Z" fill="#013600"/>
<path d="M99.6638 15.476C98.9999 16.2596 98.3489 17.0144 98.22 17.1526C97.9686 17.4234 97.8011 17.677 97.8462 17.7058C97.8591 17.7173 98.0718 17.8613 98.3102 18.0284C98.5552 18.1955 98.7743 18.3223 98.8065 18.3107C98.8323 18.2992 98.9677 18.1609 99.1095 17.9996C100.573 16.2769 101.095 15.6834 101.114 15.7007C101.127 15.7122 100.805 16.4267 100.392 17.2852C99.9732 18.1494 99.6444 18.8754 99.6573 18.8984C99.6702 18.9272 99.8636 19.0771 100.089 19.2384C100.392 19.4458 100.534 19.5092 100.605 19.4746C100.663 19.4458 101.359 18.9676 102.145 18.4087C102.938 17.8498 103.595 17.4004 103.608 17.4119C103.628 17.4292 103.467 17.6251 102.654 18.5758C102.577 18.668 102.261 19.0367 101.952 19.3939C101.636 19.7512 101.385 20.0681 101.391 20.0911C101.391 20.1487 102.268 20.7422 102.345 20.7422C102.371 20.7422 102.526 20.5924 102.68 20.408C102.964 20.0911 104.221 18.6219 105.059 17.6424C105.291 17.3716 105.439 17.1469 105.407 17.1181C105.239 16.9798 103.873 16.0752 103.834 16.0752C103.808 16.0752 103.557 16.2365 103.273 16.4324C102.99 16.6341 102.448 17.0144 102.068 17.2794C101.688 17.5444 101.365 17.7461 101.352 17.7346C101.333 17.723 101.597 17.1296 101.939 16.4267C102.274 15.718 102.538 15.136 102.532 15.1303C102.519 15.1245 102.158 14.8825 101.726 14.5887C101.288 14.2948 100.921 14.0586 100.908 14.0586C100.895 14.0586 100.334 14.6981 99.6638 15.476Z" fill="#013600"/>
<path d="M67.0764 15.8446C66.8766 15.931 66.7928 15.9425 66.6381 15.8907C66.5285 15.8561 66.2449 15.8446 66 15.8561C65.5617 15.8849 65.3361 15.9829 64.7109 16.4208C64.6013 16.4957 64.3435 16.559 63.9052 16.6167C63.4734 16.6685 63.1189 16.7549 62.8224 16.8702C62.3519 17.0661 60.863 17.9015 60.5665 18.1435C60.0767 18.5411 59.3484 19.8836 59.1937 20.6787C59.1486 20.9091 59.0454 21.1915 58.9745 21.3009C58.9036 21.4104 58.8456 21.5717 58.8456 21.6639C58.8456 21.7561 58.7876 22.1825 58.7167 22.6146C58.562 23.548 58.5491 23.934 58.6523 24.1703C58.7038 24.2913 58.7167 24.5678 58.6845 25.0921C58.6329 25.9795 58.7038 26.2272 59.1163 26.6017L59.3741 26.8379L59.097 26.9532C58.7554 27.0972 58.6329 27.1837 58.5362 27.3507C58.4654 27.466 58.4267 27.829 58.4847 27.829C58.4976 27.829 58.6329 27.7771 58.7876 27.7137C59.2259 27.5409 59.3613 27.5639 59.69 27.8693C60.2507 28.4051 60.2314 28.336 60.0058 28.7566C59.7802 29.1887 59.7673 29.304 59.9349 29.3846C60.1605 29.4883 60.4054 29.448 60.7277 29.2406C60.9404 29.1023 61.0499 29.062 61.0693 29.1081C61.0822 29.1484 61.1724 29.4653 61.2691 29.8168C61.4302 30.416 61.4689 30.5197 61.6042 30.6983C61.7009 30.8308 61.8749 30.7041 62.0554 30.3699C62.2552 29.9954 62.2681 29.7188 62.107 28.7508C61.9136 27.61 61.9523 27.4775 62.7966 26.2733C63.3896 25.4321 63.3767 25.4782 63.3896 24.1991C63.3961 22.9546 63.4347 22.8105 63.8086 22.4994C63.9181 22.4014 64.0664 22.2286 64.1373 22.1133C64.2275 21.952 64.3564 21.8598 64.6593 21.7273C65.1363 21.5199 66.0129 21.2894 66.7412 21.1742L67.2568 21.0935L67.6564 21.2606C68.0303 21.4219 68.0818 21.4277 68.3977 21.3701C68.7199 21.3125 68.7908 21.324 69.416 21.5084C70.1637 21.7331 70.357 21.7331 70.602 21.5084C70.7567 21.3701 71.0274 20.8285 71.0274 20.6556C71.0274 20.5231 71.1176 20.5462 71.6139 20.7997C72.1295 21.0589 73.0383 21.347 73.5217 21.4046C73.7086 21.4277 74.0116 21.4162 74.2114 21.3758C74.5401 21.3182 74.5917 21.3182 74.785 21.4277C74.9977 21.5429 75.2233 21.7792 75.3071 21.9808C75.3329 22.0442 75.4424 22.4072 75.552 22.7875C75.7518 23.5019 75.7518 23.6171 75.61 24.4756C75.5778 24.6773 75.5907 24.9366 75.6422 25.1959C75.6874 25.4263 75.726 25.7144 75.726 25.8412C75.7325 26.0716 75.9194 26.619 75.9903 26.619C76.087 26.619 76.2546 25.6971 76.3512 24.6888C76.4028 24.0838 76.4737 23.4097 76.4995 23.1908C76.551 22.7126 76.4995 22.3496 76.2739 21.7158C76.0547 21.0935 75.9258 20.5462 75.9258 20.1947C75.9258 19.7971 75.6165 19.0481 75.262 18.5641C74.7657 17.9015 73.9858 17.3772 72.6709 16.8183C71.7299 16.4208 70.9822 16.2018 70.3764 16.1557C69.9832 16.1212 69.9123 16.0981 69.8672 15.9829C69.7899 15.81 69.6158 15.7697 69.2098 15.8388C68.9584 15.8792 68.7264 15.8734 68.3525 15.81C67.6693 15.7063 67.3728 15.7121 67.0764 15.8446Z" fill="#013600"/>
<path d="M25.2657 18.3451C24.7243 18.5122 23.8735 19.2036 23.5576 19.7107C23.1451 20.3963 23.3578 21.1453 24.0668 21.4622C24.2473 21.5429 24.4922 21.6063 24.6211 21.6063C24.9627 21.6063 25.5751 21.4104 26.2583 21.0877C26.935 20.7651 27.1348 20.7363 27.3604 20.9437C27.5538 21.1108 27.5602 21.2836 27.3927 21.5371C27.1219 21.929 26.5934 22.0615 26.1809 21.8368C26.0649 21.7734 25.9618 21.7215 25.9489 21.7215C25.9424 21.7215 25.704 21.9405 25.4333 22.2113L24.937 22.701L25.2334 22.8681C25.6073 23.0813 26.0907 23.185 26.4516 23.1389C27.0897 23.0525 28.2112 22.2343 28.5786 21.589C29.004 20.8284 28.6882 19.9123 27.8889 19.5666C27.7536 19.5148 27.5022 19.4744 27.2509 19.4744C26.8319 19.4744 26.5805 19.5666 25.2141 20.2177C24.5373 20.5461 24.286 19.9411 24.937 19.5493C25.1883 19.3938 25.3946 19.3822 25.6459 19.5032L25.8329 19.5839L26.3292 19.1172L26.8255 18.6447L26.6385 18.5122C26.3034 18.2702 25.7168 18.1953 25.2657 18.3451Z" fill="#013600"/>
<path d="M107.379 19.4054C107.115 19.5206 106.477 19.7972 105.961 20.0162C105.445 20.2351 104.569 20.6096 104.008 20.8459L102.99 21.2838L103.46 21.7044C104.098 22.2863 104.092 22.2863 104.517 22.0674L104.872 21.8887L105.142 22.1077C105.291 22.2229 105.594 22.4764 105.813 22.6608L106.212 23.0008L106.006 23.3695L105.806 23.7325L106.386 24.2165C106.947 24.6947 106.96 24.7005 107.037 24.5737C107.153 24.3836 109.119 20.3331 109.119 20.287C109.119 20.2409 107.94 19.1865 107.895 19.1922C107.875 19.1922 107.643 19.2902 107.379 19.4054ZM107.173 21.3414C106.953 21.7389 106.747 22.0674 106.721 22.0674C106.696 22.0674 106.496 21.9175 106.283 21.7332L105.89 21.3932L106.715 20.9841C107.166 20.7594 107.546 20.5866 107.559 20.5981C107.572 20.6039 107.398 20.938 107.173 21.3414Z" fill="#013600"/>
<path d="M20.0192 22.9545C19.7356 23.2484 19.4971 23.5134 19.4778 23.5537C19.452 23.6286 21.9657 27.829 22.0301 27.8232C22.0559 27.8232 22.3008 27.587 22.5716 27.2989L23.0679 26.7804L22.8423 26.4807C22.7262 26.3194 22.6231 26.1638 22.6231 26.1408C22.6231 26.112 22.8874 25.8239 23.2096 25.4955L23.7897 24.8962L24.1958 25.0576L24.5954 25.2247L25.1239 24.6888C25.414 24.395 25.6525 24.1357 25.6525 24.1184C25.6525 24.1011 25.5558 24.0665 25.4462 24.0377C25.3302 24.0089 24.2345 23.6459 23.0098 23.2368C21.7852 22.822 20.7282 22.4705 20.6573 22.4532C20.5541 22.4302 20.4188 22.5339 20.0192 22.9545ZM21.5403 23.9916C21.7981 24.0954 22.1655 24.2452 22.3524 24.3143C22.5329 24.3834 22.6876 24.4756 22.6876 24.5102C22.6811 24.5448 22.5264 24.7234 22.3395 24.9135L21.9915 25.2535L21.8303 25.0288C21.3792 24.3834 21.0118 23.8418 21.0118 23.8188C21.0118 23.7785 21.0569 23.79 21.5403 23.9916Z" fill="#013600"/>
<path d="M109.603 23.7729C108.61 24.5161 107.746 25.173 107.675 25.2306C107.559 25.3343 107.572 25.3516 108.056 25.8643C108.481 26.3138 108.571 26.3771 108.655 26.3195C108.713 26.2792 109.061 26.0199 109.435 25.7376C109.809 25.461 110.144 25.2421 110.183 25.2536C110.305 25.2939 110.415 25.5532 110.382 25.7549C110.363 25.8643 110.183 26.3138 109.989 26.7516L109.635 27.5467L110.189 28.146C110.498 28.4801 110.763 28.7452 110.769 28.7336C110.782 28.7279 110.93 28.4168 111.104 28.0538C111.485 27.2644 111.607 26.8035 111.51 26.5615C111.478 26.4636 111.459 26.3887 111.465 26.3887C111.478 26.3887 111.652 26.4578 111.858 26.5385C112.161 26.6652 112.284 26.6825 112.548 26.6595C112.986 26.6134 113.405 26.3771 113.631 26.0602C113.96 25.5936 113.947 25.2018 113.573 24.689C113.36 24.3894 111.51 22.4131 111.452 22.4131C111.427 22.4189 110.595 23.0239 109.603 23.7729ZM111.878 24.228C112.432 24.7927 112.522 25.075 112.245 25.3228C112 25.5475 111.807 25.5071 111.401 25.1672C110.853 24.7063 110.846 24.689 111.253 24.3663C111.446 24.2108 111.633 24.0898 111.671 24.084C111.71 24.084 111.8 24.1474 111.878 24.228Z" fill="#013600"/>
<path d="M72.9288 25.6971C72.4002 25.7663 71.8588 25.9218 71.414 26.1408C70.7437 26.4634 70.7373 26.475 70.9693 26.7631C71.3238 27.2009 71.6332 27.4314 71.9168 27.466C72.2778 27.5121 72.4389 27.466 72.7483 27.224L73.0125 27.0223L73.2124 27.1952C73.438 27.3796 73.8956 27.5524 74.4499 27.6504C74.8753 27.731 75.0816 27.6792 75.2685 27.4429L75.4039 27.2759L75.275 27.0915C75.0365 26.7631 74.7915 26.6766 73.9278 26.619C73.496 26.5902 73.1221 26.5499 73.0835 26.5326C72.9288 26.4461 73.0577 26.3309 73.438 26.2157C73.67 26.1465 73.9343 26.0428 74.0245 25.9737C74.1857 25.8642 74.1857 25.8527 74.0825 25.749C73.9601 25.628 73.5669 25.6107 72.9288 25.6971Z" fill="#013600"/>
<path d="M67.1858 25.8988C66.8699 26.0486 66.5412 26.2618 66.5864 26.2963C66.5993 26.3021 66.8571 26.354 67.16 26.4058C67.7336 26.5095 67.8818 26.5729 67.7594 26.6824C67.6692 26.763 65.4262 27.1894 65.3876 27.1376C65.3682 27.1145 65.4456 26.9474 65.5487 26.7688C65.6583 26.5902 65.7356 26.4461 65.7227 26.4461C65.6131 26.4461 64.5561 26.8322 64.3757 26.9417L64.1307 27.0799L64.2983 27.4141C64.5626 27.95 64.6077 27.973 65.3553 27.9615C66.0836 27.9557 66.3479 27.8635 66.5155 27.5639C66.567 27.4717 66.6186 27.3853 66.6315 27.368C66.6379 27.3565 66.7217 27.4141 66.8119 27.5063C67.1213 27.8002 67.3791 27.829 68.2557 27.6792C69.2353 27.5063 69.4738 27.4314 69.7058 27.2182C69.9121 27.0281 70.0474 26.7342 69.9701 26.6305C69.9185 26.5556 68.8615 26.014 68.4877 25.8757C68.0559 25.7086 67.5918 25.7144 67.1858 25.8988Z" fill="#013600"/>
<path d="M16.0294 27.4833L15.5267 28.1171L16.4742 29.3674C16.9962 30.0588 17.5827 30.8309 17.7826 31.0844C17.9759 31.3379 18.2337 31.6721 18.3562 31.8334C18.4786 31.989 18.5818 32.1273 18.5947 32.1388C18.6011 32.1446 18.7622 31.9544 18.9491 31.7067C19.1361 31.4589 19.3423 31.2054 19.4068 31.142C19.5228 31.021 19.5228 31.0152 19.2714 30.7156C19.1296 30.5485 19.0136 30.3872 19.0136 30.3584C19.0136 30.3296 19.207 30.0588 19.4519 29.7592C19.6904 29.4596 19.9159 29.1772 19.9482 29.1254C20.0062 29.0447 20.0513 29.0505 20.4251 29.16L20.8376 29.2867L20.973 29.1369C21.205 28.8834 21.798 28.1113 21.7786 28.094C21.7657 28.0883 21.1728 27.9442 20.4638 27.7829C18.2079 27.2586 16.7126 26.9071 16.616 26.8783C16.5579 26.8553 16.3581 27.0627 16.0294 27.4833ZM18.8654 28.7163C18.9169 28.7624 18.3562 29.4941 18.2659 29.4999C18.2015 29.4999 17.1445 28.2957 17.1445 28.2208C17.1445 28.1805 18.8009 28.6587 18.8654 28.7163Z" fill="#013600"/>
<path d="M114.082 27.4777C113.515 27.6563 113.109 27.8868 112.69 28.2613C111.852 29.0045 111.697 29.8284 112.226 30.7388C112.767 31.6837 113.476 32.1504 114.353 32.1504C114.759 32.1504 115.255 32.0409 115.223 31.9545C115.21 31.9199 115.119 31.6549 115.016 31.3668L114.836 30.8367L114.346 30.8655C113.856 30.9001 113.843 30.8943 113.611 30.7157C113.154 30.3527 113.128 29.8169 113.547 29.4309C114.417 28.6185 115.422 28.4687 115.886 29.0794C116.08 29.3329 116.099 29.7362 115.932 29.9667L115.822 30.1165L116.305 30.5256C116.57 30.7561 116.815 30.9404 116.847 30.9404C116.95 30.9404 117.298 30.2433 117.343 29.9552C117.465 29.1543 116.699 27.9962 115.751 27.5641C115.281 27.3509 114.591 27.3163 114.082 27.4777Z" fill="#013600"/>
<path d="M13.8703 30.347C12.6972 32.1619 11.7949 33.5907 11.7949 33.6426C11.7949 33.706 12.6779 34.1669 12.7939 34.1669C12.8326 34.1669 13.0324 33.8961 13.2451 33.5677C13.4513 33.2335 13.6447 32.9743 13.664 32.98C13.6834 32.9915 14.2763 33.2969 14.9853 33.6599C15.6943 34.0229 16.4355 34.3974 16.6289 34.5011L16.9898 34.6797L17.3572 34.1151C17.557 33.8039 17.7246 33.5274 17.7246 33.4986C17.7246 33.464 17.5441 33.3545 17.3185 33.2451C16.2035 32.6919 14.4439 31.7701 14.4375 31.7355C14.4375 31.7182 14.5664 31.5051 14.7211 31.2688C14.8758 31.0326 15.0498 30.7618 15.1078 30.6639L15.2109 30.4853L14.6888 30.226C14.3988 30.0819 14.1539 29.961 14.141 29.961C14.1281 29.961 14.0056 30.1338 13.8703 30.347Z" fill="#013600"/>
<path d="M69.4804 30.9116C69.1066 30.952 68.7327 30.9923 68.6489 30.9923C68.5136 30.998 68.5007 31.0153 68.5394 31.1824C68.5587 31.2977 68.6812 31.459 68.8358 31.5857C69.055 31.7759 69.1259 31.8047 69.403 31.8047C69.7898 31.8047 70.1636 31.9142 70.5374 32.1446C70.7694 32.2887 70.8468 32.3809 70.9499 32.6689L71.0853 33.0146H70.8403C70.705 33.0146 70.4665 33.0607 70.3118 33.1126C70.1571 33.1645 69.822 33.2105 69.5706 33.2163C69.171 33.2221 69.0614 33.2451 68.7521 33.418C68.5523 33.5274 68.1784 33.7637 67.9206 33.948C67.2245 34.4493 66.8958 34.5876 66.4575 34.5588C65.7872 34.5127 65.1814 34.1555 64.7302 33.5332C64.6013 33.3603 64.4853 33.2048 64.4724 33.1875C64.4595 33.176 64.4208 33.199 64.3886 33.2451C64.2339 33.4641 64.3821 33.9999 64.6657 34.2707C64.7431 34.3456 65.0073 34.5127 65.2458 34.6395C65.6454 34.8526 65.871 35.0428 65.871 35.158C65.871 35.1868 65.6841 35.2041 65.4585 35.2041C65.0911 35.2041 65.0396 35.2214 65.0009 35.3251C64.9558 35.4519 64.9171 35.4519 64.5304 35.3078C64.337 35.2444 64.3048 35.2444 64.2532 35.3366C64.1952 35.423 64.1437 35.377 63.8858 35.037C63.7247 34.8181 63.5571 34.651 63.5185 34.6625C63.4862 34.674 63.396 34.8411 63.3315 35.0312C63.2606 35.2214 63.1833 35.377 63.164 35.377C63.1382 35.377 63.0802 35.256 63.0351 35.1004L62.9513 34.8296L62.861 35.1753C62.8095 35.3654 62.6999 35.6017 62.6097 35.7054C62.1907 36.1951 62.0618 36.8577 62.2939 37.2956C62.4421 37.5779 63.1446 38.0965 63.7118 38.3442C64.0856 38.5113 64.3757 38.5747 65.4198 38.7303C66.5413 38.8974 66.812 38.9146 67.9335 38.9146C70.2732 38.9146 71.5429 38.5978 72.5741 37.7681C72.8319 37.5549 73.9083 36.8174 73.9534 36.8174C74.0243 36.8174 74.121 37.2668 74.121 37.5779C74.121 38.0273 74.005 38.2981 73.4378 39.1912C73.1671 39.6118 72.8126 40.1765 72.6386 40.4473C72.471 40.7181 71.7362 41.8762 71.0015 43.0228C70.2732 44.1693 69.6737 45.12 69.6737 45.1373C69.6737 45.1488 69.9444 45.2929 70.2732 45.4484C70.5954 45.604 71.3753 45.9785 71.9941 46.2724L73.122 46.814L72.1423 46.8312L71.1562 46.8485V48.2832V49.7236H71.8329H72.5097V50.9336V52.1436H80.4696H88.4296L88.3974 51.9246C88.378 51.8094 88.32 51.4003 88.2685 51.02C87.8882 48.4215 87.2888 46.0534 86.6314 44.5784C86.1222 43.4434 85.7612 43.0055 84.8654 42.4754C83.4603 41.6284 81.4236 40.5683 79.2773 39.5657C77.7239 38.8455 77.4661 38.7187 76.9054 38.4076C75.9773 37.8948 74.9911 36.898 74.1275 35.5959L73.9921 35.3885L74.2177 35.2617L74.4497 35.135L74.3015 34.9909L74.1532 34.8469L74.6044 34.8872C75.0556 34.9275 75.0556 34.9218 75.3843 34.7028L75.713 34.4839L75.0749 34.3917C74.2692 34.2707 73.5474 33.9596 72.4903 33.2682L71.7362 32.7784L71.936 32.5595C72.1423 32.3232 72.2776 31.9372 72.3485 31.3668L72.3937 31.0153L72.1101 30.9462C71.6847 30.8367 70.2538 30.8194 69.4804 30.9116ZM71.3495 34.0748C71.5622 34.0921 71.5558 34.1324 71.2915 34.311C70.5954 34.7662 69.5255 34.8065 69.1968 34.3917C69.0937 34.2592 69.1001 34.2534 69.3644 34.1209C69.6222 33.9999 69.6866 33.9941 70.415 34.0229C70.8403 34.046 71.2593 34.069 71.3495 34.0748ZM68.4749 35.4288L68.8036 35.6535L69.8349 35.6881C70.6728 35.7227 70.9564 35.7111 71.3108 35.642C71.7298 35.5498 71.7556 35.5556 71.9103 35.665C72.0327 35.7515 72.1294 35.7687 72.3163 35.7457C72.6901 35.6938 72.8964 35.9531 72.8964 36.4947C72.8964 36.9441 72.3614 37.3014 71.4591 37.4569C71.24 37.4915 71.0015 37.5491 70.937 37.5837C70.8403 37.624 70.7888 37.6125 70.705 37.5145C70.647 37.4454 70.4923 37.3647 70.3634 37.3359C70.1378 37.2956 70.1249 37.3014 70.1249 37.4339C70.1249 37.6816 70.0153 37.7969 69.764 37.7969C69.5577 37.7969 69.5448 37.7853 69.5835 37.6355C69.6093 37.5491 69.6544 37.4339 69.6802 37.382C69.7575 37.2553 69.7511 37.2207 69.6737 37.2207C69.6415 37.2207 69.5642 37.3071 69.5062 37.4051C69.4482 37.5088 69.3901 37.6067 69.3773 37.6183C69.3644 37.6298 69.1968 37.5549 69.0034 37.4569C68.5974 37.2553 68.5136 37.238 68.5136 37.3647C68.5136 37.4166 68.4685 37.4685 68.4169 37.4857C68.2171 37.5549 67.869 37.3763 67.4437 36.9902C67.1987 36.7655 66.9538 36.5696 66.8894 36.5523C66.7218 36.5062 66.7411 36.4371 67.0312 36.1605C67.2374 35.9589 67.3083 35.8379 67.347 35.6074C67.4114 35.256 67.4759 35.2041 67.8626 35.2041C68.0946 35.2041 68.2107 35.2444 68.4749 35.4288Z" fill="#013600"/>
<path d="M116.982 32.4558C115.97 32.9455 114.978 33.418 114.778 33.5159L114.411 33.6888L115.12 34.8642C115.513 35.5095 115.964 36.2643 116.132 36.5408C116.293 36.8231 116.454 37.0479 116.492 37.0479C116.538 37.0479 117.343 36.6733 117.427 36.61C117.44 36.5984 117.169 36.126 116.828 35.5498C116.486 34.9794 116.209 34.4954 116.209 34.4666C116.209 34.3802 117.034 34.0172 117.105 34.0806C117.137 34.1151 117.401 34.5415 117.698 35.0312C117.988 35.521 118.233 35.9301 118.239 35.9358C118.265 35.9704 119.109 35.5383 119.109 35.4922C119.109 35.4634 119.058 35.3539 118.993 35.2502C118.639 34.6855 118.001 33.5793 118.02 33.5678C118.033 33.5562 118.181 33.4813 118.342 33.3949C118.645 33.2394 118.787 33.2105 118.787 33.2912C118.787 33.32 119.058 33.781 119.386 34.3226L119.986 35.3078L120.431 35.0946C120.721 34.9563 120.875 34.8526 120.862 34.8008C120.811 34.6164 118.948 31.5742 118.884 31.5742C118.845 31.5742 117.988 31.9718 116.982 32.4558Z" fill="#013600"/>
<path d="M10.5446 35.9013C10.4608 36.0742 10.2997 36.3853 10.1965 36.5985L10.0032 36.9787L11.9045 38.7187C12.9551 39.6694 13.8317 40.4299 13.8639 40.4068C13.8897 40.3838 14.0444 40.09 14.2119 39.7558L14.5149 39.1566L14.1862 38.8915L13.8574 38.6323L14.2248 37.8948L14.5987 37.1573L14.9209 37.1919C15.0949 37.2092 15.2947 37.238 15.3592 37.2553C15.4494 37.2783 15.5268 37.1804 15.7588 36.731C15.9199 36.4256 16.0617 36.1202 16.0811 36.0511L16.1197 35.9243L13.8446 35.7861C12.5942 35.7169 11.376 35.642 11.1375 35.6247L10.6993 35.5902L10.5446 35.9013ZM12.62 36.9096C13.0711 36.9614 13.445 37.0075 13.4578 37.019C13.4901 37.0421 13.026 37.9121 12.9809 37.9121C12.9358 37.9121 12.2848 37.4166 11.795 37.0075C11.5243 36.7828 11.5049 36.7828 12.62 36.9096Z" fill="#013600"/>
<path d="M120.173 36.8461C119.393 37.1399 118.652 37.4223 118.529 37.4684C118.407 37.5145 118.007 37.6643 117.64 37.7968C117.047 38.0157 116.982 38.0561 117.021 38.1656C117.047 38.2289 117.376 38.9549 117.762 39.7731C118.149 40.5913 118.465 41.2827 118.465 41.3115C118.465 41.3461 118.484 41.3691 118.516 41.3691C118.639 41.3691 119.573 41.0004 119.599 40.937C119.618 40.9024 119.425 40.4357 119.174 39.8999C118.922 39.3698 118.723 38.9261 118.735 38.9204C118.748 38.9088 119.528 38.6092 120.463 38.2577C121.404 37.9063 122.19 37.5951 122.222 37.5721C122.274 37.526 121.7 36.2987 121.629 36.3045C121.61 36.3045 120.953 36.5465 120.173 36.8461Z" fill="#013600"/>
<path d="M61.1338 38.0849C60.9597 38.2462 60.6117 38.517 60.3603 38.6841C59.9156 38.9895 59.8834 39.001 57.7177 39.5829C55.2298 40.2513 52.2327 41.1271 51.2531 41.4728C50.5441 41.7263 50.2411 41.8934 49.5322 42.4119C49.0294 42.7749 47.953 43.7429 47.953 43.8293C47.953 43.8927 47.9144 44.0482 47.186 47.0443C46.2708 50.8067 46.0194 51.8841 46.0194 51.9821C46.0194 52.0743 46.4513 52.08 53.032 52.0685L60.0381 52.057L60.0574 51.2907L60.0767 50.5301H60.6826H61.2949V48.8016V47.0731H60.1927C59.5418 47.0731 59.1099 47.0501 59.1357 47.0213C59.155 46.9925 59.2904 46.906 59.4451 46.8254C60.0445 46.52 62.3004 45.2697 62.3842 45.2006C62.4615 45.1314 62.4615 45.0162 62.3713 44.3824C62.3133 43.9791 62.1521 42.8556 62.0103 41.8876C61.875 40.9196 61.7138 39.7039 61.6558 39.1796C61.5914 38.6553 61.5269 38.131 61.5012 38.01L61.456 37.791L61.1338 38.0849Z" fill="#013600"/>
<path d="M8.35962 40.626C8.1856 41.1042 8.05669 41.5017 8.06958 41.5133C8.08247 41.519 8.65611 41.8474 9.34576 42.2335C10.0354 42.6195 10.6284 42.9594 10.6671 42.9882C10.7508 43.0631 10.5833 43.0574 8.01157 42.896L7.54751 42.8672L7.34126 43.4319C7.23168 43.7372 7.08989 44.1348 7.02543 44.3134L6.91586 44.6361L7.7602 44.8838C8.22427 45.0163 9.25552 45.3159 10.0547 45.5464C10.854 45.7768 11.5694 45.9843 11.6467 46.0016C11.7692 46.0361 11.8014 46.0016 11.9432 45.5925C12.0335 45.3447 12.1237 45.1027 12.1495 45.0509C12.1946 44.9529 12.2913 44.9817 9.92584 44.3019C9.23619 44.106 8.64322 43.9216 8.60454 43.8928C8.56587 43.864 8.68833 43.8582 8.89458 43.8755C9.24263 43.9043 12.1946 44.0772 12.4009 44.0772C12.4653 44.0772 12.5491 43.9331 12.6587 43.6047C12.7489 43.3512 12.8069 43.115 12.7876 43.0919C12.7747 43.0631 12.3428 42.8154 11.8401 42.5331C9.88072 41.4326 9.53912 41.2367 9.55845 41.2137C9.57779 41.2021 10.2223 41.375 10.9958 41.5997C11.7757 41.8244 12.5749 42.0606 12.7747 42.1182L13.1356 42.2219L13.2001 42.0721C13.2387 41.9857 13.3161 41.7725 13.3805 41.5997C13.4386 41.4268 13.503 41.254 13.5159 41.2194C13.5481 41.1388 13.5223 41.1272 11.3438 40.4992C10.3319 40.2111 9.33931 39.9231 9.13951 39.8654C8.93326 39.8078 8.74634 39.756 8.71411 39.756C8.68833 39.756 8.5272 40.1478 8.35962 40.626Z" fill="#013600"/>
<path d="M121.423 41.2767C120.991 41.3862 120.437 41.6224 120.173 41.8125C119.631 42.1928 119.245 42.988 119.328 43.5526C119.548 44.9816 120.263 45.8171 121.43 45.9842C122.229 46.0994 123.479 45.7422 124.059 45.2351C124.794 44.5955 124.91 43.5411 124.362 42.4867C124.098 41.9681 123.731 41.6109 123.254 41.3977C122.938 41.2594 122.79 41.2306 122.3 41.2133C121.958 41.2075 121.597 41.2306 121.423 41.2767ZM123.022 42.6999C123.499 43.0398 123.615 43.6218 123.28 44.0424C123.028 44.3651 121.868 44.7165 121.346 44.6301C120.824 44.5437 120.444 43.9387 120.592 43.4432C120.714 43.0398 121.333 42.6941 122.119 42.5846C122.48 42.5385 122.861 42.5846 123.022 42.6999Z" fill="#013600"/>
<path d="M64.5433 44.7514C63.8665 45.1259 62.8997 45.6502 62.4035 45.921C61.9007 46.1918 61.4947 46.4281 61.4882 46.4511C61.4882 46.4742 61.5978 46.4857 61.7331 46.4799L61.9716 46.4684V48.7961V51.118L61.3593 51.1296L60.747 51.1353L60.7277 51.8959L60.7083 52.6622H42.5261H24.3439L23.3707 53.3651C22.8357 53.7511 21.2695 54.8862 19.8838 55.8829C17.5957 57.5308 16.442 58.3662 16.2809 58.493C16.2422 58.516 24.9305 58.5391 35.5845 58.5391H54.9527L55.8228 57.8592C56.3062 57.4904 57.389 56.6377 58.2333 55.9751C59.0777 55.3068 59.9027 54.6615 60.0702 54.5347C60.2378 54.408 60.8372 53.9413 61.398 53.4976C61.9652 53.054 62.513 52.6218 62.6161 52.5412C62.7257 52.4605 63.0995 52.1609 63.454 51.8843C63.8085 51.6078 64.2855 51.2333 64.5175 51.0547C64.7431 50.8761 65.1234 50.5822 65.3554 50.3921C65.5874 50.2077 65.8968 49.96 66.0515 49.8505L66.3286 49.6488L66.4704 49.7641C66.6445 49.9023 70.0411 52.5585 71.1562 53.4342C72.3485 54.3619 72.7997 54.7191 73.412 55.2031C73.715 55.4393 74.4368 56.0097 75.0233 56.4649C75.6099 56.9143 76.2737 57.4386 76.5058 57.6172C76.7378 57.8016 77.0987 58.0781 77.305 58.2452L77.6853 58.5391H96.7569H115.835L115.616 58.3835C115.5 58.2913 115.371 58.1991 115.332 58.1646C115.236 58.0897 113.392 56.7184 112.567 56.1076C111.691 55.4623 109.77 54.0334 108.848 53.342L108.094 52.7774L89.9765 52.7659L71.8587 52.7486L71.8458 51.5387L71.8329 50.3287L71.1368 50.3114L70.4407 50.2941L70.4472 48.2776C70.4536 47.1656 70.4343 46.2322 70.4021 46.2091C70.3763 46.1861 69.8607 45.9383 69.2548 45.6618C68.6554 45.3852 68.1333 45.1374 68.0947 45.1144C68.0624 45.0914 67.5984 44.8724 67.0634 44.6247C66.5349 44.3769 66.0708 44.1522 66.0386 44.1292C65.9097 44.0254 65.7421 44.0946 64.5433 44.7514Z" fill="#013600"/>
<path d="M6.60648 49.2394C6.2971 49.3431 5.90393 49.6716 5.71702 49.9827C5.53655 50.2938 5.35608 51.1005 5.34963 51.6018C5.34319 52.564 5.90393 53.3188 6.87718 53.6415C7.41215 53.8201 8.1018 53.8892 8.5852 53.8143C9.97095 53.5954 10.6477 52.7253 10.6606 51.1639C10.6606 50.6453 10.6348 50.4897 10.4801 50.0979C10.3835 49.8444 10.2674 49.5909 10.2223 49.539C10.1192 49.4123 8.06313 49.1242 8.02445 49.2279C7.99223 49.3143 7.7473 50.847 7.72152 51.1063L7.70219 51.3079L8.18559 51.3713C8.44985 51.4116 8.68188 51.4289 8.68833 51.4232C8.70122 51.4116 8.74633 51.2042 8.77856 50.9622L8.84946 50.5243L9.10727 50.5416C9.34575 50.5589 9.37153 50.5762 9.45532 50.7894C9.59068 51.1293 9.54556 51.8034 9.37153 52.0109C9.04282 52.4027 8.59165 52.5294 7.87621 52.4315C6.94808 52.299 6.49046 51.9532 6.49046 51.3713C6.49046 50.9853 6.6387 50.7375 6.96742 50.5762L7.23168 50.4436L7.193 49.9827C7.17367 49.7292 7.15433 49.4353 7.15433 49.3316C7.15433 49.176 7.12855 49.1472 7.01253 49.153C6.92875 49.153 6.74828 49.1933 6.60648 49.2394Z" fill="#013600"/>
<path d="M124.201 49.6141C123.228 49.7351 122.151 49.8677 121.816 49.908C121.481 49.9483 121.204 50.0002 121.21 50.029C121.21 50.052 121.249 50.3574 121.301 50.7031L121.384 51.3369L121.584 51.3311C121.694 51.3311 122.145 51.285 122.59 51.2274C123.035 51.1698 123.415 51.1352 123.441 51.1583C123.505 51.2159 123.698 52.616 123.64 52.662C123.615 52.6851 123.17 52.7485 122.654 52.8061C122.139 52.8637 121.7 52.9271 121.681 52.9444C121.662 52.9616 121.687 53.2785 121.745 53.6415C121.842 54.2465 121.861 54.3041 121.977 54.2926C123.015 54.1889 126.85 53.7107 126.889 53.6761C126.921 53.6473 126.728 52.3682 126.689 52.3336C126.676 52.3221 126.283 52.3567 125.813 52.4201C125.22 52.495 124.955 52.5122 124.936 52.4661C124.897 52.3682 124.717 51.2389 124.717 51.0891C124.717 50.9566 124.749 50.9508 125.568 50.8529C126.038 50.801 126.431 50.7434 126.444 50.7377C126.457 50.7261 126.418 50.4265 126.367 50.0751C126.309 49.7179 126.264 49.4183 126.264 49.4067C126.264 49.3606 126.032 49.3837 124.201 49.6141Z" fill="#013600"/>
<path d="M65.8968 50.5189C65.6776 50.7033 65.0009 51.2334 64.3821 51.7116C63.7698 52.1841 62.9899 52.7948 62.6483 53.0656C61.7395 53.7916 61.3012 54.1316 59.4901 55.5432C58.5878 56.2519 57.6468 56.9894 57.3954 57.1853C57.1505 57.3812 55.8421 58.4068 54.495 59.4612C53.1479 60.5156 52.0393 61.3972 52.0264 61.426C52.0136 61.4548 57.9755 61.4778 66.3157 61.4778C74.1919 61.4778 80.6307 61.4606 80.6243 61.4317C80.6243 61.3972 77.5885 59.006 75.713 57.5598C75.294 57.2372 73.8889 56.1367 73.4764 55.8082C72.8448 55.307 71.1626 53.9875 70.8983 53.7858C70.7307 53.6591 69.6673 52.8294 68.5393 51.9421C67.405 51.0548 66.4382 50.3 66.3866 50.2596C66.3093 50.2078 66.219 50.2539 65.8968 50.5189ZM67.3921 52.8063C67.9528 53.2154 68.8036 53.855 69.287 54.218C70.0991 54.8287 71.9231 56.1885 73.9276 57.6751C74.3788 58.0092 75.3842 58.7583 76.177 59.346L77.6079 60.4119L71.9618 60.4292C68.8616 60.435 63.7827 60.435 60.6761 60.4292L55.03 60.4119L58.62 57.7327C60.5987 56.2577 62.3067 54.9901 62.4163 54.9094C62.5259 54.8287 63.2219 54.3102 63.9632 53.757C64.7044 53.2039 65.4005 52.6853 65.51 52.6047C65.6196 52.5298 65.8387 52.3684 65.9934 52.2474C66.1546 52.1264 66.3028 52.0343 66.3286 52.04C66.3544 52.0515 66.8378 52.3915 67.3921 52.8063Z" fill="#013600"/>
<path d="M4.96289 55.2435C4.96289 55.3702 4.94355 55.664 4.92422 55.9003L4.8791 56.3324L5.32383 56.367C5.56875 56.39 6.18105 56.4073 6.69023 56.413C7.19297 56.4188 7.6248 56.4419 7.6377 56.4649C7.66992 56.511 7.23164 56.7703 5.35605 57.8189L4.84043 58.1069L4.83398 58.7522V59.3918L5.24004 59.4263C5.45918 59.4436 6.33574 59.4724 7.18652 59.4897C8.0373 59.507 9.0041 59.5358 9.33281 59.5531L9.92578 59.5876V58.9308V58.2683L9.04277 58.2337C8.55938 58.2106 7.95352 58.1934 7.68926 58.1934C7.43145 58.1934 7.21875 58.1761 7.21875 58.1473C7.21875 58.1242 7.81816 57.767 8.55938 57.3522C9.3457 56.9085 9.92578 56.5398 9.9709 56.4591C10.0225 56.3785 10.0547 56.0904 10.0547 55.7678V55.2146L9.17168 55.1801C8.68184 55.157 7.59902 55.1282 6.76758 55.1109C5.93613 55.0879 5.18848 55.0648 5.11113 55.0476C4.97578 55.0245 4.96289 55.0418 4.96289 55.2435Z" fill="#013600"/>
<path d="M122.384 55.4681L121.945 55.4911V55.8771C121.945 56.3611 122.016 56.8738 122.074 56.8392C122.093 56.8277 122.396 56.8104 122.738 56.8047L123.363 56.7931V56.2919C123.363 56.0154 123.344 55.7043 123.325 55.6063C123.286 55.445 123.26 55.4278 123.047 55.4393C122.918 55.445 122.622 55.4566 122.384 55.4681Z" fill="#013600"/>
<path d="M36.0937 62.4573V65.511H36.8671H37.6405V62.4573V59.4036H36.8671H36.0937V62.4573Z" fill="#013600"/>
<path d="M94.6622 59.444C94.6493 59.4728 94.6429 60.8383 94.6429 62.4861L94.6493 65.4822H95.4228H96.1963L96.2156 62.44L96.2285 59.4036H95.4615C95.036 59.4036 94.6751 59.4209 94.6622 59.444Z" fill="#013600"/>
<path d="M21.5918 62.4573V65.4534H28.6817H35.7715V62.4573V59.4612H28.6817H21.5918V62.4573ZM33.7735 62.2845V64.1859H29.3262H24.8789V62.2845V60.3831H29.3262H33.7735V62.2845Z" fill="#013600"/>
<path d="M25.2334 60.7398C25.2141 60.7801 25.2076 61.5005 25.2141 62.3418L25.2334 63.869L26.703 63.8862L28.1661 63.8978L28.1532 62.3015L28.1338 60.6994L26.6965 60.6822C25.5492 60.6649 25.2592 60.6764 25.2334 60.7398Z" fill="#013600"/>
<path d="M28.7332 60.7109L28.5528 60.7339V62.3184V63.9028L29.3133 63.8855L30.0674 63.8683L30.0867 62.3069L30.0996 60.7397L29.9578 60.7051C29.7967 60.6706 29.0233 60.6706 28.7332 60.7109Z" fill="#013600"/>
<path d="M30.4477 60.746C30.4348 60.7864 30.4284 61.5008 30.4348 62.3421L30.4541 63.869L31.9237 63.8862L33.3869 63.8978V62.296V60.6884L31.9366 60.6826C30.8473 60.6769 30.4735 60.6942 30.4477 60.746Z" fill="#013600"/>
<path d="M38.0273 62.4573V65.4534H45.7616H53.496V63.6673V61.8812L52.1103 61.8696L50.7181 61.8524L52.0523 60.8152C52.7806 60.2448 53.4702 59.709 53.5862 59.6226L53.786 59.467L45.9099 59.4612H38.0273V62.4573ZM48.965 62.296L48.9843 64.1859H44.5048H40.0253V62.2845V60.3831L44.4919 60.3946L48.9521 60.4119L48.965 62.296Z" fill="#013600"/>
<path d="M40.5925 60.7115L40.412 60.7345V62.319V63.8978H41.8944H43.3769L43.364 62.296L43.3446 60.6999L42.0556 60.6942C41.3466 60.6884 40.6892 60.6999 40.5925 60.7115Z" fill="#013600"/>
<path d="M43.7958 60.7C43.7571 60.7172 43.7378 61.2991 43.7378 62.3014L43.7507 63.8683L44.4919 63.8856C45.2009 63.8971 45.2331 63.8971 45.2653 63.7761C45.3169 63.6148 45.3233 60.9995 45.2782 60.8325C45.2396 60.7057 45.2138 60.7 44.5499 60.6884C44.1696 60.6827 43.8344 60.6884 43.7958 60.7Z" fill="#013600"/>
<path d="M45.781 60.711L45.6327 60.7341V62.3188V63.8978H47.1151H48.5976V62.3188C48.5976 60.9358 48.5847 60.7341 48.4944 60.7053C48.3849 60.6649 46.0065 60.6707 45.781 60.711Z" fill="#013600"/>
<path d="M78.8905 59.4785C78.8905 59.49 79.5737 60.0259 80.4052 60.677L81.9134 61.8524L80.5663 61.8696L79.2128 61.8812V63.6673V65.4534H86.7538H94.2949V62.4573V59.4612H86.5927C82.3581 59.4612 78.8905 59.467 78.8905 59.4785ZM92.2968 62.2845V64.1859H87.8495H83.4023V62.2845V60.3831H87.8495H92.2968V62.2845Z" fill="#013600"/>
<path d="M83.7567 60.8667C83.7374 60.9646 83.7245 61.6792 83.7374 62.4571L83.7567 63.869H85.2391H86.7215L86.7408 62.3188C86.7537 61.1144 86.7344 60.7572 86.6764 60.7168C86.6313 60.688 85.961 60.6707 85.194 60.6765L83.789 60.6823L83.7567 60.8667Z" fill="#013600"/>
<path d="M87.1211 60.7055C87.0954 60.7286 87.076 61.4546 87.076 62.3247V63.8978H87.8495H88.6229V62.2959V60.694L87.8946 60.6825C87.495 60.671 87.1469 60.6825 87.1211 60.7055Z" fill="#013600"/>
<path d="M89.1256 60.711C89.0161 60.7341 89.0096 60.8608 89.0096 62.3188V63.8978L90.4791 63.8862L91.9422 63.869L91.9616 62.3073L91.9745 60.7398L91.8327 60.7053C91.6651 60.6649 89.2932 60.6707 89.1256 60.711Z" fill="#013600"/>
<path d="M96.5507 62.4573V65.4534H103.834H111.117V62.4573V59.4612H103.834H96.5507V62.4573ZM107.508 62.2845V64.1859H103.048H98.5809L98.6003 62.3306C98.6067 61.305 98.6132 60.4523 98.6132 60.4234C98.6132 60.4004 100.618 60.3831 103.06 60.3831H107.508V62.2845Z" fill="#013600"/>
<path d="M98.9677 60.7398C98.9483 60.7801 98.9419 61.5005 98.9483 62.3418L98.9677 63.869L100.437 63.8862L101.9 63.8978L101.887 62.3015L101.868 60.6994L100.431 60.6822C99.2835 60.6649 98.9935 60.6764 98.9677 60.7398Z" fill="#013600"/>
<path d="M102.319 60.7172C102.3 60.7345 102.287 61.4547 102.287 62.3248V63.8978H103.06H103.834L103.821 62.2959L103.802 60.6999L103.08 60.6941C102.68 60.6941 102.339 60.6999 102.319 60.7172Z" fill="#013600"/>
<path d="M104.188 60.7168C104.169 60.7341 104.156 61.4544 104.156 62.3246V63.8978H105.639H107.121V62.3188V60.7399L106.837 60.7053C106.509 60.6592 104.24 60.6707 104.188 60.7168Z" fill="#013600"/>
<path d="M8.08889 61.0798C7.09631 61.4889 5.98771 61.9556 5.62032 62.1112L4.95645 62.3993L5.00157 62.9639C5.07247 63.9435 5.05313 63.9089 5.60743 64.0529C6.12306 64.1855 7.13498 64.4505 8.44339 64.7904C10.1063 65.2283 10.2803 65.2687 10.3061 65.2456C10.3383 65.2168 10.2094 63.8974 10.1643 63.8628C10.1514 63.8513 9.96449 63.8109 9.74535 63.7764L9.35863 63.713L9.31996 63.3903C9.30062 63.2059 9.26839 62.8429 9.24261 62.5664L9.20394 62.0766L9.61 61.9326L10.0225 61.7885L10.0032 61.391C9.99027 61.1663 9.95805 60.8378 9.93871 60.6592L9.89359 60.3308L8.08889 61.0798ZM8.19846 62.9294C8.2178 63.1944 8.22425 63.4191 8.21136 63.4307C8.17913 63.4595 6.49045 63.1368 6.42599 63.0907C6.38087 63.0561 7.94065 62.4684 8.09534 62.4627C8.14046 62.4569 8.17913 62.6355 8.19846 62.9294Z" fill="#013600"/>
<path d="M122.048 60.7744C122.029 60.9242 121.977 61.4716 121.939 61.996C121.836 63.3329 121.939 63.7535 122.474 64.2491C122.828 64.5718 123.305 64.7562 124.008 64.8369C125.568 65.0097 126.651 64.5027 126.908 63.4769C126.979 63.1831 127.173 60.8896 127.134 60.8493C127.115 60.8378 126.128 60.7686 124.93 60.6937C123.731 60.6246 122.603 60.5496 122.416 60.5324L122.087 60.4978L122.048 60.7744ZM124.362 62.0536C124.859 62.0824 125.413 62.1228 125.587 62.1401L125.916 62.1746L125.877 62.5319C125.787 63.2695 125.523 63.4654 124.62 63.4597C123.918 63.4539 123.55 63.3675 123.279 63.1485C123.08 62.9929 123.073 62.9641 123.067 62.5319C123.06 62.2841 123.067 62.0652 123.086 62.0363C123.118 61.9845 123.273 61.9845 124.362 62.0536Z" fill="#013600"/>
<path d="M54.6561 62.1404V62.3997L66.0193 62.3882L77.376 62.3709L77.3954 62.1232L77.4147 61.8812H66.0386H54.6561V62.1404Z" fill="#013600"/>
<path d="M54.669 71.1114L54.6884 79.2527L57.2536 79.27L59.8124 79.2816V71.1287V62.9759H57.2343H54.6561L54.669 71.1114ZM59.2839 70.7945L59.2645 77.5242L57.2536 77.5415L55.2362 77.553V70.8118V64.0706H57.2665H59.2967L59.2839 70.7945Z" fill="#013600"/>
<path d="M55.6874 65.5975V66.721H57.2343H58.7811V65.5975V64.4739H57.2343H55.6874V65.5975Z" fill="#013600"/>
<path d="M55.7003 72.1193L55.7196 77.1202L56.3835 77.126H57.0409V72.125V67.1241H56.3641H55.6874L55.7003 72.1193Z" fill="#013600"/>
<path d="M57.4921 72.1308V77.1375L58.1366 77.1433L58.7811 77.1548V72.1366V67.1241H58.1366H57.4921V72.1308Z" fill="#013600"/>
<path d="M62.1327 70.057V77.144L62.7128 77.1382L63.2928 77.1324V70.4834V63.8401H66.2899H69.287V70.4949V77.1497H69.8671H70.4471V70.0628V62.9759H66.2899H62.1327V70.057Z" fill="#013600"/>
<path d="M72.2519 71.1287V79.2816H74.83H77.4081V71.1287V62.9759H74.83H72.2519V71.1287ZM74.9976 64.0706H76.828V70.8118V77.553H74.83H72.8319V70.8176C72.8319 63.8344 72.8255 63.9727 73.0769 64.0476C73.1284 64.0591 73.9921 64.0706 74.9976 64.0706Z" fill="#013600"/>
<path d="M73.2831 65.5975V66.721H74.83H76.3769V65.5975V64.4739H74.83H73.2831V65.5975Z" fill="#013600"/>
<path d="M73.2831 72.125V77.1321L73.9148 77.1263L74.5399 77.1206L74.5593 72.1193L74.5722 67.1237H73.9276H73.2831V72.125Z" fill="#013600"/>
<path d="M75.0878 72.0794C75.0878 74.8047 75.0813 77.0518 75.0749 77.0748C75.062 77.1036 75.3456 77.1209 75.7001 77.1209H76.3447L76.364 72.1197L76.3769 67.1243H75.7323H75.0878V72.0794Z" fill="#013600"/>
<path d="M63.744 70.6674V77.0857L63.9567 77.1203C64.0663 77.1376 65.2071 77.1491 66.4833 77.1376L68.8036 77.1203L68.8229 70.6789L68.8358 64.2433H66.2899H63.744V70.6674Z" fill="#013600"/>
<path d="M121.559 65.7756C121.559 65.8045 121.397 66.6515 121.204 67.6657C121.004 68.6741 120.856 69.5096 120.869 69.5211C120.927 69.573 121.913 69.7113 121.952 69.671C121.971 69.6479 122.087 69.1235 122.203 68.507C122.319 67.8904 122.429 67.366 122.454 67.3488C122.474 67.3315 122.706 67.3372 122.964 67.3718C123.312 67.4179 123.428 67.4582 123.428 67.5216C123.428 67.5735 123.337 68.0633 123.234 68.6107C123.125 69.1639 123.041 69.6191 123.041 69.6306C123.041 69.6537 124.014 69.7862 124.04 69.7631C124.046 69.7574 124.117 69.4059 124.195 68.9968C124.272 68.5819 124.362 68.1094 124.401 67.9365L124.472 67.6311L124.833 67.6714C125.039 67.6945 125.219 67.7291 125.245 67.7463C125.264 67.7694 125.187 68.2938 125.071 68.9103C124.949 69.5269 124.871 70.0513 124.897 70.0686C124.936 70.1031 125.703 70.2357 125.857 70.2357C125.896 70.2357 125.941 70.1146 125.96 69.9591C125.986 69.8092 126.135 69.0141 126.296 68.19C126.45 67.366 126.586 66.6515 126.586 66.5997C126.586 66.5305 126.444 66.4902 125.96 66.421C124.671 66.2309 121.842 65.7929 121.707 65.7584C121.623 65.7411 121.559 65.7526 121.559 65.7756Z" fill="#013600"/>
<path d="M19.0781 67.3548C17.7117 68.0808 16.442 68.7607 16.2615 68.8586C16.0746 68.9566 15.9199 69.0487 15.9199 69.0603C15.9199 69.0718 24.3761 69.0833 34.708 69.0833H53.4961V67.5565V66.0296H37.531H21.5595L19.0781 67.3548Z" fill="#013600"/>
<path d="M79.2128 67.5565V69.0833H97.9364C108.236 69.0833 116.66 69.0718 116.66 69.0603C116.66 69.0487 116.099 68.6858 115.423 68.2594C114.739 67.833 113.657 67.1589 113.018 66.7613L111.865 66.0296H95.5388H79.2128V67.5565Z" fill="#013600"/>
<path d="M8.39182 66.2364C7.79884 66.5015 7.57326 66.9567 7.48947 68.0977C7.41857 68.939 7.36056 69.0831 7.08985 69.0831C6.84493 69.0831 6.69669 68.8814 6.65157 68.5068C6.62579 68.2533 6.64512 68.2072 6.80626 68.0574C6.90938 67.9652 7.03185 67.8787 7.07696 67.8672C7.14142 67.8499 7.12853 67.7116 7.00606 67.2506C6.92227 66.9279 6.83204 66.6455 6.8127 66.6283C6.72247 66.5418 6.29707 66.755 6.03926 67.0086C5.71699 67.3313 5.67188 67.4638 5.67188 68.1323C5.67188 68.7431 5.88457 69.4346 6.19395 69.7976C6.72891 70.4373 7.66994 70.5295 8.25002 69.9993C8.55939 69.717 8.68186 69.3943 8.76565 68.6509C8.86877 67.775 8.89455 67.6655 9.02991 67.533C9.22971 67.3428 9.55198 67.3716 9.75823 67.5906C9.89358 67.7347 9.92581 67.8269 9.92581 68.0862C9.92581 68.455 9.78401 68.6797 9.47464 68.795C9.37151 68.8353 9.28127 68.9102 9.28127 68.9621C9.28772 69.0831 9.57132 70.1088 9.61643 70.1491C9.668 70.201 10.1385 69.9993 10.3963 69.8207C10.5317 69.7227 10.7186 69.5153 10.8088 69.3482C11.1955 68.6739 10.9313 67.216 10.3061 66.5764C9.82913 66.0923 9.02991 65.9483 8.39182 66.2364Z" fill="#013600"/>
<path d="M21.624 70.2472C21.6047 70.2875 21.5983 72.9898 21.6047 76.2567L21.624 82.1912H25.459H29.294L29.3133 76.1818L29.3262 70.178H25.4913C22.4813 70.178 21.6434 70.1953 21.624 70.2472ZM28.2499 73.6178C28.2434 74.6261 28.237 75.4846 28.2305 75.5192C28.2305 75.5768 27.6311 75.5941 25.459 75.5941H22.6875V73.6927V71.7913H25.4784H28.2627L28.2499 73.6178Z" fill="#013600"/>
<path d="M23.0098 73.6638V75.2484H23.7188H24.4278L24.4149 73.6753L24.3955 72.1081L23.7059 72.0908L23.0098 72.0735V73.6638Z" fill="#013600"/>
<path d="M24.75 73.6576V75.2419L25.3559 75.2592C25.6846 75.2707 26.0069 75.2707 26.0649 75.2592C26.1616 75.2419 26.168 75.0806 26.1552 73.6749L26.1358 72.1079L25.4461 72.0906L24.75 72.0733V73.6576Z" fill="#013600"/>
<path d="M26.5354 72.1138C26.5096 72.1368 26.4903 72.8511 26.4903 73.698C26.4903 75.0691 26.5032 75.2419 26.5934 75.2592C26.6514 75.2707 26.9737 75.2707 27.3024 75.2592L27.9082 75.2419L27.8953 73.6749L27.876 72.108L27.225 72.0907C26.8705 72.0849 26.5612 72.0907 26.5354 72.1138Z" fill="#013600"/>
<path d="M31.2598 76.199V82.22L34.6307 82.2085L37.9951 82.1912L38.0145 76.1818L38.0274 70.178H34.6436H31.2598V76.199Z" fill="#013600"/>
<path d="M40.2187 76.199V82.22H43.6024H46.9862V76.199V70.178H43.6024H40.2187V76.199ZM46.4062 73.6927V75.5941H43.6024H40.7987V73.6927V71.7913H43.6024H46.4062V73.6927Z" fill="#013600"/>
<path d="M41.2306 72.1139C41.2048 72.137 41.1855 72.8515 41.1855 73.7042V75.2484H41.8944H42.6034L42.5905 73.6754L42.5712 72.1082L41.9202 72.0909C41.5657 72.0851 41.2564 72.0909 41.2306 72.1139Z" fill="#013600"/>
<path d="M42.9257 73.6981C42.9257 75.15 42.9386 75.3171 43.0288 75.2825C43.0868 75.2652 43.4026 75.2479 43.7378 75.2479H44.3437L44.3308 73.6751L44.3114 72.108L43.6218 72.0907L42.9257 72.0735V73.6981Z" fill="#013600"/>
<path d="M44.6981 72.1481C44.6788 72.1884 44.6723 72.9087 44.6788 73.7384L44.6981 75.2595H45.3748H46.0515V73.6808V72.1078L45.3877 72.0905C44.8915 72.0789 44.7174 72.0962 44.6981 72.1481Z" fill="#013600"/>
<path d="M49.1905 75.778L49.2098 81.3842L49.9382 81.4015L50.66 81.4246V80.8714V80.3183H51.5946H52.5292V75.2479V70.1774H50.8534H49.1776L49.1905 75.778Z" fill="#013600"/>
<path d="M80.1795 75.2478V80.3121L81.0046 80.3294L81.8231 80.3467L81.8425 80.8364C81.8554 81.1072 81.894 81.3377 81.9327 81.3607C81.9714 81.3838 82.3452 81.4011 82.7642 81.3953H83.5312L83.5441 75.8412C83.557 72.7934 83.557 70.2641 83.5441 70.2353C83.5312 70.2008 82.906 70.1777 81.8489 70.1777H80.1795V75.2478Z" fill="#013600"/>
<path d="M85.7225 76.199V82.22H89.1063H92.4901V76.199V70.178H89.1063H85.7225V76.199ZM91.7811 73.6927V75.5941H89.0096H86.2381V73.6927V71.7913H89.0096H91.7811V73.6927Z" fill="#013600"/>
<path d="M86.6055 72.1133C86.5797 72.1364 86.5604 72.851 86.5604 73.6981V75.2425L87.2435 75.2598C87.6688 75.2713 87.9395 75.254 87.9524 75.2195C87.9717 75.1849 87.9717 74.4761 87.9652 73.6347L87.9459 72.1076L87.295 72.0903C86.9406 72.0845 86.6313 72.0903 86.6055 72.1133Z" fill="#013600"/>
<path d="M88.3329 72.1537C88.3136 72.1941 88.3071 72.9086 88.3136 73.7441L88.3329 75.2653L88.5585 75.2826C88.6809 75.2883 88.9967 75.2826 89.2545 75.2653L89.7185 75.2365V73.6576V72.0788H89.0418C88.552 72.0788 88.3522 72.1019 88.3329 72.1537Z" fill="#013600"/>
<path d="M90.086 72.1138C90.0409 72.1599 90.0215 75.2134 90.0667 75.2537C90.0796 75.2652 90.4018 75.271 90.7757 75.2595L91.4589 75.2422L91.446 73.6751L91.4266 72.1081L90.7757 72.0908C90.4212 72.085 90.1118 72.0908 90.086 72.1138Z" fill="#013600"/>
<path d="M94.6815 76.199V82.22H98.0653H101.449V76.199V70.178H98.0653H94.6815V76.199Z" fill="#013600"/>
<path d="M103.447 76.199V82.22H107.282H111.117V76.199V70.178H107.282H103.447V76.199ZM109.957 73.6927V75.5941L107.173 75.5825L104.382 75.5652L104.362 73.6754L104.349 71.7913H107.153H109.957V73.6927Z" fill="#013600"/>
<path d="M104.736 73.6632V75.2477L105.22 75.2535C105.484 75.2535 105.8 75.2592 105.916 75.265L106.122 75.2708V73.6863V72.1076L105.432 72.0903L104.736 72.073V73.6632Z" fill="#013600"/>
<path d="M106.489 73.6636L106.509 75.2595H107.185H107.862V73.6809V72.1081L107.166 72.0908L106.476 72.0735L106.489 73.6636Z" fill="#013600"/>
<path d="M108.262 72.1139C108.236 72.137 108.217 72.8515 108.217 73.7042V75.2484H108.926H109.635L109.622 73.6754L109.602 72.1082L108.951 72.0909C108.597 72.0851 108.288 72.0909 108.262 72.1139Z" fill="#013600"/>
<path d="M120.566 70.6269C120.553 70.6499 120.315 71.4048 120.044 72.3094C119.767 73.2141 119.528 73.9804 119.515 74.015C119.483 74.0957 120.656 74.3665 120.708 74.2801C120.734 74.2512 120.882 73.7788 121.043 73.2371C121.23 72.609 121.365 72.2518 121.417 72.2518C121.462 72.2518 122.3 72.4477 123.273 72.6897C124.253 72.926 125.065 73.1161 125.071 73.1046C125.123 73.0642 125.49 71.8254 125.464 71.8023C125.426 71.7735 123.95 71.399 122.686 71.0994C122.158 70.9726 121.468 70.8055 121.159 70.7306C120.85 70.6499 120.579 70.6038 120.566 70.6269Z" fill="#013600"/>
<path d="M10.2803 71.1916C9.75174 71.3356 8.70761 71.6064 7.95995 71.7965C7.21875 71.9924 6.6 72.1538 6.59356 72.1595C6.57422 72.1711 6.96738 73.3695 6.99316 73.3983C7.00605 73.4041 7.58613 73.2716 8.28222 73.0872C8.97186 72.9086 9.57127 72.7703 9.6035 72.7818C9.64217 72.7933 9.25545 73.2428 8.75917 73.7786C8.25644 74.3202 7.77949 74.8388 7.68925 74.9367L7.53457 75.1211L7.72792 75.7088C7.83105 76.0315 7.93417 76.308 7.94706 76.3253C7.97929 76.3484 8.5078 76.2216 9.31346 76.0027C9.42303 75.9738 10.248 75.7607 11.1504 75.5302C12.0527 75.2997 12.8068 75.1038 12.8197 75.0923C12.8326 75.0865 12.7617 74.8042 12.6586 74.47C12.5361 74.0725 12.4394 73.865 12.3814 73.865C12.3299 73.865 11.7433 74.0091 11.0666 74.1819C10.3963 74.3605 9.82908 74.4931 9.80975 74.4758C9.79686 74.4585 9.98377 74.228 10.2287 73.9687C10.4736 73.7037 10.9506 73.1909 11.2922 72.8221L11.9045 72.148L11.7111 71.5373C11.5371 71.0129 11.492 70.9265 11.3759 70.9323C11.3051 70.938 10.8152 71.0533 10.2803 71.1916Z" fill="#013600"/>
<path d="M12.9744 75.9225C12.9035 75.9801 12.4588 76.3546 11.9818 76.7522C11.5049 77.1497 10.6734 77.8469 10.1385 78.2963C9.59704 78.7515 9.15231 79.1433 9.15231 79.1663C9.15231 79.2182 9.29411 79.5408 9.46814 79.8865C9.53259 80.0133 9.62282 80.215 9.67439 80.3302C9.74529 80.5203 9.78396 80.5491 9.95798 80.5491C10.0611 80.5491 10.9506 80.5203 11.9238 80.4915C12.8971 80.4627 14.0379 80.4339 14.4568 80.4281C14.9725 80.4224 15.2109 80.3993 15.2045 80.3532C15.2045 80.3187 15.082 80.0306 14.9273 79.7137L14.6566 79.1375L14.2055 79.149L13.7478 79.1606L13.4062 78.4115L13.0646 77.6625L13.3096 77.4781C13.4449 77.3744 13.5996 77.265 13.6576 77.2304C13.735 77.1728 13.7092 77.0748 13.4385 76.4929C13.2709 76.1241 13.1226 75.8245 13.1162 75.8245C13.1098 75.8245 13.0453 75.8706 12.9744 75.9225ZM12.3105 78.5729C12.3557 78.6939 12.433 78.8782 12.4846 78.9762C12.5297 79.0799 12.5683 79.1836 12.5683 79.2067C12.5748 79.2527 10.7765 79.4429 10.7314 79.4083C10.6992 79.3737 12.0721 78.3654 12.1494 78.3597C12.1881 78.3597 12.259 78.4576 12.3105 78.5729Z" fill="#013600"/>
<path d="M117.917 77.9333C117.749 78.2675 117.64 78.5671 117.666 78.5901C117.698 78.6132 118.078 78.7688 118.516 78.9416C118.948 79.1087 119.303 79.2643 119.303 79.2873C119.303 79.3161 119.187 79.5927 119.045 79.9096C118.607 80.8833 118.71 81.5113 119.386 81.9262C119.676 82.099 120.244 82.2776 120.521 82.2776C120.824 82.2776 121.346 82.0126 121.545 81.7649C121.707 81.569 122.59 79.8635 122.841 79.2758C122.899 79.126 122.892 79.1202 122.022 78.7745C120.456 78.1523 118.31 77.3226 118.265 77.3226C118.246 77.3226 118.084 77.5991 117.917 77.9333ZM120.83 79.8289C121.088 79.9211 121.301 80.0306 121.301 80.0651C121.301 80.2034 121.088 80.5837 120.927 80.7335C120.592 81.0562 120.012 80.843 120.012 80.4051C120.012 80.1919 120.25 79.61 120.327 79.6388C120.347 79.6503 120.579 79.731 120.83 79.8289Z" fill="#013600"/>
<path d="M62.1327 77.8699V78.1868H66.2899H70.4471V77.8699V77.553H66.2899H62.1327V77.8699Z" fill="#013600"/>
<path d="M62.1327 78.9359V79.2816H66.2899H70.4471V78.9359V78.5959L66.2899 78.5901H62.1327V78.9359Z" fill="#013600"/>
<path d="M53.6893 79.9442V80.3187H66.3544H79.0194V79.9442V79.5696H66.3544H53.6893V79.9442Z" fill="#013600"/>
<path d="M51.0468 81.0389V81.4134H66.2577H81.4686V81.0389V80.6644H66.2577H51.0468V81.0389Z" fill="#013600"/>
<path d="M14.3731 81.3611C14.0895 81.4648 13.793 81.701 13.6576 81.9488C13.548 82.1332 13.5287 82.2484 13.5545 82.4904C13.5738 82.6575 13.5738 82.7958 13.5609 82.7958C13.5416 82.7958 13.4385 82.7382 13.3353 82.6632C13.026 82.4616 12.4717 82.4846 12.1107 82.7093C11.9625 82.8015 11.782 82.9802 11.7111 83.1012C11.5629 83.3604 11.5435 83.7926 11.666 84.0691C11.8271 84.4206 13.2258 86.7139 13.2644 86.6908C13.2902 86.6793 14.2957 86.1953 15.501 85.6191C16.7063 85.0371 17.6989 84.5589 17.7118 84.5531C17.7182 84.5474 17.4024 84.0058 17.0092 83.3489C16.2422 82.0928 15.8362 81.58 15.4688 81.4014C15.2238 81.2862 14.6438 81.2631 14.3731 81.3611ZM15.3528 82.7958C15.443 82.8534 15.6235 83.0954 15.7588 83.3201C15.9908 83.7234 15.9973 83.7407 15.8813 83.8156C15.6621 83.9654 15.1401 84.1844 15.0885 84.1498C14.9531 84.0807 14.5664 83.3086 14.5664 83.1184C14.5664 82.7497 15.024 82.5595 15.3528 82.7958ZM13.7092 83.7983C13.7479 83.8329 13.8897 84.0288 14.0186 84.2305C14.2764 84.6453 14.2957 84.605 13.7221 84.8701L13.3676 85.0314L13.1291 84.6223C12.8068 84.0634 12.8133 83.879 13.1742 83.7407C13.3805 83.6601 13.5738 83.6831 13.7092 83.7983Z" fill="#013600"/>
<path d="M49.3065 81.8743V82.0472H66.3544H83.4022V81.8743V81.7015H66.3544H49.3065V81.8743Z" fill="#013600"/>
<path d="M115.809 82.0012C115.751 82.0761 115.59 82.3469 115.442 82.6062C115.203 83.0383 115.191 83.0843 115.294 83.1362C115.352 83.165 116.222 83.5798 117.221 84.0523C118.22 84.5305 119.18 84.9856 119.354 85.0663L119.683 85.2161L120.044 84.6054C120.244 84.2712 120.398 83.9889 120.386 83.9831C120.315 83.9255 116.164 81.9551 116.009 81.9033C115.945 81.8802 115.867 81.9148 115.809 82.0012Z" fill="#013600"/>
<path d="M114.23 84.5649C114.121 84.7147 113.721 85.2793 113.341 85.8209C112.954 86.3567 112.574 86.9155 112.484 87.0538L112.322 87.3073L112.458 87.3995C112.535 87.4513 112.767 87.5839 112.973 87.6991L113.347 87.9065L113.695 87.411C113.882 87.1402 114.179 86.7196 114.353 86.4719L114.669 86.034L116.293 86.9443C117.53 87.6415 117.936 87.8431 117.988 87.7913C118.027 87.7509 118.22 87.4859 118.413 87.1978L118.774 86.6793L118.001 86.2472C117.569 86.011 117.04 85.7172 116.815 85.5904C115.326 84.7492 114.604 84.3517 114.52 84.3229C114.449 84.2999 114.359 84.3748 114.23 84.5649Z" fill="#013600"/>
<path d="M33.3481 85.1002C32.7487 85.1578 32.304 85.3249 31.9301 85.6361C31.4274 86.0452 31.2276 86.6329 31.479 86.9671C31.6981 87.2667 32.0719 87.0823 32.001 86.7135C31.9237 86.3217 32.2524 85.9645 32.8712 85.7744C33.2063 85.6706 33.7735 85.59 33.7735 85.6534C33.7735 85.6764 33.6898 85.8147 33.5931 85.9587C33.2837 86.4139 32.897 87.2667 32.3298 88.759C32.0333 89.5484 31.7303 90.3205 31.6594 90.4703L31.5241 90.7353L31.2211 90.6547C31.0536 90.6086 30.8602 90.574 30.7893 90.574C30.5508 90.574 30.2285 90.816 30.1512 91.058C29.9772 91.5593 30.525 91.928 31.176 91.7552C31.3243 91.7149 31.5176 91.6284 31.6079 91.565C31.7626 91.4613 31.7948 91.4556 32.0333 91.5305C32.1815 91.5766 32.4973 91.64 32.7487 91.6688C34.4181 91.882 35.8232 90.8621 36.4549 88.978C36.5967 88.5689 36.6289 88.3499 36.6289 87.8371C36.6418 86.8749 36.3711 86.2123 35.7716 85.711C35.14 85.1809 34.3794 84.9907 33.3481 85.1002ZM34.9788 85.8608C35.5267 86.0913 35.9392 86.702 36.0423 87.4568C36.2035 88.5689 35.4236 90.2052 34.4568 90.7757C34.0829 91.0004 33.5673 91.1502 33.1612 91.1502C32.9292 91.1502 32.1751 91.0061 32.1106 90.9485C32.0977 90.937 32.188 90.7008 32.3169 90.4184C32.4393 90.1419 32.7294 89.4159 32.955 88.8166C33.606 87.1054 33.9025 86.4715 34.2634 86.0394C34.3472 85.9415 34.4181 85.8147 34.4181 85.7628C34.4181 85.6534 34.547 85.6764 34.9788 85.8608ZM30.9375 91.2078C30.9375 91.2366 30.8924 91.2654 30.8409 91.2654C30.7893 91.2654 30.7442 91.2366 30.7442 91.2078C30.7442 91.1732 30.7893 91.1502 30.8409 91.1502C30.8924 91.1502 30.9375 91.1732 30.9375 91.2078Z" fill="#013600"/>
<path d="M53.496 85.1064C52.555 85.2043 51.9749 85.5385 51.6397 86.1838C51.4013 86.6447 51.543 87.1172 51.9169 87.1172C52.1038 87.1172 52.2456 86.8867 52.1553 86.7312C52.1038 86.6505 52.1167 86.5641 52.2005 86.3912C52.3487 86.0974 52.6387 85.8842 53.0255 85.7747C53.3799 85.6768 53.9471 85.5961 53.9471 85.648C53.9471 85.6652 53.8698 85.7805 53.7795 85.9015C53.5282 86.2472 53.0448 87.3189 52.5292 88.6729C51.8975 90.338 51.7042 90.7644 51.5817 90.7183C50.9823 90.5167 50.6085 90.5685 50.3958 90.8854C50.2476 91.1044 50.2411 91.2715 50.37 91.4962C50.4925 91.7036 50.6472 91.7843 50.963 91.7958C51.2723 91.8015 51.4786 91.7497 51.73 91.5768C51.9169 91.4558 51.9427 91.4501 52.194 91.5307C53.6442 91.9744 55.017 91.5365 55.9258 90.3438C56.9828 88.9495 57.1117 87.0538 56.2158 85.9937C55.5971 85.2677 54.7334 84.9854 53.496 85.1064ZM55.1975 85.9015C55.6035 86.0916 55.9065 86.4604 56.0805 86.9616C56.3576 87.7625 56.145 88.9725 55.5778 89.8137C55.2491 90.2977 54.7077 90.7759 54.2758 90.9603C53.9729 91.0928 53.8311 91.1159 53.3671 91.1159C52.6967 91.1159 52.2391 91.0122 52.2971 90.8739C52.3165 90.822 52.5034 90.3323 52.7225 89.7964C52.9352 89.2548 53.2575 88.4482 53.4315 87.9988C53.8118 87.0308 54.1856 86.2933 54.4241 86.0398C54.5143 85.9418 54.5916 85.8208 54.5916 85.7632C54.5916 85.648 54.7399 85.6825 55.1975 85.9015ZM51.1112 91.2081C51.1112 91.2369 51.0661 91.2657 51.0145 91.2657C50.963 91.2657 50.9179 91.2369 50.9179 91.2081C50.9179 91.1735 50.963 91.1505 51.0145 91.1505C51.0661 91.1505 51.1112 91.1735 51.1112 91.2081Z" fill="#013600"/>
<path d="M78.6713 85.1067C77.5563 85.2392 76.6862 85.9652 76.7829 86.6912C76.8151 86.9908 76.9182 87.1175 77.118 87.1175C77.3243 87.1175 77.4274 86.9792 77.3887 86.7603C77.3114 86.259 77.827 85.8212 78.6649 85.6829C78.8711 85.6483 79.0645 85.6195 79.0967 85.6195C79.1869 85.6195 79.1547 85.729 78.9871 85.9537C78.7487 86.2763 78.3426 87.1751 77.7883 88.6213C77.3823 89.6872 76.9827 90.6667 76.9311 90.73C76.9247 90.7358 76.77 90.7012 76.5831 90.6551C76.1706 90.5457 75.9708 90.5802 75.7258 90.805C75.4616 91.0354 75.4616 91.3811 75.7258 91.6173C75.8805 91.7556 75.9708 91.7844 76.2157 91.7844C76.525 91.7844 76.9118 91.6692 77.0987 91.5136C77.176 91.4503 77.234 91.4387 77.292 91.4791C77.3887 91.5482 77.8721 91.6461 78.3426 91.698C78.768 91.7441 79.5092 91.6058 79.9281 91.3984C80.8627 90.9432 81.7135 89.7736 81.9648 88.5925C82.0937 87.9875 82.0486 87.1579 81.8617 86.6854C81.5846 85.994 81.0174 85.4524 80.3213 85.2162C79.9346 85.0837 79.2385 85.0376 78.6713 85.1067ZM80.3793 85.8557C80.708 85.9998 81.1141 86.4377 81.2881 86.8237C81.475 87.25 81.4943 88.2353 81.3203 88.7596C80.9723 89.7794 80.3084 90.5975 79.5479 90.9317C79.174 91.0988 79.058 91.1218 78.6004 91.1218C78.3168 91.1218 77.9494 91.0873 77.7883 91.0469L77.4854 90.9663L77.6336 90.6436C77.7174 90.4593 78.0203 89.693 78.3104 88.9324C79.0322 87.0311 79.419 86.2302 79.6961 86.0228C79.7477 85.9825 79.7928 85.8903 79.7928 85.8154C79.7928 85.6944 79.8121 85.6771 79.9733 85.7117C80.0699 85.7347 80.2504 85.7981 80.3793 85.8557ZM76.3446 91.2083C76.3639 91.2371 76.3252 91.2659 76.2543 91.2659C76.177 91.2659 76.119 91.2371 76.119 91.2083C76.119 91.1737 76.1577 91.1506 76.2092 91.1506C76.2608 91.1506 76.3252 91.1737 76.3446 91.2083Z" fill="#013600"/>
<path d="M73.3152 85.3025C72.9414 85.6424 72.4709 86.5701 71.8005 88.2755C71.5105 89.0246 71.4654 89.0995 70.8466 89.8312C70.4922 90.2576 70.0539 90.73 69.8734 90.8856C69.5898 91.1333 69.5447 91.1564 69.506 91.0642C69.4287 90.8914 69.5963 90.3094 69.8605 89.837C69.9894 89.5892 70.1763 89.2147 70.273 88.9958C70.4406 88.6328 70.447 88.5924 70.3504 88.4657C70.2279 88.2986 70.0217 88.2467 69.6156 88.2813C68.9131 88.3447 68.1139 88.8632 67.5144 89.6526C67.218 90.0444 66.9086 90.344 66.9795 90.1711C66.9988 90.125 67.1535 89.7736 67.3146 89.3933C67.4822 89.0188 67.6111 88.6385 67.5982 88.5636C67.5725 88.3504 67.3275 88.2583 66.8699 88.2871C66.0578 88.3389 65.3295 88.8517 64.5238 89.9407C64.1371 90.4592 63.5828 91.0354 63.4733 91.0354C63.383 91.0354 63.4153 90.8914 63.5893 90.4477C63.686 90.2172 63.8278 89.8485 63.9115 89.6295C64.2209 88.8402 64.0598 88.385 63.4862 88.385C63.1639 88.385 62.9125 88.4945 62.5516 88.7941L62.2744 89.0246L62.2293 88.8575C62.21 88.7653 62.1198 88.627 62.036 88.5579C61.9071 88.4484 61.8297 88.4311 61.6106 88.4599C61.2561 88.5002 60.9016 88.8114 60.0508 89.8254C59.2838 90.7416 58.8069 91.1967 58.7038 91.1045C58.5813 90.9951 58.7553 90.4419 59.1678 89.618C59.6126 88.7307 59.6641 88.5694 59.5417 88.4196C59.4192 88.2813 58.9487 88.2352 58.5298 88.3274C57.3825 88.5694 56.1386 90.0617 56.2932 90.9951C56.3899 91.5597 56.9636 91.8248 57.5307 91.5655C57.6725 91.5021 57.8272 91.4042 57.8723 91.3581C57.969 91.2543 58.1366 91.2371 58.1366 91.3235C58.1366 91.3581 58.2139 91.4502 58.3042 91.5251C58.4395 91.6346 58.5491 91.6692 58.7747 91.6692C59.0518 91.6692 59.0905 91.6519 59.5223 91.2486C59.7737 91.0239 60.2377 90.5226 60.5536 90.1423C61.2368 89.3299 61.5461 89.0073 61.617 89.0476C61.7137 89.0995 61.5268 89.6583 61.095 90.586C60.7469 91.335 60.7147 91.5194 60.9145 91.6116C61.1336 91.721 61.327 91.5482 61.6493 90.9663C62.2487 89.8831 63.0608 88.9612 63.4024 88.9612C63.5313 88.9612 63.4797 89.1456 63.1188 90.0156C62.9576 90.4016 62.8159 90.851 62.7965 91.0181C62.7643 91.2832 62.7772 91.3292 62.9254 91.4618C63.1703 91.6807 63.5119 91.6634 63.8793 91.4272C64.034 91.3292 64.1758 91.2255 64.1822 91.1967C64.2274 91.0988 64.3756 91.1564 64.4143 91.2947C64.4594 91.4502 64.7945 91.6692 64.9943 91.6692C65.0846 91.6692 65.0137 91.7671 64.7236 92.0437C64.1758 92.568 63.86 93.1615 63.8213 93.7434C63.7826 94.383 63.9696 94.6653 64.4465 94.6653C64.9363 94.6653 65.2779 94.1525 66.1287 92.1417C66.3801 91.554 66.4381 91.4733 66.7346 91.2428L67.0697 90.9893L67.1793 91.2313C67.3082 91.5021 67.566 91.6692 67.8625 91.6692C68.1139 91.6692 68.4941 91.5309 68.6875 91.3696L68.8293 91.2486L69.0484 91.4618C69.4738 91.8651 69.9765 91.7038 70.6597 90.949C70.8273 90.7588 70.9884 90.5975 71.0142 90.586C71.0464 90.5802 71.0529 90.6609 71.04 90.7704C71.0013 91.0527 71.2334 91.4618 71.4783 91.554C71.7941 91.6692 72.039 91.577 72.5031 91.1564C73.1025 90.6206 73.5408 90.0962 73.5408 89.9176C73.5408 89.8139 73.4892 89.7448 73.3796 89.6987C73.1863 89.6238 73.0767 89.6929 72.6964 90.1539C72.4193 90.488 71.8263 91.0354 71.7425 91.0354C71.6523 91.0354 71.6201 90.7646 71.6781 90.4708C71.8263 89.7217 72.0132 89.353 72.7158 88.4081C74.0242 86.645 74.3078 86.1552 74.3142 85.6655C74.3142 85.2622 74.166 85.1008 73.7857 85.1008C73.5988 85.1008 73.4956 85.1412 73.3152 85.3025ZM73.4763 86.2935C73.1863 86.7717 73.0896 86.8985 73.0896 86.7833C73.0896 86.7026 73.515 85.919 73.6246 85.798C73.805 85.6079 73.7148 85.8787 73.4763 86.2935ZM58.7811 88.892C58.7811 88.9612 58.2268 90.0847 58.0979 90.2633C57.6016 90.9778 56.9764 91.3292 56.8927 90.9432C56.7831 90.4189 57.5952 89.3299 58.3428 88.9958C58.6973 88.8402 58.7811 88.8171 58.7811 88.892ZM66.9021 88.8748C66.9021 88.9842 66.2061 90.1596 65.9611 90.465C65.0395 91.6058 64.4594 91.0527 65.3359 89.8715C65.6582 89.4336 66.0385 89.111 66.4188 88.9612C66.6637 88.8575 66.9021 88.8171 66.9021 88.8748ZM69.5898 88.9151C69.5705 88.9554 69.4674 89.1744 69.3642 89.3933C68.9646 90.246 68.5844 90.7761 68.2299 90.9778C67.7658 91.2313 67.5853 91.0527 67.7658 90.5053C67.8883 90.1135 68.1461 89.7621 68.5715 89.3818C68.9904 89.013 69.6994 88.6846 69.5898 88.9151ZM65.1297 92.9483C64.8268 93.6109 64.5303 94.0891 64.4272 94.0891C64.3047 94.0891 64.4336 93.4553 64.6334 93.0981C64.8526 92.7121 65.3682 92.1301 65.4068 92.2338C65.4197 92.2684 65.2908 92.5853 65.1297 92.9483Z" fill="#013600"/>
<path d="M17.0737 86.4028C16.384 86.8349 15.4688 87.4111 15.0305 87.6819C14.5406 87.9872 14.2506 88.2062 14.2699 88.2523C14.315 88.3502 15.3334 89.6408 15.3914 89.6754C15.4172 89.6869 16.0488 89.491 16.7901 89.2375C18.4981 88.6613 18.4143 88.6786 18.2983 88.8284C18.2467 88.8918 17.802 89.3642 17.3057 89.877C16.8094 90.3955 16.4033 90.8622 16.4098 90.9141C16.4098 91.0293 17.3959 92.3026 17.5119 92.343C17.6344 92.389 21.6692 89.8252 21.6305 89.7272C21.5725 89.5889 21.0053 88.9033 20.9473 88.9033C20.9215 88.9033 20.219 89.3297 19.394 89.8482C18.5625 90.3667 17.8729 90.7816 17.86 90.77C17.8471 90.7643 18.3692 90.1997 19.0202 89.5256C19.6647 88.8515 20.2383 88.2523 20.2899 88.2004C20.3672 88.114 20.3479 88.0621 20.0643 87.6991C19.8967 87.4744 19.7292 87.2958 19.6905 87.2901C19.6389 87.2901 16.6805 88.2811 16.152 88.477C15.7781 88.6095 16.6418 88.0448 18.6399 86.8292C18.8784 86.6851 19.0717 86.5353 19.0782 86.495C19.0782 86.4086 18.4465 85.6192 18.3756 85.6192C18.3434 85.6192 17.7569 85.9707 17.0737 86.4028Z" fill="#013600"/>
<path d="M39.0265 86.5757C38.8332 86.76 38.8203 87.0019 38.9814 87.1344C39.2392 87.3475 39.6388 87.1574 39.6388 86.8291C39.6388 86.6448 39.4454 86.4259 39.2843 86.4259C39.2263 86.4259 39.1103 86.495 39.0265 86.5757Z" fill="#013600"/>
<path d="M111.51 88.2927C111.259 88.5866 111.053 88.8516 111.053 88.8689C111.053 88.8919 111.156 89.0302 111.278 89.1742C111.401 89.3183 111.504 89.4681 111.504 89.4969C111.504 89.5314 111.394 89.6755 111.259 89.8195C111.13 89.9635 110.891 90.2343 110.737 90.4129C110.582 90.5973 110.421 90.7471 110.369 90.7471C110.324 90.7471 110.137 90.6953 109.957 90.6319C109.776 90.5685 109.622 90.5166 109.609 90.5166C109.596 90.5166 108.893 91.306 108.655 91.594C108.616 91.6401 108.816 91.7208 109.357 91.8706C109.776 91.9858 110.189 92.101 110.279 92.1299C110.369 92.1529 110.743 92.2624 111.117 92.3603C111.491 92.464 112.058 92.6196 112.374 92.706C112.696 92.7982 113.147 92.9249 113.386 92.9825L113.818 93.0978L114.34 92.4986L114.862 91.8994L113.882 90.4706C113.347 89.687 112.799 88.8919 112.664 88.7018C112.535 88.5117 112.329 88.2178 112.219 88.0507C112.103 87.8894 112 87.7512 111.987 87.7512C111.981 87.7512 111.768 87.9931 111.51 88.2927ZM112.754 91.0525C113.031 91.3982 113.244 91.6862 113.225 91.7035C113.192 91.7323 111.633 91.2253 111.555 91.1562C111.529 91.1389 111.658 90.943 111.839 90.7298C112.019 90.5166 112.187 90.3611 112.213 90.3841C112.232 90.4072 112.483 90.7125 112.754 91.0525Z" fill="#013600"/>
<path d="M46.1161 88.35C45.5232 88.5171 45.0269 88.8686 44.5564 89.462C44.189 89.9229 43.7765 90.2802 43.6089 90.2859C43.5058 90.2859 43.4929 90.2571 43.5315 90.0555C43.5509 89.9287 43.6411 89.6867 43.7249 89.5254C44.1116 88.7649 44.1567 88.5862 44.0085 88.4537C43.9054 88.3615 43.6669 88.3673 43.5831 88.4537C43.5509 88.4941 43.4155 88.7591 43.2866 89.0414C42.9644 89.7328 42.771 90.0785 42.4616 90.4933C42.2167 90.8218 41.8815 91.0926 41.714 91.0926C41.4948 91.0926 41.7398 90.1707 42.2232 89.1682C42.3585 88.8858 42.4745 88.6208 42.4745 88.5805C42.4745 88.4768 42.2296 88.3327 42.1007 88.3673C42.0427 88.3788 41.7784 88.7245 41.5206 89.1336C40.8439 90.2053 40.0769 91.0926 39.8255 91.0926C39.6901 91.0926 39.8126 90.7008 40.3218 89.4851C40.6569 88.6957 40.6698 88.6496 40.5732 88.5171C40.4056 88.2924 40.2187 88.3673 39.9351 88.7591C39.645 89.1509 38.5171 90.4991 38.2206 90.7987C38.1175 90.9082 38.0079 90.9773 37.9821 90.9543C37.9177 90.8967 38.2722 89.9806 38.6396 89.2488C38.9554 88.6208 38.9683 88.4652 38.6911 88.4076C38.4978 88.3615 38.4591 88.3903 37.8017 89.1624C36.3708 90.839 36.0292 91.2596 36.0292 91.3403C36.0292 91.4613 36.2032 91.6111 36.3515 91.6111C36.4933 91.6111 36.4933 91.6111 37.0089 90.9889C37.2216 90.7296 37.4085 90.5222 37.4149 90.5279C37.4278 90.5394 37.4021 90.6892 37.3698 90.8621C37.2538 91.4152 37.5181 91.7494 37.9886 91.6457C38.1884 91.5996 38.8136 91.0926 38.994 90.8275C39.0714 90.7181 39.1552 90.6316 39.181 90.6316C39.2067 90.6316 39.2132 90.7814 39.2003 90.96C39.181 91.2366 39.2003 91.323 39.3099 91.4498C39.6128 91.7897 40.122 91.6918 40.6698 91.1847C40.8245 91.0407 40.9728 90.937 41.005 90.9543C41.0372 90.9716 41.0437 91.0061 41.0243 91.0349C40.9534 91.1387 41.179 91.4901 41.3724 91.5765C41.6302 91.6975 41.7398 91.6918 42.1329 91.5304C42.3778 91.4267 42.5519 91.2942 42.771 91.0407C42.9386 90.8448 43.0804 90.6892 43.0868 90.6892C43.0933 90.6892 43.1899 90.7296 43.306 90.7814C43.4413 90.839 43.5896 90.8621 43.7249 90.839C43.9376 90.8045 43.944 90.8045 43.9827 91.0407C44.0472 91.3864 44.3759 91.6687 44.711 91.6687C44.9817 91.6687 45.4265 91.5074 45.5618 91.3634C45.6585 91.2539 45.8261 91.2308 45.8261 91.323C45.8261 91.3576 45.897 91.4498 45.9872 91.5247C46.1677 91.6918 46.5028 91.7148 46.78 91.5881C47.1538 91.4095 48.2753 90.1995 48.2753 89.969C48.2753 89.8135 48.1593 89.7098 47.9853 89.7098C47.895 89.7098 47.6888 89.8941 47.3149 90.3147C46.7155 90.9889 46.4319 91.2193 46.3675 91.0695C46.303 90.9139 46.4835 90.332 46.7735 89.7731C47.2054 88.9435 47.3214 88.6611 47.2827 88.5229C47.2118 88.2866 46.6382 88.2002 46.1161 88.35ZM46.4384 88.955C46.2966 89.3698 45.8519 90.1765 45.6005 90.4933C45.2847 90.8851 44.9946 91.0926 44.7497 91.0926C44.6144 91.0926 44.6015 91.0638 44.6015 90.7987C44.6015 90.6086 44.6595 90.4012 44.769 90.1937C44.9946 89.7616 45.6456 89.1509 46.0517 88.9838C46.4448 88.8167 46.4899 88.8167 46.4384 88.955Z" fill="#013600"/>
<path d="M92.7413 88.3737C92.5415 88.4658 92.49 88.4716 92.3868 88.4025C92.3224 88.3621 92.2451 88.3276 92.2128 88.3276C92.0968 88.3276 91.4781 88.9095 91.2912 89.2033C91.1816 89.3704 90.9625 89.7046 90.8078 89.9408C90.6531 90.177 90.3695 90.5227 90.1761 90.7013C89.6283 91.2256 89.5961 91.1565 89.9828 90.2462C90.3308 89.405 90.4339 89.0132 90.3566 88.7597C90.1955 88.2469 89.4994 88.2584 88.8806 88.7827C88.726 88.9095 88.597 89.019 88.5906 89.019C88.5777 89.019 88.5584 88.9441 88.539 88.8461C88.4553 88.4831 88.0621 88.3391 87.6689 88.5235C87.424 88.6387 87.0115 89.0478 86.3541 89.8256C85.7998 90.4882 85.1746 91.0874 85.1102 91.024C85.0779 90.9952 85.6516 89.4684 85.8772 88.9959C86.0254 88.679 86.0061 88.5177 85.8192 88.4082C85.6645 88.316 85.6451 88.3218 85.5291 88.414C85.4647 88.4658 85.2842 88.7194 85.1424 88.9729C84.7492 89.647 84.0338 90.5746 83.6987 90.8511C83.4215 91.0758 83.2733 91.1507 83.2733 91.047C83.2733 90.926 83.4924 90.3384 83.8147 89.5778C84.0145 89.1054 84.1756 88.6733 84.1756 88.6214C84.1756 88.4831 84.0467 88.3852 83.8727 88.3852C83.7567 88.3852 83.6536 88.4831 83.428 88.8C83.1508 89.186 82.4483 90.056 81.7458 90.8742C81.4557 91.2083 81.3977 91.433 81.5653 91.554C81.7458 91.6866 81.9456 91.5656 82.3258 91.0931C82.5385 90.8396 82.7125 90.6322 82.7254 90.6322C82.7383 90.6322 82.7319 90.7878 82.7125 90.9721C82.6803 91.3005 82.6868 91.3293 82.8737 91.4907C83.2024 91.7903 83.6342 91.6923 84.195 91.1968L84.4979 90.926V91.1565C84.4979 91.3236 84.543 91.4273 84.659 91.5252C85.0973 91.9228 85.6967 91.531 86.9922 89.9984C87.6432 89.2206 87.8623 89.0074 87.9267 89.065C88.0105 89.1399 87.8107 89.7276 87.4176 90.5573C87.0566 91.3293 87.018 91.554 87.2371 91.6347C87.4498 91.7038 87.6303 91.5425 87.959 90.9606C88.6615 89.7276 89.5381 88.777 89.7701 88.9901C89.7959 89.0132 89.6863 89.3416 89.5381 89.7276C89.0289 91.0009 88.9902 91.2487 89.2674 91.4964C89.5381 91.7384 90.2341 91.5483 90.6015 91.1277C90.7562 90.9606 90.8142 90.9376 90.8142 91.0643C90.8142 91.1104 90.9044 91.2372 91.014 91.3466C91.3749 91.7154 91.9486 91.6808 92.4577 91.2602C92.7027 91.0585 92.7607 91.0355 93.0829 91.0355C93.663 91.0355 93.9079 90.8569 94.836 89.7391C94.9907 89.549 95.2227 89.3013 95.3517 89.1976L95.5837 88.9959V89.1457C95.5837 89.3301 95.2872 90.1021 94.9327 90.8223C94.6749 91.3639 94.662 91.5079 94.8812 91.6117C95.0874 91.7154 95.2292 91.5886 95.5515 91.024C96.2218 89.8601 96.9952 88.9613 97.3368 88.9613C97.4721 88.9613 97.4592 89.065 97.2401 89.5605C96.9501 90.2462 96.7438 90.8799 96.7438 91.0931C96.7438 91.675 97.4528 91.7903 98.0135 91.3121C98.1296 91.2083 98.2327 91.1392 98.2456 91.1565C98.2585 91.168 98.3294 91.2602 98.4131 91.3639C98.4905 91.4676 98.6516 91.5771 98.7676 91.6174L98.9868 91.6866L98.6387 92.0553C98.2133 92.5047 98.02 92.8043 97.846 93.2652C97.5559 94.0488 97.7944 94.6653 98.3938 94.6653C98.8579 94.6653 99.2446 94.0949 99.9987 92.3203C100.34 91.5195 100.392 91.433 100.624 91.289C100.953 91.0816 101.642 90.419 101.803 90.1597C101.926 89.9523 101.926 89.9408 101.803 89.8313C101.623 89.647 101.488 89.6815 101.191 89.9811C100.875 90.3095 100.882 90.275 101.294 89.3301C101.449 88.9786 101.578 88.6329 101.578 88.5696C101.578 88.2296 100.753 88.1662 100.095 88.4543C99.5539 88.6905 99.1221 89.0766 98.5807 89.791C98.0651 90.4766 97.5301 91.0355 97.4012 91.0355C97.2981 91.0355 97.3432 90.8857 97.6848 90.0445C98.0973 89.0593 98.1231 88.7482 97.8266 88.5004C97.5301 88.2584 96.9565 88.3852 96.5118 88.7885C96.2218 89.0535 96.1638 89.0708 96.1638 88.8807C96.1638 88.6445 95.9317 88.4428 95.661 88.4428C95.255 88.4428 94.9521 88.679 94.1657 89.6239C93.7597 90.1137 93.3472 90.4939 93.2827 90.4363C93.2698 90.4248 93.3343 90.2519 93.431 90.0503C93.6501 89.5836 93.7146 88.898 93.5663 88.6387C93.373 88.2988 93.0958 88.2123 92.7413 88.3737ZM100.643 89.284C100.173 90.2058 99.6635 90.8569 99.2897 91.0182C98.9803 91.1507 98.8708 91.0931 98.8708 90.7935C98.8708 90.2404 99.6248 89.2955 100.302 88.9959C100.862 88.7424 100.901 88.777 100.643 89.284ZM93.0572 89.2379C93.012 89.6354 92.722 90.2058 92.6511 90.0388C92.5931 89.912 92.722 89.284 92.8509 89.065C93.0056 88.7943 93.0894 88.8692 93.0572 89.2379ZM92.0904 89.5548C92.0259 89.935 92.0324 90.0445 92.129 90.3499C92.2515 90.7417 92.2257 90.805 91.9035 90.9548C91.607 91.0874 91.4781 91.0585 91.3943 90.8338C91.2718 90.4997 91.5425 89.7564 91.9615 89.2609C92.0517 89.1572 92.129 89.0823 92.1484 89.0939C92.1613 89.1054 92.1355 89.3128 92.0904 89.5548ZM99.1286 92.8216C98.729 93.7146 98.4969 94.0891 98.3422 94.0891C98.2327 94.0891 98.368 93.4842 98.5485 93.1385C98.7225 92.8158 99.3026 92.1532 99.367 92.2051C99.3799 92.2224 99.2704 92.4989 99.1286 92.8216Z" fill="#013600"/>
<path d="M21.9592 90.7648C21.8303 90.9895 21.5209 91.5138 21.2825 91.9286C21.0375 92.3377 20.6315 93.0406 20.3672 93.4842C20.1094 93.9279 19.8387 94.3773 19.7743 94.4752L19.6518 94.6653L20.2126 95.2415C20.5219 95.5584 20.7862 95.8176 20.7926 95.8176C20.8055 95.8176 21.5789 95.5584 22.5071 95.2357C23.4416 94.9188 24.5502 94.5443 24.9756 94.4003C25.401 94.2563 25.7748 94.118 25.807 94.0892C25.8715 94.0316 24.9047 93.0521 24.7887 93.0521C24.75 93.0521 24.576 93.1155 24.402 93.1962C24.2279 93.2711 24.0539 93.3171 24.0152 93.2999C23.9186 93.2595 22.9518 92.2743 22.9067 92.1649C22.8873 92.113 22.9582 91.9459 23.0678 91.7846C23.1774 91.6233 23.2676 91.4792 23.2676 91.462C23.2676 91.4389 23.0614 91.2142 22.8035 90.9549C22.5522 90.7014 22.3073 90.4537 22.2686 90.4191C22.217 90.3615 22.1397 90.4479 21.9592 90.7648ZM22.9453 93.7493C22.9453 93.7954 21.3405 94.4579 21.3018 94.4234C21.2696 94.3945 21.4823 94.0719 22.0881 93.2077L22.2428 92.9887L22.5909 93.3517C22.7842 93.5534 22.9453 93.732 22.9453 93.7493Z" fill="#013600"/>
<path d="M107.443 92.7405L106.895 93.236L107.656 93.8813L108.417 94.5266L108.249 94.6648C108.023 94.855 107.804 94.8434 106.67 94.5611L105.735 94.3249L105.142 94.8838C104.775 95.2295 104.582 95.4542 104.627 95.4772C104.672 95.5003 105.052 95.6097 105.484 95.725C106.283 95.9381 106.876 95.99 107.128 95.8748C107.276 95.7999 107.276 95.8056 107.147 96.0822C107.076 96.232 107.05 96.4221 107.07 96.6929C107.089 97.0213 107.121 97.1135 107.289 97.2978C107.727 97.7818 108.217 97.9489 108.784 97.8049C109.132 97.7184 109.216 97.6551 110.434 96.5488L111.71 95.3908L111.401 95.1315C110.737 94.5899 108.12 92.3314 108.101 92.2853C108.056 92.1989 107.978 92.2565 107.443 92.7405ZM109.467 95.4196C109.667 95.5867 109.828 95.748 109.828 95.7883C109.828 95.869 109.216 96.4048 108.997 96.5028C108.881 96.5604 108.81 96.5604 108.662 96.5028C108.32 96.3818 108.243 96.0534 108.488 95.7422C108.604 95.5867 109.055 95.1258 109.093 95.1258C109.1 95.1258 109.267 95.2583 109.467 95.4196Z" fill="#013600"/>
<path d="M27.3282 96.4163C26.9931 96.7505 26.703 97.0213 26.6837 97.0213C26.6643 97.0213 26.4323 96.8427 26.168 96.6237C25.1819 95.8055 24.402 95.7076 23.6608 96.3126C23.2612 96.6295 23.0678 96.9637 23.0549 97.3267C23.0421 97.851 23.2096 98.0642 24.4729 99.1359L25.6073 100.092L25.878 99.8389C26.0263 99.7006 26.819 98.9515 27.6376 98.1737L29.12 96.7562L28.5722 96.301C28.2692 96.0533 27.9985 95.8401 27.9792 95.8343C27.9599 95.8228 27.6634 96.0878 27.3282 96.4163ZM25.3624 97.2518C25.472 97.3151 25.6524 97.4419 25.7684 97.5283L25.9811 97.6954L25.5751 98.0815L25.169 98.4733L24.8596 98.2025C24.6921 98.0527 24.5374 97.8683 24.518 97.7934C24.46 97.586 24.6147 97.3094 24.8403 97.2229C25.1046 97.1192 25.1368 97.125 25.3624 97.2518Z" fill="#013600"/>
<path d="M76.667 105.704C75.5712 105.906 74.6431 106.084 74.6044 106.096C74.5657 106.107 74.5528 106.413 74.5786 106.943C74.6044 107.398 74.6237 108.09 74.6302 108.476C74.6302 108.862 74.6495 109.207 74.6688 109.253C74.6946 109.311 74.8235 109.328 75.1716 109.317C76.1513 109.276 76.2802 109.253 76.4027 109.063C76.6412 108.706 77.3566 108.55 77.7692 108.775C78.1108 108.96 78.3686 109.634 78.2719 110.089C78.1817 110.504 77.6338 110.821 77.1762 110.717C77.0021 110.677 76.7379 110.469 76.5638 110.227L76.4672 110.089L75.6163 110.331C75.1458 110.463 74.7655 110.59 74.7655 110.613C74.7655 110.728 75.1523 111.189 75.365 111.333C75.8677 111.679 76.1513 111.748 76.957 111.743C78.504 111.737 79.5675 111.195 79.9284 110.239C80.1218 109.714 80.0831 109.006 79.8317 108.568C79.2645 107.554 77.9625 107.248 76.6992 107.824L76.2673 108.02L76.2287 107.605C76.2093 107.381 76.2158 107.179 76.2416 107.156C76.2673 107.127 76.7894 107.018 77.4082 106.908C79.0003 106.626 79.0841 106.603 79.0841 106.453C79.0712 106.142 78.8391 105.353 78.7553 105.341C78.7038 105.335 77.7692 105.502 76.667 105.704Z" fill="#013600"/>
<path d="M57.086 106.102C56.6993 106.534 55.494 107.053 54.8817 107.053C54.6304 107.053 54.6626 106.995 54.4692 107.842L54.3532 108.378H54.5079C54.785 108.378 55.5907 108.211 56.0096 108.061C56.2352 107.98 56.4221 107.923 56.4286 107.934C56.435 107.94 56.2481 108.81 56.0096 109.864C55.7712 110.918 55.5971 111.788 55.6165 111.8C55.6809 111.835 57.376 112.134 57.3889 112.111C57.434 112.059 58.7166 106.229 58.6908 106.2C58.6715 106.188 58.3428 106.113 57.9561 106.044L57.2471 105.918L57.086 106.102Z" fill="#013600"/>
<path d="M69.9315 106.568C69.5899 106.609 68.8938 106.822 68.6425 106.966C67.8239 107.433 67.5597 108.095 67.6306 109.473C67.6563 109.962 67.7208 110.377 67.8304 110.763C68.114 111.754 68.4749 112.215 69.2161 112.544C69.5899 112.705 69.6737 112.722 70.2473 112.717C71.3301 112.711 72.1357 112.44 72.5869 111.933C72.9736 111.489 73.0574 111.161 73.0574 110.049C73.0509 109.006 72.9349 108.407 72.5933 107.732C72.3806 107.306 71.8134 106.816 71.3687 106.684C71.0465 106.586 70.3182 106.528 69.9315 106.568ZM70.6275 107.825C70.9756 108.101 71.1689 108.712 71.2849 109.893C71.3752 110.85 71.2656 111.288 70.866 111.524C70.6662 111.639 70.2408 111.604 70.0604 111.46C69.6994 111.172 69.4223 110.072 69.4159 108.948C69.4159 108.061 69.5319 107.807 69.9766 107.686C70.2151 107.629 70.4471 107.675 70.6275 107.825Z" fill="#013600"/>
<path d="M62.3841 106.782C61.7009 106.955 61.1401 107.399 60.9145 107.94C60.5471 108.827 60.7534 109.692 61.4624 110.274C61.9007 110.631 62.3518 110.763 62.9964 110.729C63.4604 110.7 63.7891 110.59 64.047 110.377C64.1307 110.314 64.2081 110.274 64.2339 110.291C64.2983 110.348 64.0018 111.328 63.86 111.535C63.4991 112.06 62.6934 111.956 62.5516 111.368L62.5065 111.195L61.8878 111.23C60.9725 111.282 60.7147 111.316 60.7147 111.391C60.7147 111.512 61.0112 112.031 61.1917 112.221C61.6106 112.665 62.4227 112.901 63.4218 112.86C64.2081 112.826 64.6528 112.676 65.1298 112.284C65.8452 111.702 66.161 110.763 66.1159 109.363C66.0966 108.747 66.0579 108.51 65.9548 108.245C65.6647 107.548 65.1362 107.082 64.4014 106.88C63.8536 106.724 62.803 106.678 62.3841 106.782ZM63.6989 107.796C64.1372 107.946 64.3886 108.487 64.2661 109.012C64.1372 109.548 63.8665 109.761 63.3186 109.761C63.0673 109.761 62.9899 109.732 62.8095 109.571C62.4421 109.242 62.3712 108.655 62.6354 108.153C62.8159 107.813 63.28 107.658 63.6989 107.796Z" fill="#013600"/>
</svg>
