<svg width="242" height="85" viewBox="0 0 242 85" fill="none" xmlns="http://www.w3.org/2000/svg">
<g clip-path="url(#clip0)">
<path d="M45.4736 0.0618222C37.575 0.464413 30.5509 2.30718 23.9009 5.7188C21.7824 6.80206 19.3273 8.31697 17.5876 9.60774C17.3725 9.76542 17.12 9.95221 17.0265 10.0228C15.9368 10.8155 13.6781 12.7413 12.6493 13.7457C11.1528 15.2108 10.2783 16.1612 9.04838 17.6595C8.99694 17.7217 8.88934 17.8504 8.80989 17.9459C8.73036 18.0413 8.44507 18.4065 8.17386 18.7594C3.7873 24.5533 1.17315 30.8785 0.307996 37.8097C-0.0474178 40.6443 -0.0848299 43.201 0.186407 46.1104C0.724203 51.838 2.59948 57.4867 5.63452 62.5087C6.08347 63.2557 6.12088 63.3097 6.85041 64.3929C7.48174 65.3226 8.66492 66.9163 9.01094 67.2982C9.0343 67.3189 9.16527 67.4808 9.30559 67.6509C10.7646 69.419 12.3359 71.0335 14.1925 72.6603C15.067 73.4281 16.4138 74.5324 17.0265 74.9761C17.12 75.0467 17.3725 75.234 17.5876 75.3918C18.3966 75.9933 19.7108 76.8728 20.7817 77.529C27.2118 81.4678 34.6194 83.9285 42.3917 84.705C46.2171 85.0868 49.5655 85.0868 53.3815 84.705C61.1585 83.9249 68.5521 81.4714 74.9916 77.5247C76.8672 76.3794 78.4286 75.2708 80.2853 73.7725C81.492 72.8014 83.5591 70.8841 84.4798 69.888C84.5597 69.805 84.7701 69.5809 84.9478 69.39C85.4245 68.8878 86.0471 68.1656 86.7247 67.3397C86.7763 67.2774 86.8836 67.1488 86.9635 67.0533C88.2071 65.5591 89.886 63.044 90.9802 61.0394C93.384 56.6233 94.8525 52.1036 95.4656 47.1896C95.8204 44.3631 95.8582 41.7401 95.5868 38.8887C94.9556 32.2772 92.6076 25.9105 88.7454 20.3365C88.3333 19.743 87.3516 18.4232 87.0338 18.033C86.9025 17.8712 86.7668 17.7051 86.7298 17.6595C84.4893 14.8953 81.4448 12.0025 78.4939 9.83602C78.2929 9.68662 78.055 9.50812 77.9614 9.4417C77.4419 9.05157 75.9174 8.03884 74.9916 7.47028C70.1702 4.51935 64.7454 2.37359 59.0869 1.17828C54.6348 0.24444 49.7853 -0.153996 45.4736 0.0618222ZM51.3473 1.4688C55.6403 1.79669 59.0869 2.4234 62.8514 3.5606C69.8942 5.69391 76.3992 9.4085 81.534 14.2354C83.6897 16.2608 85.6683 18.5311 87.2537 20.7972C89.582 24.1258 91.4997 27.9981 92.5706 31.5384C92.9443 32.771 92.9958 32.9578 93.2955 34.2196C93.6553 35.7137 93.9499 37.6062 94.1233 39.4698C94.2402 40.744 94.2402 44.2552 94.1233 45.5294C93.6089 51.1241 92.0845 56.0174 89.339 60.8858C85.8221 67.1197 80.6358 72.3988 74.0796 76.4247C71.8631 77.7862 69.0852 79.1642 66.6393 80.1186C66.2419 80.2721 65.8537 80.4262 65.7743 80.455C65.3206 80.6373 63.7634 81.1602 62.945 81.4095C59.7135 82.3935 56.4446 83.049 53.1009 83.3767C51.062 83.5799 50.4447 83.6051 47.91 83.6094C45.4455 83.6094 45.1275 83.5964 43.14 83.4185C38.8844 83.0403 34.7364 82.1356 30.6304 80.6834C30.3591 80.5876 30.0785 80.4839 29.9991 80.455C29.9242 80.4262 29.5314 80.2721 29.1339 80.1186C23.6671 77.9857 18.4014 74.6815 14.2393 70.7637C8.46851 65.335 4.48878 58.7318 2.66962 51.5682C1.62209 47.4261 1.29473 43.1761 1.70627 38.9095C2.09441 34.8795 3.19807 30.8204 4.92369 27.0601C5.93849 24.848 7.35549 22.4158 8.79117 20.4112C12.7241 14.941 18.2283 10.2427 24.5042 6.99298C26.0614 6.1878 27.8853 5.35773 29.2976 4.81402C29.6062 4.69781 29.9242 4.5733 29.9991 4.54425C30.0785 4.5152 30.3591 4.41143 30.6304 4.31598C35.4004 2.63091 40.1471 1.69293 45.3613 1.41486C46.4323 1.35675 50.3325 1.38995 51.3473 1.4688Z" fill="#013600"/>
<path d="M45.6659 3.16665C45.1281 3.18325 44.6792 3.20815 44.6698 3.21646C44.6604 3.22475 44.6792 3.96353 44.7119 4.85585L44.7727 6.47866L45.3339 6.46621L45.8998 6.45376L45.8811 5.77725L45.8623 5.10488H46.0027C46.2272 5.10488 46.3581 5.23354 46.7509 5.8312L47.1158 6.3915H47.7331C48.0698 6.3915 48.3597 6.3749 48.3738 6.3583C48.4018 6.31264 47.8874 5.50332 47.6723 5.26259C47.5647 5.13808 47.4384 5.04677 47.3355 5.01772L47.1672 4.96792L47.3963 4.87661C48.0604 4.61929 48.2429 3.86391 47.7564 3.40737C47.4759 3.1459 47.1906 3.11269 45.6659 3.16665ZM46.7463 3.88466C46.8773 3.95522 46.924 4.12539 46.8492 4.2665C46.7697 4.41176 46.5499 4.47817 46.1476 4.47817L45.8296 4.48232V4.15444V3.82241L46.0775 3.80581C46.3908 3.7892 46.6247 3.81411 46.7463 3.88466Z" fill="#013600"/>
<path d="M49.4866 4.77284C49.0423 5.64442 48.6822 6.36244 48.6916 6.37074C48.701 6.37904 48.9582 6.39564 49.2668 6.41224L49.8281 6.44129L49.9356 6.17982L50.0385 5.91419L50.6604 5.9474C50.9972 5.964 51.3012 5.9889 51.3292 5.9972C51.3573 6.0055 51.4087 6.13001 51.4414 6.27943L51.5022 6.54505L52.0821 6.58241C52.4048 6.60316 52.6714 6.61146 52.6807 6.60731C52.69 6.59901 52.6667 6.51185 52.6292 6.42054C52.5919 6.32508 52.489 6.03041 52.4001 5.76893C51.9979 4.54042 51.5677 3.2953 51.5397 3.2704C51.5256 3.25379 51.2357 3.22889 50.9036 3.2123L50.2957 3.18739L49.4866 4.77284ZM51.1608 5.22523C51.1608 5.27089 51.0907 5.27919 50.7774 5.25428C50.5669 5.23768 50.3846 5.21693 50.3752 5.20863C50.3611 5.19618 50.6418 4.50306 50.8195 4.10878C50.8428 4.05482 51.1561 5.07997 51.1608 5.22523Z" fill="#013600"/>
<path d="M41.5039 3.51942C41.2467 3.55262 41.0315 3.58583 41.0222 3.58998C40.9988 3.60658 40.171 6.985 40.1851 6.99745C40.1944 7.00575 40.4469 6.985 40.7462 6.9435C41.3448 6.86879 41.3027 6.90199 41.3635 6.50771C41.401 6.29189 41.3589 6.30848 42.0884 6.22548C42.3082 6.20058 42.5327 6.17152 42.5935 6.16322C42.687 6.14247 42.7198 6.17567 42.8413 6.40394L42.977 6.66542L43.5429 6.59486C43.8562 6.55336 44.118 6.51186 44.1227 6.50771C44.1367 6.49525 43.5007 5.45351 42.5561 3.93031C42.21 3.37416 42.3082 3.41151 41.5039 3.51942ZM42.0557 4.90565C42.2053 5.18788 42.3222 5.4369 42.3222 5.45765C42.3222 5.48256 42.2474 5.50746 42.1586 5.51161C42.0697 5.51991 41.9013 5.53651 41.7844 5.55726C41.6676 5.57802 41.5647 5.58216 41.5553 5.56557C41.5272 5.52406 41.7236 4.3993 41.7611 4.3993C41.7751 4.3993 41.9107 4.62758 42.0557 4.90565Z" fill="#013600"/>
<path d="M53.9012 3.55679C53.8592 3.68545 53.3027 6.68618 53.3213 6.70278C53.34 6.72354 56.1741 7.14272 56.1882 7.13028C56.2069 7.10537 56.3426 6.37075 56.3332 6.3583C56.3238 6.35415 55.931 6.29189 55.4586 6.22134C54.9863 6.15078 54.5934 6.08853 54.5841 6.08022C54.5794 6.07607 54.6682 5.55728 54.7852 4.93472C54.9021 4.30801 55.0003 3.76016 55.0096 3.7145C55.019 3.64394 54.9675 3.62319 54.5981 3.56094C54.0462 3.46963 53.934 3.46963 53.9012 3.55679Z" fill="#013600"/>
<path d="M36.9723 4.32049C36.6917 4.38274 36.4578 4.445 36.4532 4.44915C36.4485 4.45744 36.4018 4.84343 36.341 5.31243C36.2849 5.78142 36.1866 6.55339 36.1258 7.03484C36.065 7.51213 36.0183 7.91055 36.0277 7.91473C36.037 7.92302 36.21 7.88981 36.4111 7.84414C36.6169 7.79436 36.86 7.74041 36.9536 7.71549L37.1266 7.674L37.1406 7.39594L37.1547 7.11785L37.7158 6.98503C38.4267 6.81902 38.4641 6.81902 38.5296 6.96428C38.5576 7.02654 38.6324 7.1303 38.6885 7.19256L38.7914 7.30878L39.3058 7.19671C39.5911 7.13445 39.839 7.0722 39.8623 7.05144C39.8857 7.03069 39.853 6.96013 39.7875 6.88128C39.6753 6.74846 39.5256 6.5617 38.913 5.76897C37.7112 4.22088 37.6878 4.19182 37.5849 4.19598C37.5288 4.19598 37.2528 4.25408 36.9723 4.32049ZM37.6831 5.69427C37.8655 5.96404 38.0011 6.18816 37.9824 6.19646C37.9543 6.20891 37.4493 6.32512 37.2482 6.36247C37.2061 6.37078 37.2061 6.18816 37.2528 5.52825C37.2716 5.31243 37.2996 5.15471 37.3184 5.17546C37.337 5.19207 37.5007 5.42864 37.6831 5.69427Z" fill="#013600"/>
<path d="M58.7694 4.51138C58.704 4.59853 58.4608 4.90152 58.2223 5.18789C57.9885 5.47427 57.5536 6.00967 57.2543 6.3832C56.9596 6.75259 56.6978 7.06802 56.6744 7.08047C56.5481 7.14688 56.6697 7.21742 57.0953 7.31704C57.3478 7.37928 57.5863 7.43741 57.6284 7.45398C57.6751 7.47062 57.75 7.40003 57.8715 7.2257C57.9698 7.08462 58.0493 6.97256 58.0539 6.97256C58.0587 6.97256 58.3439 7.04727 58.69 7.13442L59.3213 7.29212L59.3447 7.57435L59.368 7.85658L59.9059 7.99358C60.2005 8.06411 60.453 8.11806 60.4624 8.10978C60.4717 8.10149 60.4343 7.66979 60.3781 7.15103C60.3221 6.62807 60.2473 5.88516 60.2052 5.49917C60.1677 5.10904 60.1257 4.75625 60.1163 4.7106C60.1023 4.64004 59.9947 4.60269 59.5364 4.49063C59.2324 4.42007 58.9565 4.35782 58.9331 4.35782C58.9097 4.35782 58.8349 4.42837 58.7694 4.51138ZM59.2932 6.21719L59.2979 6.55752L59.1763 6.53262C58.7975 6.44961 58.5263 6.3583 58.5356 6.3168C58.545 6.2919 58.6993 6.05533 58.8864 5.7897L59.2278 5.30411L59.2558 5.58633C59.2745 5.74405 59.2886 6.02628 59.2932 6.21719Z" fill="#013600"/>
<path d="M33.7642 5.1631C33.4369 5.24611 31.875 5.73585 31.8282 5.7732C31.8094 5.78981 31.8656 5.99733 31.9544 6.2339C32.1695 6.7942 32.9833 8.85693 32.9926 8.87357C33.016 8.89842 34.0167 8.55813 34.0308 8.52075C34.0401 8.4959 33.9513 8.23852 33.8343 7.94383C33.7175 7.65332 33.6379 7.40019 33.6613 7.38773C33.68 7.37109 33.8624 7.30885 34.0682 7.24661C34.274 7.18434 34.5312 7.08473 34.6387 7.03077C35.0642 6.8108 35.27 6.42481 35.1718 6.01808C35.0549 5.53664 34.8258 5.26686 34.4517 5.16725C34.1757 5.09254 34.0495 5.09254 33.7642 5.1631ZM33.8999 5.95582C34.1149 6.05128 34.1617 6.36256 33.9793 6.51197C33.8811 6.59083 33.3948 6.7859 33.3667 6.75685C33.3246 6.70704 33.1142 6.08033 33.1376 6.06373C33.1797 6.02638 33.5912 5.90187 33.6847 5.89772C33.7315 5.89356 33.8297 5.92262 33.8999 5.95582Z" fill="#013600"/>
<path d="M62.1646 5.82291C61.5707 7.16349 61.131 8.16374 61.103 8.23844C61.0796 8.31314 61.131 8.34217 61.5332 8.47918C61.7858 8.56216 62.0103 8.63275 62.0337 8.63275C62.0617 8.63275 62.2394 8.26747 62.4311 7.82338C62.6229 7.37929 62.7912 7.01407 62.8053 7.01407C62.8193 7.01407 62.9035 7.28803 62.9876 7.62421C63.0719 7.9645 63.1934 8.43351 63.2542 8.67425L63.3712 9.11005L63.8669 9.28848C64.1381 9.38392 64.3672 9.45862 64.3672 9.45452C64.4842 9.2843 65.7047 6.41642 65.672 6.39151C65.5831 6.32096 64.7507 6.05948 64.7227 6.08853C64.704 6.10514 64.5309 6.48282 64.3439 6.91861C64.1521 7.35855 63.9884 7.71965 63.9744 7.71965C63.9604 7.71965 63.8388 7.27967 63.7032 6.74429C63.5676 6.20474 63.4366 5.7233 63.4179 5.66935C63.3852 5.59879 63.2636 5.54069 62.9222 5.42447C62.6697 5.34146 62.4546 5.2709 62.4358 5.2709C62.4218 5.2709 62.3002 5.51993 62.1646 5.82291Z" fill="#013600"/>
<path d="M67.3135 7.38757C66.6353 7.51205 66.0648 8.03919 65.8263 8.75305C65.7187 9.07266 65.7327 9.45034 65.8543 9.74085C66.1209 10.38 67.2667 10.9652 68.2254 10.9528C68.7446 10.9445 68.7258 10.9611 69.1234 10.2928L69.4788 9.69107L69.2403 9.57481C68.8006 9.359 67.9495 8.96476 67.9261 8.96476C67.9074 8.96476 67.5754 9.52086 67.5754 9.55824C67.5754 9.56653 67.7251 9.63294 67.9028 9.71182C68.0852 9.7907 68.2301 9.8695 68.2301 9.89025C68.2301 9.91099 68.1927 9.98159 68.1506 10.048C68.0617 10.1808 67.9401 10.1974 67.5754 10.1227C67.117 10.0314 66.8271 9.75749 66.8271 9.41295C66.8271 9.01453 67.2199 8.4003 67.58 8.23844C68.0009 8.04337 68.6183 8.32142 68.665 8.72402C68.6837 8.85685 68.6931 8.86513 69.1888 9.01871C69.4694 9.10169 69.7032 9.16393 69.7173 9.15147C69.7313 9.14318 69.75 9.03946 69.764 8.92737C69.8108 8.475 69.5162 8.06412 68.9222 7.75696C68.3096 7.43735 67.7391 7.3087 67.3135 7.38757Z" fill="#013600"/>
<path d="M27.0396 7.7239C26.5112 7.97703 26.5065 7.98121 26.5346 8.10986C26.5486 8.18038 26.6327 8.75319 26.7263 9.37989C26.9274 10.7703 27.0303 11.426 27.0443 11.4427C27.0536 11.4468 27.1097 11.4302 27.1705 11.397C27.3015 11.3389 28.031 10.9902 28.0451 10.9819C28.0497 10.9777 28.0216 10.8533 27.9843 10.708C27.9468 10.5628 27.9328 10.4299 27.9515 10.4175C27.9702 10.4009 28.2415 10.2722 28.5501 10.127L29.1066 9.86547L29.3217 10.073L29.5367 10.2846L30.0418 10.044C30.3177 9.91525 30.5422 9.79077 30.5375 9.77002C30.5328 9.74928 30.2335 9.50026 29.8688 9.21803C29.504 8.93162 28.8541 8.4253 28.4192 8.08494C27.9889 7.74875 27.6195 7.4707 27.6008 7.4707C27.5821 7.4707 27.3296 7.58689 27.0396 7.7239ZM28.0357 8.92334C28.2882 9.14744 28.4893 9.3425 28.4752 9.35497C28.4285 9.39646 27.8393 9.6704 27.7972 9.6704C27.7738 9.6704 27.7037 9.43384 27.6429 9.13915C27.5821 8.84864 27.5213 8.58716 27.5073 8.55813C27.4605 8.43776 27.5961 8.5332 28.0357 8.92334Z" fill="#013600"/>
<path d="M24.0372 9.26362C23.8174 9.39645 23.6256 9.52093 23.6069 9.54174C23.5836 9.55831 23.8221 9.89449 24.1354 10.2929C24.444 10.6913 24.6779 11.0234 24.6591 11.0275C24.6404 11.0359 24.1261 10.8657 23.5228 10.6498C22.653 10.3428 22.4051 10.2722 22.3303 10.3054C22.2789 10.3261 22.0731 10.4465 21.8767 10.5751L21.5119 10.8034L21.7644 11.1189C21.9 11.2932 22.363 11.8991 22.7933 12.4636C23.3311 13.165 23.6023 13.4887 23.6444 13.4721C23.7379 13.4389 24.4019 13.0405 24.43 12.9989C24.4534 12.9657 24.2757 12.7209 23.5742 11.7953C23.462 11.6501 23.3825 11.5256 23.3919 11.5132C23.4105 11.5007 25.3793 12.1731 25.543 12.2478C25.6085 12.281 25.7207 12.2311 26.0575 12.032C26.2959 11.8908 26.5016 11.7663 26.511 11.758C26.5251 11.7497 26.3474 11.4965 26.1135 11.1936C25.3092 10.1311 24.4908 9.06855 24.4627 9.0437C24.4487 9.02706 24.257 9.12668 24.0372 9.26362Z" fill="#013600"/>
<path d="M72.3126 11.148C71.8309 11.7124 71.3586 12.2561 71.265 12.3557C71.0826 12.5507 70.9611 12.7334 70.9938 12.7542C71.0032 12.7625 71.1575 12.8662 71.3305 12.9866C71.5082 13.1069 71.6672 13.1983 71.6906 13.1899C71.7093 13.1816 71.8075 13.082 71.9104 12.9658C72.9723 11.7249 73.351 11.2974 73.3648 11.3098C73.3742 11.3181 73.1406 11.8328 72.841 12.4512C72.5371 13.0737 72.2985 13.5967 72.3079 13.6132C72.3172 13.634 72.4576 13.742 72.6211 13.8582C72.841 14.0076 72.944 14.0532 72.9955 14.0283C73.0376 14.0076 73.5426 13.6631 74.1129 13.2605C74.6882 12.8579 75.1649 12.5342 75.1744 12.5425C75.1889 12.5549 75.0721 12.696 74.4822 13.3809C74.4263 13.4473 74.197 13.7129 73.9728 13.9702C73.7436 14.2276 73.5614 14.4558 73.5658 14.4724C73.5658 14.5139 74.2021 14.9414 74.258 14.9414C74.2768 14.9414 74.3893 14.8335 74.501 14.7007C74.7071 14.4724 75.6191 13.4141 76.2272 12.7085C76.3955 12.5134 76.5029 12.3516 76.4797 12.3308C76.3578 12.2312 75.3666 11.5796 75.3383 11.5796C75.3195 11.5796 75.1374 11.6958 74.9313 11.8369C74.726 11.9822 74.3327 12.2561 74.057 12.447C73.7813 12.6379 73.5469 12.7832 73.5375 12.7749C73.5237 12.7666 73.7153 12.3391 73.9634 11.8328C74.2065 11.3223 74.398 10.903 74.3937 10.8989C74.3842 10.8948 74.1223 10.7204 73.8089 10.5088C73.4911 10.2971 73.2248 10.127 73.2153 10.127C73.2059 10.127 72.7989 10.5876 72.3126 11.148Z" fill="#013600"/>
<path d="M48.6683 11.4135C48.5233 11.4757 48.4625 11.484 48.3503 11.4467C48.2708 11.4218 48.065 11.4135 47.8873 11.4218C47.5693 11.4425 47.4056 11.5131 46.952 11.8285C46.8725 11.8825 46.6854 11.9281 46.3674 11.9697C46.0541 12.007 45.7969 12.0692 45.5817 12.1523C45.2404 12.2934 44.1601 12.8951 43.9449 13.0695C43.5896 13.3559 43.0611 14.3229 42.9489 14.8957C42.9162 15.0616 42.8413 15.2651 42.7898 15.3439C42.7384 15.4227 42.6963 15.5389 42.6963 15.6053C42.6963 15.6718 42.6542 15.9789 42.6028 16.2902C42.4906 16.9625 42.4812 17.2406 42.5561 17.4108C42.5934 17.498 42.6028 17.6971 42.5794 18.0748C42.542 18.714 42.5934 18.8925 42.8927 19.1622L43.0798 19.3324L42.8787 19.4154C42.6309 19.5192 42.542 19.5815 42.4718 19.7018C42.4205 19.7848 42.3924 20.0463 42.4345 20.0463C42.4438 20.0463 42.542 20.0089 42.6542 19.9633C42.9723 19.8388 43.0705 19.8553 43.309 20.0753C43.7158 20.4613 43.7018 20.4115 43.5381 20.7145C43.3744 21.0258 43.3651 21.1088 43.4867 21.1669C43.6504 21.2416 43.8281 21.2125 44.0619 21.0631C44.2162 20.9635 44.2957 20.9345 44.3098 20.9677C44.3191 20.9967 44.3846 21.225 44.4547 21.4782C44.5716 21.9098 44.5997 21.9845 44.6979 22.1132C44.768 22.2086 44.8943 22.1174 45.0252 21.8766C45.1702 21.6069 45.1796 21.4076 45.0627 20.7103C44.9224 19.8886 44.9504 19.7931 45.563 18.9257C45.9933 18.3197 45.9839 18.3529 45.9933 17.4316C45.998 16.5351 46.026 16.4313 46.2973 16.2072C46.3768 16.1366 46.4844 16.0121 46.5358 15.9291C46.6012 15.8129 46.6948 15.7465 46.9145 15.651C47.2606 15.5016 47.8967 15.3356 48.4251 15.2526L48.7992 15.1945L49.0891 15.3148C49.3604 15.431 49.3978 15.4352 49.627 15.3937C49.8608 15.3522 49.9122 15.3605 50.3658 15.4933C50.9083 15.6552 51.0486 15.6552 51.2264 15.4933C51.3386 15.3937 51.535 15.0036 51.535 14.879C51.535 14.7836 51.6005 14.8002 51.9606 14.9828C52.3347 15.1695 52.994 15.3771 53.3448 15.4186C53.4804 15.4352 53.7002 15.4269 53.8452 15.3978C54.0837 15.3563 54.1211 15.3563 54.2614 15.4352C54.4157 15.5182 54.5794 15.6884 54.6402 15.8336C54.6589 15.8793 54.7384 16.1408 54.8179 16.4147C54.9629 16.9293 54.9629 17.0123 54.86 17.6307C54.8366 17.776 54.846 17.9628 54.8833 18.1496C54.9161 18.3156 54.9441 18.5231 54.9441 18.6144C54.9489 18.7804 55.0845 19.1747 55.1359 19.1747C55.2061 19.1747 55.3277 18.5106 55.3978 17.7843C55.4352 17.3485 55.4867 16.8629 55.5054 16.7052C55.5427 16.3608 55.5054 16.0993 55.3417 15.6427C55.1826 15.1945 55.0891 14.8002 55.0891 14.547C55.0891 14.2606 54.8647 13.7211 54.6075 13.3724C54.2474 12.8951 53.6815 12.5175 52.7275 12.1149C52.0447 11.8285 51.5022 11.6708 51.0627 11.6376C50.7774 11.6127 50.7259 11.5961 50.6932 11.5131C50.6371 11.3886 50.5108 11.3595 50.2162 11.4093C50.0338 11.4384 49.8655 11.4342 49.5942 11.3886C49.0985 11.3139 48.8834 11.318 48.6683 11.4135Z" fill="#013600"/>
<path d="M18.3319 13.2147C17.9391 13.3351 17.3218 13.8331 17.0926 14.1984C16.7933 14.6922 16.9476 15.2318 17.462 15.4601C17.593 15.5182 17.7707 15.5639 17.8642 15.5639C18.1121 15.5639 18.5564 15.4227 19.0521 15.1903C19.5431 14.9579 19.6881 14.9372 19.8518 15.0866C19.9921 15.2069 19.9967 15.3314 19.8752 15.514C19.6787 15.7963 19.2953 15.8918 18.996 15.7299C18.9118 15.6842 18.837 15.6468 18.8276 15.6468C18.8229 15.6468 18.6499 15.8046 18.4535 15.9997L18.0934 16.3524L18.3085 16.4728C18.5798 16.6264 18.9305 16.7011 19.1924 16.6678C19.6553 16.6056 20.4691 16.0162 20.7356 15.5514C21.0443 15.0035 20.8152 14.3436 20.2352 14.0946C20.1371 14.0573 19.9546 14.0282 19.7723 14.0282C19.4683 14.0282 19.2859 14.0946 18.2945 14.5636C17.8034 14.8002 17.6211 14.3643 18.0934 14.0821C18.2758 13.9701 18.4254 13.9618 18.6078 14.0489L18.7435 14.107L19.1036 13.7709L19.4637 13.4305L19.328 13.3351C19.0848 13.1607 18.6592 13.1068 18.3319 13.2147Z" fill="#013600"/>
<path d="M77.9105 13.9785C77.7189 14.0615 77.256 14.2607 76.8816 14.4185C76.5072 14.5761 75.8716 14.8459 75.4646 15.0161L74.726 15.3316L75.067 15.6345C75.5299 16.0537 75.5255 16.0537 75.8339 15.896L76.0915 15.7673L76.2874 15.925C76.3955 16.008 76.6154 16.1906 76.7743 16.3235L77.0637 16.5684L76.9143 16.834L76.7692 17.0954L77.19 17.4441C77.597 17.7886 77.6065 17.7927 77.6623 17.7014C77.7465 17.5645 79.173 14.6467 79.173 14.6135C79.173 14.5803 78.3175 13.8208 78.2849 13.8249C78.2704 13.8249 78.102 13.8955 77.9105 13.9785ZM77.761 15.373C77.6014 15.6594 77.4519 15.896 77.4331 15.896C77.4149 15.896 77.2698 15.788 77.1153 15.6553L76.8301 15.4104L77.4287 15.1157C77.7559 14.9538 78.0317 14.8293 78.0411 14.8376C78.0505 14.8418 77.9243 15.0825 77.761 15.373Z" fill="#013600"/>
<path d="M14.5252 16.535C14.3195 16.7467 14.1464 16.9376 14.1324 16.9666C14.1137 17.0206 15.9376 20.0463 15.9843 20.0421C16.003 20.0421 16.1807 19.872 16.3772 19.6645L16.7373 19.291L16.5736 19.0751C16.4893 18.9589 16.4145 18.8468 16.4145 18.8302C16.4145 18.8095 16.6063 18.602 16.8401 18.3654L17.261 17.9337L17.5556 18.05L17.8456 18.1703L18.229 17.7843C18.4395 17.5727 18.6126 17.3859 18.6126 17.3734C18.6126 17.361 18.5424 17.336 18.4629 17.3153C18.3787 17.2945 17.5837 17.0331 16.6951 16.7384C15.8066 16.4396 15.0397 16.1864 14.9882 16.1739C14.9133 16.1573 14.8152 16.232 14.5252 16.535ZM15.6289 17.2821C15.8159 17.3569 16.0825 17.4648 16.2181 17.5145C16.3491 17.5643 16.4613 17.6307 16.4613 17.6557C16.4566 17.6806 16.3444 17.8092 16.2088 17.9462L15.9563 18.1911L15.8393 18.0292C15.512 17.5643 15.2454 17.1742 15.2454 17.1576C15.2454 17.1286 15.2782 17.1369 15.6289 17.2821Z" fill="#013600"/>
<path d="M79.5241 17.1246C78.8036 17.6599 78.1768 18.1331 78.1253 18.1746C78.0411 18.2493 78.0505 18.2618 78.4017 18.6311C78.7101 18.9549 78.7754 19.0005 78.8363 18.959C78.8784 18.9299 79.1309 18.7432 79.4022 18.5398C79.6736 18.3406 79.9167 18.1829 79.945 18.1912C80.0335 18.2202 80.1133 18.407 80.0894 18.5523C80.0756 18.6311 79.945 18.9549 79.8042 19.2702L79.5474 19.843L79.9493 20.2747C80.1735 20.5153 80.3658 20.7063 80.3701 20.6979C80.3796 20.6938 80.487 20.4697 80.6132 20.2083C80.8896 19.6396 80.9782 19.3076 80.9078 19.1333C80.8846 19.0628 80.8708 19.0088 80.8751 19.0088C80.8846 19.0088 81.0108 19.0586 81.1603 19.1167C81.3801 19.208 81.4694 19.2205 81.6609 19.2039C81.9787 19.1707 82.2827 19.0005 82.4467 18.7722C82.6854 18.4361 82.676 18.1538 82.4046 17.7845C82.2501 17.5686 80.9078 16.145 80.8657 16.145C80.8476 16.1492 80.2439 16.585 79.5241 17.1246ZM81.1748 17.4524C81.5768 17.8592 81.6421 18.0625 81.4411 18.241C81.2633 18.4029 81.1233 18.3738 80.8287 18.1289C80.4311 17.7969 80.426 17.7845 80.7213 17.552C80.8613 17.44 80.997 17.3528 81.0246 17.3486C81.0529 17.3486 81.1182 17.3943 81.1748 17.4524Z" fill="#013600"/>
<path d="M52.9146 18.5106C52.5311 18.5605 52.1383 18.6725 51.8155 18.8302C51.3292 19.0626 51.3245 19.071 51.4929 19.2785C51.7501 19.5939 51.9746 19.7599 52.1803 19.7848C52.4423 19.818 52.5592 19.7848 52.7836 19.6105L52.9753 19.4652L53.1204 19.5898C53.2841 19.7226 53.6161 19.8471 54.0183 19.9177C54.3269 19.9757 54.4766 19.9384 54.6122 19.7682L54.7105 19.6479L54.6169 19.5151C54.4439 19.2785 54.2661 19.2162 53.6395 19.1747C53.3262 19.154 53.0549 19.1249 53.0269 19.1125C52.9146 19.0502 53.0081 18.9672 53.2841 18.8842C53.4524 18.8344 53.6442 18.7597 53.7096 18.7099C53.8266 18.631 53.8266 18.6227 53.7517 18.548C53.6629 18.4609 53.3776 18.4484 52.9146 18.5106Z" fill="#013600"/>
<path d="M48.7477 18.6559C48.5185 18.7638 48.28 18.9174 48.3128 18.9423C48.3221 18.9464 48.5092 18.9838 48.729 19.0211C49.1452 19.0958 49.2527 19.1415 49.1639 19.2204C49.0984 19.2784 47.471 19.5856 47.443 19.5483C47.4289 19.5316 47.4851 19.4113 47.5599 19.2826C47.6394 19.154 47.6955 19.0502 47.6861 19.0502C47.6066 19.0502 46.8397 19.3283 46.7088 19.4072L46.531 19.5067L46.6526 19.7475C46.8444 20.1335 46.8771 20.1501 47.4195 20.1418C47.948 20.1376 48.1397 20.0712 48.2613 19.8554C48.2987 19.7889 48.3361 19.7267 48.3455 19.7142C48.3502 19.706 48.411 19.7475 48.4764 19.8139C48.7009 20.0256 48.8879 20.0463 49.524 19.9384C50.2347 19.8139 50.4078 19.7599 50.5761 19.6063C50.7258 19.4694 50.824 19.2577 50.7679 19.183C50.7304 19.129 49.9635 18.7389 49.6923 18.6393C49.379 18.5189 49.0423 18.5231 48.7477 18.6559Z" fill="#013600"/>
<path d="M11.6304 19.7973L11.2656 20.2538L11.9531 21.1545C12.3319 21.6525 12.7574 22.2087 12.9024 22.3913C13.0427 22.5739 13.2297 22.8146 13.3186 22.9308C13.4074 23.0429 13.4823 23.1425 13.4917 23.1508C13.4963 23.155 13.6132 23.018 13.7488 22.8396C13.8845 22.6611 14.0341 22.4785 14.0809 22.4328C14.1651 22.3456 14.1651 22.3415 13.9827 22.1256C13.8798 22.0053 13.7956 21.8891 13.7956 21.8683C13.7956 21.8476 13.9359 21.6525 14.1136 21.4367C14.2867 21.2209 14.4503 21.0175 14.4737 20.9802C14.5158 20.922 14.5485 20.9262 14.8198 21.0051L15.119 21.0964L15.2173 20.9884C15.3856 20.8058 15.8159 20.2497 15.8018 20.2372C15.7924 20.2331 15.3623 20.1293 14.8478 20.0131C13.211 19.6354 12.1261 19.3822 12.056 19.3615C12.0138 19.3449 11.8689 19.4943 11.6304 19.7973ZM13.6881 20.6855C13.7255 20.7187 13.3186 21.2458 13.2531 21.2499C13.2064 21.2499 12.4395 20.3825 12.4395 20.3285C12.4395 20.2995 13.6413 20.644 13.6881 20.6855Z" fill="#013600"/>
<path d="M82.7739 19.7933C82.3626 19.9219 82.068 20.088 81.764 20.3577C81.1559 20.8931 81.0435 21.4866 81.4273 22.1424C81.8198 22.823 82.3343 23.1592 82.9706 23.1592C83.2652 23.1592 83.625 23.0803 83.6018 23.0181C83.5924 22.9932 83.5264 22.8023 83.4516 22.5947L83.321 22.2129L82.9655 22.2336C82.61 22.2586 82.6005 22.2544 82.4322 22.1257C82.1006 21.8642 82.0818 21.4783 82.3858 21.2002C83.017 20.615 83.7462 20.5071 84.0829 20.947C84.2236 21.1296 84.2374 21.4202 84.1162 21.5862L84.0364 21.6941L84.3869 21.9888C84.5792 22.1548 84.7569 22.2876 84.7801 22.2876C84.8549 22.2876 85.1074 21.7854 85.14 21.5779C85.2285 21.001 84.6728 20.1668 83.9849 19.8555C83.6439 19.7019 83.1433 19.677 82.7739 19.7933Z" fill="#013600"/>
<path d="M10.0638 21.8601C9.21265 23.1675 8.55797 24.1967 8.55797 24.2341C8.55797 24.2797 9.19864 24.6118 9.28281 24.6118C9.31089 24.6118 9.45586 24.4167 9.61018 24.1801C9.75979 23.9394 9.90012 23.7527 9.91412 23.7568C9.9282 23.7651 10.3584 23.9851 10.8728 24.2465C11.3872 24.508 11.925 24.7778 12.0654 24.8525L12.3272 24.9811L12.5938 24.5744C12.7387 24.3503 12.8604 24.1511 12.8604 24.1303C12.8604 24.1054 12.7294 24.0265 12.5657 23.9477C11.7567 23.5492 10.48 22.8852 10.4753 22.8603C10.4753 22.8479 10.5689 22.6944 10.6811 22.5241C10.7934 22.354 10.9196 22.1589 10.9617 22.0884L11.0365 21.9598L10.6577 21.773C10.4473 21.6692 10.2696 21.5821 10.2602 21.5821C10.2509 21.5821 10.162 21.7066 10.0638 21.8601Z" fill="#013600"/>
<path d="M50.4126 22.2668C50.1414 22.2959 49.8701 22.325 49.8093 22.325C49.7111 22.3291 49.7017 22.3415 49.7298 22.4619C49.7438 22.545 49.8327 22.6611 49.9449 22.7524C50.1039 22.8894 50.1554 22.9102 50.3564 22.9102C50.6371 22.9102 50.9083 22.989 51.1795 23.155C51.3478 23.2588 51.404 23.3252 51.4788 23.5327L51.577 23.7817H51.3993C51.3011 23.7817 51.128 23.8149 51.0158 23.8523C50.9036 23.8897 50.6604 23.9228 50.478 23.927C50.1881 23.9312 50.1086 23.9477 49.8841 24.0723C49.7392 24.1511 49.4679 24.3213 49.2808 24.4541C48.7758 24.8152 48.5373 24.9148 48.2193 24.894C47.7329 24.8608 47.2934 24.6035 46.966 24.1553C46.8725 24.0307 46.7883 23.9187 46.7789 23.9062C46.7696 23.898 46.7415 23.9145 46.7181 23.9477C46.6059 24.1055 46.7134 24.4914 46.9192 24.6865C46.9754 24.7405 47.167 24.8608 47.3401 24.9522C47.63 25.1057 47.7937 25.2427 47.7937 25.3257C47.7937 25.3464 47.6581 25.3589 47.4944 25.3589C47.2278 25.3589 47.1905 25.3713 47.1624 25.446C47.1297 25.5374 47.1016 25.5374 46.821 25.4336C46.6807 25.3879 46.6573 25.3879 46.6199 25.4543C46.5778 25.5166 46.5404 25.4834 46.3533 25.2385C46.2364 25.0808 46.1148 24.9605 46.0868 24.9687C46.0634 24.977 45.9979 25.0974 45.9511 25.2343C45.8997 25.3713 45.8436 25.4834 45.8296 25.4834C45.8109 25.4834 45.7688 25.3963 45.7361 25.2842L45.6753 25.0891L45.6098 25.3381C45.5724 25.4751 45.4929 25.6453 45.4274 25.72C45.1234 26.0727 45.0299 26.55 45.1983 26.8655C45.3058 27.0688 45.8155 27.4424 46.2271 27.6208C46.4983 27.7412 46.7088 27.7869 47.4663 27.8989C48.2801 28.0193 48.4765 28.0317 49.2902 28.0317C50.9878 28.0317 51.909 27.8035 52.6572 27.2058C52.8443 27.0523 53.6253 26.521 53.658 26.521C53.7095 26.521 53.7796 26.8447 53.7796 27.0688C53.7796 27.3925 53.6955 27.5876 53.2839 28.2309C53.0875 28.5339 52.8303 28.9407 52.7041 29.1358C52.5824 29.3308 52.0493 30.1651 51.5162 30.991C50.9878 31.8169 50.5528 32.5017 50.5528 32.5142C50.5528 32.5224 50.7492 32.6262 50.9878 32.7382C51.2216 32.8503 51.7874 33.1201 52.2364 33.3318L53.0548 33.7219L52.344 33.7343L51.6285 33.7468V34.7803V35.8178H52.1195H52.6105V36.6895V37.5611H58.3859H64.1615L64.1381 37.4033C64.124 37.3203 64.0819 37.0256 64.0446 36.7517C63.7686 34.8799 63.3337 33.1741 62.8567 32.1116C62.4873 31.294 62.2254 30.9785 61.5754 30.5967C60.5559 29.9866 59.0781 29.2229 57.5209 28.5007C56.3938 27.9819 56.2067 27.8906 55.7999 27.6665C55.1265 27.2971 54.4109 26.5791 53.7843 25.6411L53.6861 25.4917L53.8498 25.4004L54.0181 25.3091L53.9106 25.2053L53.803 25.1016L54.1304 25.1306C54.4577 25.1596 54.4577 25.1555 54.6962 24.9978L54.9347 24.8401L54.4717 24.7737C53.8872 24.6865 53.3634 24.4624 52.5965 23.9644L52.0493 23.6116L52.1943 23.4539C52.344 23.2837 52.4421 23.0056 52.4936 22.5947L52.5264 22.3415L52.3206 22.2918C52.0119 22.2129 50.9737 22.2004 50.4126 22.2668ZM51.7687 24.5454C51.9231 24.5579 51.9184 24.5869 51.7266 24.7155C51.2216 25.0434 50.4453 25.0725 50.2068 24.7737C50.132 24.6782 50.1366 24.6741 50.3284 24.5786C50.5155 24.4915 50.5622 24.4873 51.0907 24.508C51.3993 24.5247 51.7033 24.5412 51.7687 24.5454ZM49.683 25.5207L49.9215 25.6826L50.6698 25.7075C51.2777 25.7324 51.4835 25.7241 51.7406 25.6743C52.0447 25.6079 52.0634 25.6121 52.1756 25.6909C52.2644 25.7532 52.3346 25.7656 52.4702 25.749C52.7414 25.7116 52.8911 25.8984 52.8911 26.2886C52.8911 26.6123 52.5029 26.8697 51.8482 26.9817C51.6893 27.0066 51.5162 27.0481 51.4694 27.073C51.3993 27.102 51.3619 27.0937 51.3011 27.0232C51.259 26.9734 51.1468 26.9152 51.0532 26.8945C50.8896 26.8655 50.8802 26.8696 50.8802 26.9651C50.8802 27.1435 50.8007 27.2266 50.6183 27.2266C50.4687 27.2266 50.4593 27.2182 50.4874 27.1103C50.5061 27.0481 50.5388 26.9651 50.5575 26.9277C50.6136 26.8364 50.609 26.8115 50.5528 26.8115C50.5295 26.8115 50.4734 26.8738 50.4313 26.9443C50.3892 27.019 50.347 27.0896 50.3378 27.0979C50.3284 27.1062 50.2068 27.0523 50.0665 26.9817C49.7719 26.8364 49.7111 26.824 49.7111 26.9152C49.7111 26.9526 49.6784 26.99 49.6409 27.0024C49.496 27.0523 49.2434 26.9236 48.9348 26.6455C48.7571 26.4836 48.5794 26.3425 48.5326 26.33C48.411 26.2968 48.425 26.2471 48.6355 26.0478C48.7851 25.9026 48.8366 25.8154 48.8646 25.6494C48.9114 25.3963 48.9582 25.3589 49.2388 25.3589C49.4071 25.3589 49.4913 25.3879 49.683 25.5207Z" fill="#013600"/>
<path d="M84.8781 23.3792C84.1438 23.7319 83.4241 24.0723 83.2789 24.1428L83.0127 24.2674L83.5271 25.114C83.8122 25.5789 84.1395 26.1226 84.2614 26.3218C84.3782 26.5251 84.495 26.687 84.5226 26.687C84.5559 26.687 85.14 26.4172 85.201 26.3716C85.2104 26.3633 85.0138 26.023 84.7664 25.6079C84.5182 25.197 84.3172 24.8484 84.3172 24.8276C84.3172 24.7654 84.9158 24.5039 84.9673 24.5496C84.9906 24.5744 85.1821 24.8816 85.3976 25.2343C85.608 25.5872 85.7858 25.8818 85.7901 25.886C85.809 25.9109 86.4214 25.5996 86.4214 25.5664C86.4214 25.5457 86.3844 25.4668 86.3372 25.3921C86.0804 24.9853 85.6175 24.1885 85.6312 24.1802C85.6407 24.1718 85.7481 24.1179 85.8649 24.0556C86.0847 23.9436 86.1878 23.9228 86.1878 23.9809C86.1878 24.0017 86.3844 24.3338 86.6224 24.7239L87.0577 25.4336L87.3806 25.28C87.591 25.1804 87.7027 25.1057 87.6933 25.0684C87.6563 24.9355 86.3046 22.7441 86.2581 22.7441C86.2298 22.7441 85.608 23.0305 84.8781 23.3792Z" fill="#013600"/>
<path d="M7.65079 25.8611C7.58998 25.9857 7.4731 26.2098 7.39822 26.3633L7.25797 26.6372L8.63748 27.8906C9.39976 28.5754 10.0358 29.1232 10.0592 29.1066C10.0779 29.09 10.1901 28.8784 10.3117 28.6377L10.5315 28.206L10.293 28.0151L10.0544 27.8284L10.321 27.2971L10.5923 26.7659L10.8261 26.7908C10.9523 26.8032 11.0973 26.824 11.1441 26.8364C11.2095 26.853 11.2657 26.7825 11.434 26.4588C11.5509 26.2388 11.6538 26.0188 11.6679 25.969L11.6959 25.8777L10.0452 25.7781C9.1379 25.7283 8.25402 25.6743 8.08097 25.6619L7.76303 25.637L7.65079 25.8611ZM9.15662 26.5874C9.48393 26.6247 9.75522 26.6579 9.7645 26.6662C9.78794 26.6829 9.4512 27.3096 9.41848 27.3096C9.38576 27.3096 8.91341 26.9526 8.55803 26.6579C8.36162 26.4961 8.34755 26.4961 9.15662 26.5874Z" fill="#013600"/>
<path d="M87.1934 26.5417C86.6274 26.7533 86.0898 26.9567 86.0005 26.99C85.912 27.0232 85.6218 27.1311 85.3555 27.2265C84.9253 27.3842 84.8781 27.4133 84.9064 27.4922C84.9253 27.5378 85.164 28.0607 85.444 28.6501C85.7248 29.2395 85.9541 29.7375 85.9541 29.7583C85.9541 29.7832 85.9679 29.7998 85.9911 29.7998C86.0804 29.7998 86.758 29.5342 86.7769 29.4885C86.7907 29.4636 86.6506 29.1274 86.4685 28.7415C86.2857 28.3596 86.1413 28.04 86.15 28.0359C86.1594 28.0275 86.7254 27.8117 87.4038 27.5585C88.0865 27.3054 88.6568 27.0812 88.68 27.0647C88.7178 27.0314 88.3013 26.1474 88.2498 26.1515C88.236 26.1515 87.7593 26.3259 87.1934 26.5417Z" fill="#013600"/>
<path d="M44.3566 27.434C44.2303 27.5502 43.9778 27.7453 43.7953 27.8657C43.4727 28.0856 43.4493 28.0939 41.878 28.5131C40.0728 28.9946 37.8982 29.6254 37.1875 29.8745C36.6731 30.0571 36.4532 30.1774 35.9389 30.5509C35.574 30.8124 34.793 31.5097 34.793 31.5719C34.793 31.6176 34.765 31.7296 34.2365 33.8878C33.5725 36.598 33.3901 37.3741 33.3901 37.4447C33.3901 37.5111 33.7035 37.5152 38.4782 37.507L43.5616 37.4987L43.5756 36.9467L43.5896 36.3988H44.0292H44.4735V35.1537V33.9086H43.6737C43.2015 33.9086 42.8881 33.892 42.9068 33.8713C42.9208 33.8505 43.0191 33.7882 43.1313 33.7302C43.5662 33.5102 45.203 32.6095 45.2638 32.5597C45.3199 32.5099 45.3199 32.4269 45.2545 31.9704C45.2124 31.6798 45.0954 30.8705 44.9925 30.1733C44.8944 29.476 44.7774 28.6003 44.7353 28.2226C44.6886 27.8449 44.6418 27.4672 44.6231 27.3801L44.5904 27.2223L44.3566 27.434Z" fill="#013600"/>
<path d="M6.06546 29.2645C5.93919 29.6089 5.84566 29.8953 5.85501 29.9036C5.86437 29.9077 6.28058 30.1443 6.78096 30.4224C7.28134 30.7005 7.7116 30.9453 7.73968 30.9661C7.80041 31.02 7.67888 31.0159 5.81292 30.8996L5.47622 30.8789L5.32657 31.2857C5.24706 31.5056 5.14418 31.792 5.09741 31.9207L5.01791 32.1531L5.63054 32.3315C5.96725 32.427 6.71549 32.6428 7.29535 32.8088C7.87529 32.9748 8.39436 33.1243 8.45045 33.1367C8.53933 33.1616 8.56269 33.1367 8.66558 32.842C8.7311 32.6635 8.79654 32.4892 8.81526 32.4519C8.84798 32.3813 8.91815 32.4021 7.20185 31.9124C6.70146 31.7713 6.27123 31.6384 6.24316 31.6177C6.2151 31.5969 6.30396 31.5928 6.4536 31.6052C6.70614 31.626 8.84798 31.7505 8.99767 31.7505C9.04439 31.7505 9.1052 31.6467 9.18472 31.4102C9.25016 31.2275 9.29225 31.0574 9.27824 31.0408C9.26888 31.02 8.95551 30.8416 8.59077 30.6382C7.16911 29.8455 6.92126 29.7044 6.93528 29.6878C6.94932 29.6795 7.41695 29.804 7.97818 29.9659C8.54404 30.1277 9.12392 30.2979 9.26888 30.3394L9.53074 30.4141L9.57754 30.3062C9.60555 30.2439 9.6617 30.0903 9.70843 29.9659C9.75059 29.8413 9.79731 29.7169 9.80667 29.6919C9.83004 29.6339 9.81132 29.6255 8.23067 29.1731C7.49647 28.9656 6.77628 28.7582 6.63132 28.7166C6.48167 28.6751 6.34605 28.6378 6.32266 28.6378C6.30396 28.6378 6.18705 28.92 6.06546 29.2645Z" fill="#013600"/>
<path d="M88.1003 29.7332C87.7869 29.8121 87.3849 29.9822 87.1933 30.1192C86.8001 30.3931 86.52 30.9659 86.5802 31.3726C86.7399 32.402 87.2586 33.0038 88.1054 33.1242C88.6851 33.2072 89.5921 32.9499 90.0129 32.5846C90.5462 32.1239 90.6303 31.3643 90.2327 30.6048C90.0412 30.2312 89.7749 29.9739 89.4288 29.8204C89.1995 29.7207 89.0921 29.7 88.7366 29.6875C88.4885 29.6834 88.2265 29.7 88.1003 29.7332ZM89.2605 30.7584C89.6066 31.0032 89.6907 31.4225 89.4477 31.7255C89.2648 31.9579 88.4232 32.211 88.0444 32.1488C87.6657 32.0866 87.39 31.6508 87.4974 31.2938C87.5859 31.0032 88.035 30.7542 88.6053 30.6753C88.8672 30.6421 89.1437 30.6753 89.2605 30.7584Z" fill="#013600"/>
<path d="M46.8304 32.2362C46.3393 32.5059 45.6378 32.8836 45.2778 33.0787C44.913 33.2738 44.6184 33.444 44.6137 33.4605C44.6137 33.4772 44.6932 33.4855 44.7914 33.4813L44.9644 33.473V35.1497V36.8223L44.5202 36.8306L44.0759 36.8347L44.0619 37.3826L44.0478 37.9346H30.8555H17.6631L16.957 38.441C16.5688 38.719 15.4324 39.5367 14.427 40.2546C12.7668 41.4417 11.9297 42.0435 11.8129 42.1348C11.7848 42.1514 18.0887 42.168 25.8189 42.168H39.8718L40.5031 41.6782C40.8538 41.4126 41.6395 40.7983 42.2521 40.321C42.8647 39.8396 43.4633 39.3748 43.5849 39.2835C43.7065 39.1922 44.1414 38.856 44.5483 38.5364C44.9598 38.2169 45.3573 37.9055 45.4321 37.8475C45.5116 37.7893 45.7828 37.5735 46.04 37.3743C46.2972 37.1751 46.6433 36.9053 46.8117 36.7767C46.9753 36.648 47.2513 36.4363 47.4196 36.2994C47.5879 36.1666 47.8124 35.9881 47.9247 35.9093L48.1257 35.764L48.2286 35.847C48.3549 35.9466 50.8194 37.8599 51.6285 38.4907C52.4936 39.159 52.8209 39.4163 53.2652 39.7649C53.485 39.9351 54.0088 40.346 54.4343 40.6739C54.8599 40.9976 55.3415 41.3753 55.51 41.5039C55.6783 41.6367 55.9401 41.8359 56.0898 41.9563L56.3658 42.168H70.2034H84.0459L83.887 42.0559C83.8028 41.9895 83.7092 41.9231 83.6809 41.8982C83.6112 41.8443 82.2733 40.8565 81.6747 40.4165C81.0391 39.9517 79.6453 38.9224 78.9763 38.4243L78.4293 38.0176L65.2838 38.0093L52.1382 37.9969L52.1288 37.1253L52.1195 36.2537L51.6144 36.2413L51.1093 36.2288L51.114 34.7762C51.1187 33.9752 51.1047 33.3029 51.0813 33.2862C51.0626 33.2696 50.6885 33.0911 50.2489 32.892C49.814 32.6927 49.4352 32.5142 49.4072 32.4977C49.3837 32.4811 49.0471 32.3233 48.6589 32.1449C48.2754 31.9664 47.9387 31.8045 47.9153 31.788C47.8218 31.7132 47.7002 31.7631 46.8304 32.2362Z" fill="#013600"/>
<path d="M4.79344 35.4691C4.56896 35.5438 4.28369 35.7804 4.14808 36.0045C4.01713 36.2286 3.88619 36.8097 3.88151 37.1708C3.87684 37.8639 4.28369 38.4076 4.98985 38.6401C5.378 38.7687 5.87839 38.8185 6.22913 38.7645C7.23458 38.6069 7.72561 37.9801 7.73497 36.8553C7.73497 36.4818 7.71625 36.3697 7.604 36.0875C7.53391 35.9049 7.44967 35.7223 7.41695 35.6849C7.34214 35.5936 5.85033 35.3861 5.82227 35.4608C5.79889 35.523 5.62118 36.6271 5.60247 36.8139L5.58845 36.9591L5.93918 37.0047C6.13092 37.0338 6.29927 37.0462 6.30395 37.0421C6.31331 37.0338 6.34604 36.8844 6.36942 36.7101L6.42087 36.3946L6.60792 36.4071C6.78096 36.4195 6.79966 36.432 6.86046 36.5856C6.95867 36.8304 6.92593 37.316 6.79966 37.4655C6.56116 37.7477 6.23381 37.839 5.71471 37.7684C5.04129 37.673 4.70926 37.4239 4.70926 37.0047C4.70926 36.7267 4.81681 36.5482 5.05532 36.432L5.24706 36.3365L5.219 36.0045C5.20497 35.8219 5.19094 35.6102 5.19094 35.5355C5.19094 35.4234 5.17223 35.4026 5.08805 35.4068C5.02726 35.4068 4.89632 35.4358 4.79344 35.4691Z" fill="#013600"/>
<path d="M90.1159 35.739C89.41 35.8261 88.6285 35.9216 88.3855 35.9507C88.1424 35.9797 87.9414 36.0171 87.9458 36.0378C87.9458 36.0544 87.9741 36.2744 88.0118 36.5234L88.072 36.98L88.2171 36.9758C88.297 36.9758 88.6242 36.9426 88.9471 36.9011C89.2699 36.8596 89.5456 36.8347 89.5645 36.8513C89.6109 36.8928 89.751 37.9013 89.7089 37.9345C89.6908 37.9511 89.3679 37.9968 88.9935 38.0383C88.6198 38.0798 88.3013 38.1254 88.2875 38.1379C88.2737 38.1503 88.2919 38.3786 88.334 38.6401C88.4043 39.0759 88.4181 39.1174 88.5023 39.1091C89.2554 39.0344 92.0379 38.6899 92.0662 38.665C92.0895 38.6442 91.9494 37.7229 91.9211 37.6979C91.9117 37.6896 91.6266 37.7146 91.2855 37.7602C90.8553 37.8142 90.663 37.8266 90.6492 37.7934C90.6209 37.7228 90.4903 36.9094 90.4903 36.8015C90.4903 36.706 90.5135 36.7018 91.1078 36.6313C91.4488 36.5939 91.7339 36.5524 91.7434 36.5483C91.7528 36.54 91.7245 36.3242 91.6875 36.071C91.6454 35.8137 91.6128 35.5979 91.6128 35.5896C91.6128 35.5564 91.4444 35.573 90.1159 35.739Z" fill="#013600"/>
<path d="M47.8124 36.3907C47.6534 36.5236 47.1624 36.9054 46.7134 37.2499C46.2692 37.5902 45.7033 38.0301 45.4554 38.2252C44.7961 38.7482 44.478 38.9931 43.164 40.0099C42.5093 40.5204 41.8265 41.0517 41.6441 41.1928C41.4664 41.3339 40.5171 42.0727 39.5397 42.8322C38.5623 43.5917 37.7579 44.2268 37.7486 44.2475C37.7393 44.2683 42.065 44.2848 48.1164 44.2848C53.8311 44.2848 58.5029 44.2725 58.4982 44.2516C58.4982 44.2268 56.2955 42.5043 54.9347 41.4626C54.6307 41.2302 53.6112 40.4374 53.3119 40.2008C52.8537 39.8398 51.6331 38.8893 51.4414 38.744C51.3198 38.6527 50.5482 38.0551 49.7298 37.4159C48.9067 36.7768 48.2053 36.233 48.1678 36.2039C48.1117 36.1666 48.0462 36.1998 47.8124 36.3907ZM48.8974 38.0384C49.3042 38.3331 49.9215 38.7938 50.2723 39.0553C50.8615 39.4952 52.1849 40.4748 53.6393 41.5456C53.9667 41.7863 54.6962 42.3259 55.2714 42.7492L56.3096 43.517L52.213 43.5295C49.9636 43.5337 46.2785 43.5337 44.0245 43.5295L39.9279 43.517L42.5327 41.5871C43.9683 40.5246 45.2076 39.6115 45.2871 39.5534C45.3666 39.4952 45.8716 39.1217 46.4095 38.7233C46.9473 38.3248 47.4523 37.9513 47.5318 37.8932C47.6113 37.8393 47.7703 37.723 47.8825 37.6358C47.9995 37.5487 48.107 37.4823 48.1257 37.4864C48.1445 37.4947 48.4952 37.7396 48.8974 38.0384Z" fill="#013600"/>
<path d="M3.60089 39.794C3.60089 39.8853 3.58685 40.0969 3.57283 40.2672L3.54009 40.5784L3.86277 40.6033C4.04048 40.6199 4.48474 40.6324 4.85419 40.6365C5.21896 40.6407 5.53228 40.6573 5.54164 40.6739C5.56501 40.7071 5.24701 40.8939 3.88615 41.6492L3.51203 41.8567L3.50735 42.3215V42.7822L3.80198 42.8071C3.96098 42.8195 4.59698 42.8403 5.21428 42.8527C5.83157 42.8652 6.53305 42.8859 6.77155 42.8984L7.20179 42.9233V42.4501V41.9729L6.56111 41.948C6.21038 41.9314 5.77078 41.919 5.57905 41.919C5.39199 41.919 5.23766 41.9065 5.23766 41.8858C5.23766 41.8691 5.67257 41.6118 6.21038 41.313C6.7809 40.9934 7.20179 40.7278 7.23453 40.6697C7.27196 40.6116 7.29533 40.4041 7.29533 40.1717V39.7732L6.65464 39.7484C6.29923 39.7317 5.51357 39.711 4.91031 39.6985C4.30704 39.682 3.76457 39.6653 3.70845 39.6529C3.61024 39.6363 3.60089 39.6487 3.60089 39.794Z" fill="#013600"/>
<path d="M88.7976 39.9558L88.4791 39.9724V40.2504C88.4791 40.5991 88.5306 40.9684 88.5727 40.9435C88.5864 40.9352 88.8063 40.9227 89.0544 40.9186L89.5079 40.9103V40.5492C89.5079 40.3501 89.4941 40.126 89.4803 40.0554C89.452 39.9392 89.4332 39.9268 89.2786 39.9351C89.185 39.9392 88.9703 39.9475 88.7976 39.9558Z" fill="#013600"/>
<path d="M26.1883 44.9904V47.1901H26.7495H27.3106V44.9904V42.7907H26.7495H26.1883V44.9904Z" fill="#013600"/>
<path d="M68.6836 42.8198C68.6743 42.8406 68.6696 43.8242 68.6696 45.0112L68.6743 47.1694H69.2355H69.7967L69.8107 44.978L69.8201 42.7907H69.2636C68.9548 42.7907 68.693 42.8032 68.6836 42.8198Z" fill="#013600"/>
<path d="M15.6663 44.9904V47.1486H20.8104H25.9546V44.9904V42.8322H20.8104H15.6663V44.9904ZM24.5049 44.8659V46.2356H21.2781H18.0513V44.8659V43.4963H21.2781H24.5049V44.8659Z" fill="#013600"/>
<path d="M18.3085 43.7532C18.2945 43.7823 18.2897 44.3012 18.2945 44.9072L18.3085 46.0073L19.3748 46.0197L20.4363 46.0281L20.427 44.8782L20.4129 43.7241L19.37 43.7118C18.5376 43.6993 18.3272 43.7076 18.3085 43.7532Z" fill="#013600"/>
<path d="M20.8478 43.7324L20.7169 43.749V44.8904V46.0317L21.2687 46.0192L21.8159 46.0068L21.8299 44.8821L21.8392 43.7532L21.7363 43.7282C21.6195 43.7034 21.0583 43.7034 20.8478 43.7324Z" fill="#013600"/>
<path d="M22.0918 43.7577C22.0824 43.7868 22.0778 44.3014 22.0824 44.9074L22.0965 46.0073L23.1627 46.0197L24.2244 46.0281V44.8742V43.7162L23.1721 43.712C22.3817 43.7079 22.1105 43.7204 22.0918 43.7577Z" fill="#013600"/>
<path d="M27.5913 44.9904V47.1486H33.203H38.8148V45.862V44.5754L37.8094 44.5671L36.7993 44.5547L37.7673 43.8075C38.2958 43.3967 38.7961 43.0107 38.8803 42.9485L39.0252 42.8364L33.3106 42.8322H27.5913V44.9904ZM35.5273 44.8742L35.5413 46.2356H32.2911H29.041V44.8659V43.4963L32.2818 43.5046L35.5179 43.517L35.5273 44.8742Z" fill="#013600"/>
<path d="M29.4525 43.7328L29.3215 43.7494V44.8908V46.0281H30.3971H31.4728L31.4634 44.8742L31.4493 43.7245L30.5141 43.7204C29.9997 43.7162 29.5227 43.7245 29.4525 43.7328Z" fill="#013600"/>
<path d="M31.7767 43.7246C31.7486 43.737 31.7346 44.1561 31.7346 44.8781L31.744 46.0068L32.2818 46.0193C32.7962 46.0276 32.8196 46.0276 32.8429 45.9404C32.8804 45.8242 32.885 43.9403 32.8523 43.82C32.8243 43.7287 32.8056 43.7246 32.3239 43.7162C32.0479 43.7121 31.8047 43.7162 31.7767 43.7246Z" fill="#013600"/>
<path d="M33.2171 43.7325L33.1095 43.7491V44.8907V46.0281H34.1851H35.2607V44.8907C35.2607 43.8944 35.2514 43.7491 35.1859 43.7284C35.1064 43.6993 33.3807 43.7035 33.2171 43.7325Z" fill="#013600"/>
<path d="M57.2402 42.8447C57.2402 42.853 57.7359 43.239 58.3392 43.708L59.4335 44.5547L58.4561 44.5671L57.4741 44.5754V45.862V47.1486H62.9456H68.4171V44.9904V42.8322H62.8287C59.7562 42.8322 57.2402 42.8364 57.2402 42.8447ZM66.9674 44.8659V46.2356H63.7406H60.5138V44.8659V43.4963H63.7406H66.9674V44.8659Z" fill="#013600"/>
<path d="M60.771 43.8447C60.757 43.9152 60.7476 44.4299 60.757 44.9903L60.771 46.0073H61.8465H62.9221L62.9361 44.8907C62.9455 44.0231 62.9315 43.7658 62.8894 43.7367C62.8567 43.7159 62.3703 43.7035 61.8138 43.7076L60.7944 43.7118L60.771 43.8447Z" fill="#013600"/>
<path d="M63.2121 43.7285C63.1934 43.7452 63.1793 44.2681 63.1793 44.8949V46.0281H63.7406H64.3017V44.8742V43.7203L63.7733 43.712C63.4834 43.7037 63.2308 43.712 63.2121 43.7285Z" fill="#013600"/>
<path d="M64.6665 43.7325C64.587 43.7491 64.5823 43.8404 64.5823 44.8907V46.0281L65.6485 46.0197L66.7101 46.0073L66.7242 44.8824L66.7335 43.7532L66.6306 43.7284C66.509 43.6993 64.7881 43.7035 64.6665 43.7325Z" fill="#013600"/>
<path d="M70.0539 44.9904V47.1486H75.3384H80.6227V44.9904V42.8322H75.3384H70.0539V44.9904ZM78.0041 44.8659V46.2356H74.7681H71.5269L71.541 44.8991C71.5456 44.1604 71.5503 43.5461 71.5503 43.5253C71.5503 43.5087 73.005 43.4963 74.7768 43.4963H78.0041V44.8659Z" fill="#013600"/>
<path d="M71.8075 43.7532C71.7935 43.7823 71.7888 44.3012 71.7935 44.9072L71.8075 46.0073L72.8736 46.0197L73.9351 46.0281L73.9257 44.8782L73.9119 43.7241L72.8693 43.7118C72.0367 43.6993 71.8263 43.7076 71.8075 43.7532Z" fill="#013600"/>
<path d="M74.2391 43.737C74.2253 43.7494 74.2159 44.2682 74.2159 44.895V46.0281H74.7768H75.3384L75.3289 44.8742L75.3151 43.7245L74.7913 43.7203C74.501 43.7203 74.2536 43.7245 74.2391 43.737Z" fill="#013600"/>
<path d="M75.5952 43.7367C75.5814 43.7491 75.572 44.268 75.572 44.8948V46.0281H76.648H77.7233V44.8907V43.7533L77.5172 43.7284C77.2792 43.6952 75.6329 43.7035 75.5952 43.7367Z" fill="#013600"/>
<path d="M5.86901 43.9982C5.14883 44.2928 4.34447 44.629 4.0779 44.7411L3.59622 44.9486L3.62896 45.3553C3.6804 46.061 3.66637 46.0361 4.06855 46.1398C4.44267 46.2353 5.17689 46.4262 6.12622 46.671C7.33277 46.9865 7.45902 47.0156 7.47774 46.9989C7.50111 46.9782 7.40758 46.0278 7.37486 46.0029C7.3655 45.9946 7.22988 45.9655 7.07088 45.9406L6.79029 45.895L6.76223 45.6625C6.7482 45.5297 6.72482 45.2682 6.70611 45.069L6.67805 44.7162L6.97268 44.6125L7.27197 44.5087L7.25797 44.2223C7.24859 44.0605 7.22521 43.8238 7.21118 43.6952L7.17844 43.4586L5.86901 43.9982ZM5.94851 45.3305C5.96254 45.5214 5.96722 45.6832 5.95787 45.6916C5.93449 45.7123 4.70924 45.4799 4.66247 45.4467C4.62973 45.4218 5.76145 44.9984 5.87369 44.9943C5.90643 44.9901 5.93449 45.1188 5.94851 45.3305Z" fill="#013600"/>
<path d="M88.5538 43.7782C88.54 43.8861 88.5023 44.2804 88.4747 44.6581C88.4 45.6212 88.4747 45.9241 88.8629 46.2811C89.1198 46.5136 89.4659 46.6464 89.9759 46.7045C91.1078 46.829 91.8936 46.4638 92.0801 45.7249C92.1316 45.5132 92.2723 43.8611 92.244 43.8321C92.2303 43.8238 91.5141 43.774 90.6449 43.72C89.7749 43.6703 88.9565 43.6162 88.8208 43.6038L88.5821 43.5789L88.5538 43.7782ZM90.2328 44.6996C90.5934 44.7204 90.9953 44.7495 91.1216 44.7619L91.3603 44.7868L91.332 45.0442C91.2667 45.5755 91.0752 45.7166 90.42 45.7125C89.9106 45.7083 89.6436 45.6461 89.447 45.4883C89.3026 45.3762 89.2975 45.3555 89.2932 45.0442C89.2881 44.8657 89.2932 44.708 89.307 44.6872C89.3302 44.6499 89.4426 44.6499 90.2328 44.6996Z" fill="#013600"/>
<path d="M39.6566 44.7621V44.9489L47.9013 44.9406L56.1413 44.9282L56.1554 44.7498L56.1694 44.5754H47.9153H39.6566V44.7621Z" fill="#013600"/>
<path d="M39.6659 51.2243L39.68 57.0888L41.5412 57.1013L43.3978 57.1096V51.2368V45.364H41.5272H39.6566L39.6659 51.2243ZM43.0143 50.996L43.0003 55.8437L41.5412 55.8562L40.0775 55.8644V51.0085V46.1525H41.5506H43.0236L43.0143 50.996Z" fill="#013600"/>
<path d="M40.4048 47.2524V48.0617H41.5272H42.6495V47.2524V46.4431H41.5272H40.4048V47.2524Z" fill="#013600"/>
<path d="M40.4142 51.9504L40.4282 55.5527L40.9099 55.5569H41.3869V51.9545V48.3521H40.8958H40.4048L40.4142 51.9504Z" fill="#013600"/>
<path d="M41.7143 51.9586V55.5652L42.1819 55.5693L42.6495 55.5776V51.9628V48.3521H42.1819H41.7143V51.9586Z" fill="#013600"/>
<path d="M45.0813 50.4648V55.5698L45.5022 55.5656L45.9231 55.5615V50.7719V45.9865H48.0977H50.2723V50.7802V55.5739H50.6932H51.114V50.469V45.364H48.0977H45.0813V50.4648Z" fill="#013600"/>
<path d="M52.4235 51.2368V57.1096H54.2941H56.1646V51.2368V45.364H54.2941H52.4235V51.2368ZM54.4157 46.1525H55.7437V51.0085V55.8644H54.2941H52.8443V51.0127C52.8443 45.9824 52.8397 46.082 53.0221 46.136C53.0594 46.1443 53.6861 46.1525 54.4157 46.1525Z" fill="#013600"/>
<path d="M53.1717 47.2524V48.0617H54.2941H55.4164V47.2524V46.4431H54.2941H53.1717V47.2524Z" fill="#013600"/>
<path d="M53.1717 51.9544V55.5612L53.63 55.5571L54.0836 55.553L54.0977 51.9503L54.107 48.3518H53.6393H53.1717V51.9544Z" fill="#013600"/>
<path d="M54.4811 51.9216C54.4811 53.8847 54.4764 55.5034 54.4718 55.52C54.4624 55.5407 54.6682 55.5532 54.9254 55.5532H55.3931L55.4071 51.9506L55.4164 48.3522H54.9487H54.4811V51.9216Z" fill="#013600"/>
<path d="M46.2505 50.9045V55.5278L46.4048 55.5528C46.4843 55.5652 47.312 55.5735 48.238 55.5652L49.9215 55.5528L49.9355 50.9128L49.9449 46.277H48.0977H46.2505V50.9045Z" fill="#013600"/>
<path d="M88.199 47.3807C88.199 47.4015 88.0815 48.0117 87.9415 48.7422C87.7963 49.4686 87.689 50.0705 87.6984 50.0788C87.7405 50.1161 88.4559 50.2158 88.4842 50.1867C88.498 50.1701 88.5821 49.7924 88.6663 49.3483C88.7505 48.9041 88.8303 48.5264 88.8484 48.514C88.8629 48.5015 89.0312 48.5056 89.2184 48.5305C89.4709 48.5637 89.5551 48.5928 89.5551 48.6384C89.5551 48.6758 89.4891 49.0287 89.4143 49.423C89.3353 49.8215 89.2743 50.1494 89.2743 50.1576C89.2743 50.1743 89.9803 50.2697 89.9991 50.2531C90.0035 50.249 90.055 49.9958 90.1116 49.7011C90.1675 49.4022 90.2328 49.0619 90.2611 48.9373L90.3126 48.7173L90.5745 48.7463C90.724 48.763 90.8546 48.7879 90.8734 48.8003C90.8872 48.8169 90.8314 49.1947 90.7472 49.6388C90.6587 50.0829 90.6021 50.4607 90.6209 50.4731C90.6492 50.498 91.2057 50.5935 91.3175 50.5935C91.3458 50.5935 91.3784 50.5063 91.3922 50.3943C91.4111 50.2863 91.5192 49.7135 91.636 49.1199C91.7477 48.5264 91.8464 48.0117 91.8464 47.9744C91.8464 47.9245 91.7434 47.8955 91.3922 47.8456C90.457 47.7087 88.4044 47.3932 88.3064 47.3683C88.2455 47.3559 88.199 47.3642 88.199 47.3807Z" fill="#013600"/>
<path d="M13.8424 48.5183C12.851 49.0412 11.9298 49.531 11.7988 49.6015C11.6632 49.6721 11.5509 49.7385 11.5509 49.7468C11.5509 49.7551 17.6865 49.7634 25.1829 49.7634H38.8149V48.6636V47.5637H27.2312H15.6428L13.8424 48.5183Z" fill="#013600"/>
<path d="M57.4741 48.6636V49.7634H71.0593C78.5323 49.7634 84.6445 49.7551 84.6445 49.7468C84.6445 49.7385 84.2374 49.477 83.7469 49.1699C83.2506 48.8627 82.4656 48.3772 82.0019 48.0908L81.1654 47.5637H69.3196H57.4741V48.6636Z" fill="#013600"/>
<path d="M6.08882 47.7126C5.65857 47.9036 5.4949 48.2315 5.43411 49.0534C5.38266 49.6594 5.34057 49.7632 5.14416 49.7632C4.96645 49.7632 4.85889 49.618 4.82616 49.3481C4.80745 49.1655 4.82148 49.1323 4.93839 49.0244C5.01321 48.958 5.10207 48.8957 5.1348 48.8874C5.18157 48.8749 5.17222 48.7753 5.08336 48.4432C5.02257 48.2108 4.9571 48.0073 4.94307 47.995C4.8776 47.9326 4.56894 48.0862 4.38188 48.2689C4.14806 48.5014 4.11533 48.5968 4.11533 49.0783C4.11533 49.5183 4.26965 50.0164 4.49412 50.2779C4.88227 50.7387 5.56505 50.8051 5.98594 50.4232C6.2104 50.2199 6.29926 49.9874 6.36006 49.4519C6.43488 48.821 6.45358 48.7421 6.5518 48.6466C6.69676 48.5096 6.93059 48.5304 7.08024 48.6881C7.17845 48.7919 7.20183 48.8584 7.20183 49.0451C7.20183 49.3108 7.09894 49.4727 6.87448 49.5557C6.79965 49.5847 6.73417 49.6387 6.73417 49.6761C6.73885 49.7632 6.94462 50.5021 6.97735 50.5311C7.01477 50.5685 7.35615 50.4232 7.5432 50.2946C7.64144 50.224 7.77705 50.0746 7.8425 49.9542C8.12307 49.4685 7.93138 48.4183 7.47776 47.9576C7.13168 47.6089 6.5518 47.5051 6.08882 47.7126Z" fill="#013600"/>
<path d="M15.6896 50.6018C15.6756 50.6308 15.671 52.5774 15.6756 54.9307L15.6896 59.2055H18.4722H21.2547L21.2687 54.8767L21.2781 50.5519H18.4956C16.3117 50.5519 15.7037 50.5644 15.6896 50.6018ZM20.4972 53.0298C20.4924 53.7561 20.4878 54.3745 20.4831 54.3994C20.4831 54.4409 20.0482 54.4534 18.4722 54.4534H16.4613V53.0837V51.7141H18.4863H20.5064L20.4972 53.0298Z" fill="#013600"/>
<path d="M16.6951 53.0629V54.2044H17.2096H17.724L17.7146 53.0712L17.7005 51.9423L17.2002 51.9298L16.6951 51.9174V53.0629Z" fill="#013600"/>
<path d="M17.9577 53.0585V54.1997L18.3974 54.2121C18.6359 54.2204 18.8697 54.2204 18.9118 54.2121C18.982 54.1997 18.9866 54.0835 18.9773 53.0709L18.9632 51.9421L18.4628 51.9297L17.9577 51.9172V53.0585Z" fill="#013600"/>
<path d="M19.2532 51.9464C19.2344 51.9629 19.2204 52.4775 19.2204 53.0875C19.2204 54.0752 19.2298 54.1997 19.2952 54.2121C19.3373 54.2204 19.5712 54.2204 19.8097 54.2121L20.2492 54.1997L20.2399 53.0709L20.2259 51.9422L19.7535 51.9297C19.4963 51.9256 19.2719 51.9297 19.2532 51.9464Z" fill="#013600"/>
<path d="M22.681 54.8891V59.2263L25.1268 59.218L27.5679 59.2055L27.582 54.8767L27.5914 50.5519H25.1362H22.681V54.8891Z" fill="#013600"/>
<path d="M29.1813 54.8891V59.2263H31.6364H34.0916V54.8891V50.5519H31.6364H29.1813V54.8891ZM33.6707 53.0837V54.4534H31.6364H29.6021V53.0837V51.7141H31.6364H33.6707V53.0837Z" fill="#013600"/>
<path d="M29.9155 51.9464C29.8968 51.9631 29.8828 52.4778 29.8828 53.092V54.2044H30.3971H30.9116L30.9022 53.0713L30.8882 51.9423L30.4159 51.9299C30.1586 51.9257 29.9342 51.9299 29.9155 51.9464Z" fill="#013600"/>
<path d="M31.1454 53.0876C31.1454 54.1335 31.1548 54.2538 31.2202 54.2289C31.2623 54.2165 31.4914 54.204 31.7346 54.204H32.1743L32.1649 53.071L32.1508 51.9422L31.6505 51.9297L31.1454 51.9174V53.0876Z" fill="#013600"/>
<path d="M32.4314 51.9711C32.4174 52.0001 32.4127 52.519 32.4174 53.1166L32.4314 54.2123H32.9224H33.4134V53.0751V51.9421L32.9317 51.9296C32.5717 51.9212 32.4454 51.9337 32.4314 51.9711Z" fill="#013600"/>
<path d="M35.6909 54.5858L35.7049 58.6242L36.2334 58.6367L36.7572 58.6533V58.2548V57.8564H37.4353H38.1134V54.204V50.5515H36.8975H35.6816L35.6909 54.5858Z" fill="#013600"/>
<path d="M58.1755 54.2039V57.8519L58.7741 57.8644L59.368 57.8768L59.3821 58.2296C59.3914 58.4247 59.4195 58.5907 59.4475 58.6073C59.4756 58.6239 59.7468 58.6364 60.0508 58.6322H60.6073L60.6167 54.6314C60.6261 52.4359 60.6261 50.614 60.6167 50.5932C60.6073 50.5684 60.1537 50.5517 59.3867 50.5517H58.1755V54.2039Z" fill="#013600"/>
<path d="M62.1973 54.8891V59.2263H64.6525H67.1076V54.8891V50.5519H64.6525H62.1973V54.8891ZM66.5932 53.0837V54.4534H64.5823H62.5714V53.0837V51.7141H64.5823H66.5932V53.0837Z" fill="#013600"/>
<path d="M62.838 51.946C62.8192 51.9626 62.8052 52.4774 62.8052 53.0876V54.2001L63.3009 54.2126C63.6095 54.2209 63.8059 54.2084 63.8152 54.1835C63.8292 54.1586 63.8292 53.648 63.8245 53.0419L63.8105 51.9419L63.3382 51.9294C63.0811 51.9253 62.8567 51.9294 62.838 51.946Z" fill="#013600"/>
<path d="M64.0913 51.9751C64.0773 52.0042 64.0726 52.5189 64.0773 53.1208L64.0913 54.2165L64.255 54.229C64.3438 54.2331 64.5729 54.229 64.76 54.2165L65.0966 54.1958V53.0584V51.9212H64.6056C64.2503 51.9212 64.1053 51.9378 64.0913 51.9751Z" fill="#013600"/>
<path d="M65.3633 51.9464C65.3306 51.9796 65.3165 54.1791 65.3493 54.2082C65.3586 54.2165 65.5924 54.2206 65.8637 54.2123L66.3594 54.1999L66.35 53.071L66.336 51.9423L65.8637 51.9298C65.6065 51.9256 65.382 51.9298 65.3633 51.9464Z" fill="#013600"/>
<path d="M68.6976 54.8891V59.2263H71.1528H73.6079V54.8891V50.5519H71.1528H68.6976V54.8891Z" fill="#013600"/>
<path d="M75.0576 54.8891V59.2263H77.8401H80.6227V54.8891V50.5519H77.8401H75.0576V54.8891ZM79.781 53.0837V54.4534L77.761 54.445L75.736 54.4325L75.7215 53.0713L75.712 51.7141H77.7465H79.781V53.0837Z" fill="#013600"/>
<path d="M75.9928 53.0625V54.2039L76.344 54.208C76.5355 54.208 76.7648 54.2121 76.849 54.2163L76.9984 54.2205V53.0791V51.9419L76.4978 51.9295L75.9928 51.917V53.0625Z" fill="#013600"/>
<path d="M77.2647 53.0628L77.2792 54.2124H77.7697H78.2609V53.0752V51.9423L77.7559 51.9298L77.2553 51.9174L77.2647 53.0628Z" fill="#013600"/>
<path d="M78.5512 51.9464C78.5323 51.9631 78.5185 52.4778 78.5185 53.092V54.2044H79.0329H79.5474L79.5379 53.0713L79.5234 51.9423L79.0511 51.9299C78.7942 51.9257 78.57 51.9299 78.5512 51.9464Z" fill="#013600"/>
<path d="M87.4785 50.8753C87.4691 50.8919 87.2964 51.4357 87.0998 52.0873C86.8988 52.739 86.7254 53.291 86.716 53.3159C86.6927 53.374 87.5438 53.5691 87.5816 53.5068C87.6004 53.486 87.7078 53.1457 87.8246 52.7555C87.9603 52.3031 88.0583 52.0458 88.096 52.0458C88.1286 52.0458 88.7367 52.1869 89.4426 52.3612C90.1537 52.5314 90.7429 52.6684 90.7472 52.6601C90.7849 52.631 91.0512 51.7386 91.0324 51.722C91.0048 51.7012 89.9339 51.4315 89.0167 51.2157C88.6336 51.1243 88.133 51.004 87.9088 50.95C87.6846 50.8919 87.488 50.8587 87.4785 50.8753Z" fill="#013600"/>
<path d="M7.45904 51.2821C7.07554 51.3858 6.31795 51.5809 5.77548 51.7178C5.23769 51.8589 4.78874 51.9752 4.78407 51.9793C4.77004 51.9876 5.0553 52.8509 5.07401 52.8716C5.08336 52.8758 5.50424 52.7804 6.0093 52.6475C6.50968 52.5189 6.94459 52.4193 6.96798 52.4276C6.99604 52.4358 6.71545 52.7596 6.35536 53.1456C5.9906 53.5357 5.64454 53.9093 5.57906 53.9798L5.46683 54.1126L5.60712 54.536C5.68195 54.7684 5.75677 54.9676 5.76612 54.9801C5.78951 54.9967 6.17298 54.9054 6.75754 54.7477C6.83704 54.7269 7.43561 54.5734 8.09036 54.4073C8.74503 54.2413 9.29218 54.1002 9.30154 54.0919C9.3109 54.0877 9.25946 53.8844 9.18465 53.6436C9.09577 53.3573 9.02561 53.2078 8.98353 53.2078C8.94616 53.2078 8.52054 53.3116 8.02955 53.4361C7.54321 53.5648 7.13165 53.6603 7.11763 53.6478C7.10827 53.6353 7.24389 53.4693 7.4216 53.2825C7.59929 53.0916 7.94539 52.7222 8.19324 52.4566L8.6375 51.971L8.49718 51.5311C8.37093 51.1534 8.33821 51.0911 8.25397 51.0953C8.2026 51.0994 7.84715 51.1825 7.45904 51.2821Z" fill="#013600"/>
<path d="M9.41377 54.6899C9.36233 54.7314 9.03967 55.0012 8.69357 55.2876C8.34755 55.5739 7.74424 56.0762 7.35614 56.3999C6.96327 56.7278 6.64059 57.01 6.64059 57.0266C6.64059 57.0639 6.74348 57.2963 6.86975 57.5454C6.91651 57.6367 6.98198 57.782 7.0194 57.865C7.07084 58.0019 7.0989 58.0227 7.22516 58.0227C7.29998 58.0227 7.94537 58.0019 8.65149 57.9812C9.35768 57.9604 10.1854 57.9397 10.4893 57.9355C10.8635 57.9314 11.0365 57.9147 11.0319 57.8815C11.0319 57.8567 10.943 57.6492 10.8307 57.4209L10.6343 57.0058L10.307 57.0141L9.97492 57.0225L9.72707 56.4829L9.47922 55.9433L9.65698 55.8105C9.75515 55.7358 9.86739 55.657 9.90948 55.6321C9.96563 55.5906 9.94692 55.52 9.7505 55.1008C9.6289 54.8351 9.5213 54.6193 9.51665 54.6193C9.51201 54.6193 9.46521 54.6525 9.41377 54.6899ZM8.93207 56.5991C8.96486 56.6863 9.02095 56.819 9.05839 56.8896C9.09111 56.9643 9.11912 57.039 9.11912 57.0557C9.12383 57.0888 7.81905 57.2258 7.78633 57.2009C7.76296 57.176 8.75909 56.4496 8.81518 56.4455C8.84326 56.4455 8.8947 56.5161 8.93207 56.5991Z" fill="#013600"/>
<path d="M85.5565 56.1384C85.4346 56.3791 85.3555 56.5949 85.3744 56.6115C85.3976 56.6282 85.6733 56.7402 85.9911 56.8647C86.3045 56.9851 86.5621 57.0972 86.5621 57.1137C86.5621 57.1345 86.478 57.3337 86.3749 57.562C86.0571 58.2634 86.1319 58.7158 86.6223 59.0146C86.8328 59.1391 87.2449 59.2678 87.4459 59.2678C87.6657 59.2678 88.0445 59.0769 88.1889 58.8984C88.3064 58.7573 88.9471 57.5288 89.1292 57.1055C89.1713 56.9975 89.1662 56.9934 88.535 56.7443C87.3987 56.2961 85.8416 55.6985 85.809 55.6985C85.7952 55.6985 85.6776 55.8977 85.5565 56.1384ZM87.6701 57.5039C87.8573 57.5703 88.0118 57.6492 88.0118 57.674C88.0118 57.7736 87.8573 58.0476 87.7405 58.1555C87.4974 58.3879 87.0766 58.2344 87.0766 57.9189C87.0766 57.7654 87.2492 57.3462 87.3051 57.3669C87.3196 57.3752 87.488 57.4334 87.6701 57.5039Z" fill="#013600"/>
<path d="M45.0813 56.0927V56.321H48.0977H51.114V56.0927V55.8644H48.0977H45.0813V56.0927Z" fill="#013600"/>
<path d="M45.0813 56.8606V57.1096H48.0977H51.114V56.8606V56.6157L48.0977 56.6115H45.0813V56.8606Z" fill="#013600"/>
<path d="M38.9551 57.5869V57.8567H48.1445H57.3337V57.5869V57.3171H48.1445H38.9551V57.5869Z" fill="#013600"/>
<path d="M37.0378 58.3755V58.6452H48.0743H59.1108V58.3755V58.1057H48.0743H37.0378V58.3755Z" fill="#013600"/>
<path d="M10.4286 58.6076C10.2229 58.6823 10.0077 58.8524 9.90948 59.0309C9.82996 59.1637 9.81596 59.2467 9.83468 59.4211C9.84868 59.5414 9.84868 59.641 9.83932 59.641C9.82532 59.641 9.75051 59.5996 9.67564 59.5455C9.45122 59.4003 9.04904 59.4169 8.78711 59.5787C8.67958 59.6451 8.54861 59.7739 8.49717 59.861C8.38964 60.0477 8.37557 60.3591 8.46445 60.5583C8.58134 60.8115 9.59619 62.4634 9.62419 62.4468C9.64291 62.4385 10.3725 62.0898 11.247 61.6748C12.1215 61.2555 12.8417 60.9111 12.8511 60.9069C12.8557 60.9028 12.6266 60.5127 12.3413 60.0395C11.7848 59.1346 11.4902 58.7653 11.2236 58.6366C11.0459 58.5536 10.625 58.537 10.4286 58.6076ZM11.1395 59.641C11.2049 59.6825 11.3359 59.8569 11.434 60.0187C11.6024 60.3092 11.6071 60.3217 11.5229 60.3756C11.3639 60.4836 10.9851 60.6413 10.9477 60.6164C10.8495 60.5666 10.5689 60.0104 10.5689 59.8734C10.5689 59.6078 10.9009 59.4708 11.1395 59.641ZM9.94692 60.3632C9.975 60.3881 10.0779 60.5292 10.1714 60.6745C10.3585 60.9733 10.3725 60.9443 9.95628 61.1352L9.69907 61.2514L9.52602 60.9567C9.29217 60.5541 9.29689 60.4213 9.55875 60.3217C9.70843 60.2636 9.84868 60.2802 9.94692 60.3632Z" fill="#013600"/>
<path d="M35.7751 58.9772V59.1018H48.1445H60.5138V58.9772V58.8528H48.1445H35.7751V58.9772Z" fill="#013600"/>
<path d="M84.027 59.0687C83.9849 59.1226 83.8681 59.3177 83.7607 59.5045C83.5873 59.8157 83.5786 59.8489 83.6533 59.8862C83.6954 59.907 84.3267 60.2058 85.0515 60.5461C85.7763 60.8906 86.4729 61.2184 86.5991 61.2766L86.8378 61.3845L87.0998 60.9446C87.2449 60.7038 87.3566 60.5005 87.3479 60.4963C87.2964 60.4548 84.2846 59.0354 84.1721 58.9981C84.1257 58.9815 84.0691 59.0064 84.027 59.0687Z" fill="#013600"/>
<path d="M82.8813 60.9154C82.8023 61.0233 82.512 61.43 82.2363 61.8201C81.9555 62.2061 81.6798 62.6086 81.6145 62.7082L81.497 62.8908L81.5956 62.9572C81.6515 62.9946 81.8198 63.0901 81.9693 63.1731L82.2407 63.3225L82.4932 62.9655C82.6288 62.7705 82.8443 62.4675 82.9706 62.2891L83.1999 61.9736L84.3782 62.6293C85.2757 63.1316 85.5703 63.2768 85.608 63.2395C85.6363 63.2104 85.7763 63.0195 85.9164 62.812L86.1783 62.4385L85.6174 62.1272C85.304 61.9571 84.9202 61.7454 84.7569 61.6541C83.6766 61.0481 83.1527 60.7618 83.0918 60.7411C83.0402 60.7245 82.9749 60.7784 82.8813 60.9154Z" fill="#013600"/>
<path d="M24.1962 61.301C23.7613 61.3425 23.4387 61.4628 23.1674 61.687C22.8026 61.9817 22.6577 62.405 22.8401 62.6458C22.999 62.8616 23.2703 62.7288 23.2188 62.4631C23.1627 62.1809 23.4012 61.9236 23.8502 61.7866C24.0933 61.7119 24.5049 61.6538 24.5049 61.6995C24.5049 61.716 24.4441 61.8157 24.374 61.9194C24.1495 62.2473 23.8689 62.8616 23.4574 63.9366C23.2422 64.5052 23.0224 65.0614 22.971 65.1693L22.8728 65.3602L22.6529 65.3021C22.5314 65.2689 22.3911 65.244 22.3396 65.244C22.1666 65.244 21.9327 65.4183 21.8767 65.5926C21.7504 65.9537 22.1479 66.2193 22.6202 66.0948C22.7278 66.0658 22.8681 66.0035 22.9336 65.9578C23.0458 65.8831 23.0692 65.879 23.2422 65.933C23.3498 65.9662 23.5789 66.0119 23.7613 66.0326C24.9726 66.1862 25.9921 65.4515 26.4504 64.0943C26.5533 63.7996 26.5767 63.6419 26.5767 63.2725C26.586 62.5794 26.3896 62.1021 25.9546 61.741C25.4964 61.3591 24.9445 61.2221 24.1962 61.301ZM25.3794 61.8489C25.7769 62.0149 26.0762 62.4548 26.151 62.9985C26.268 63.7996 25.7021 64.9783 25.0007 65.3893C24.7294 65.5511 24.3553 65.659 24.0606 65.659C23.8923 65.659 23.3451 65.5552 23.2983 65.5137C23.289 65.5055 23.3545 65.3353 23.448 65.1319C23.5368 64.9327 23.7473 64.4097 23.911 63.978C24.3833 62.7454 24.5985 62.2888 24.8603 61.9775C24.9211 61.907 24.9726 61.8157 24.9726 61.7783C24.9726 61.6995 25.0661 61.716 25.3794 61.8489ZM22.4472 65.7005C22.4472 65.7213 22.4145 65.742 22.3771 65.742C22.3396 65.742 22.3069 65.7213 22.3069 65.7005C22.3069 65.6756 22.3396 65.659 22.3771 65.659C22.4145 65.659 22.4472 65.6756 22.4472 65.7005Z" fill="#013600"/>
<path d="M38.8148 61.3055C38.1321 61.376 37.7112 61.6167 37.468 62.0815C37.295 62.4135 37.3978 62.7539 37.6691 62.7539C37.8047 62.7539 37.9076 62.5879 37.8421 62.4759C37.8047 62.4177 37.8141 62.3555 37.8749 62.2309C37.9824 62.0193 38.1928 61.8657 38.4735 61.7869C38.7306 61.7163 39.1421 61.6582 39.1421 61.6956C39.1421 61.708 39.0861 61.791 39.0205 61.8782C38.8382 62.1272 38.4875 62.8992 38.1134 63.8745C37.655 65.074 37.5148 65.3811 37.4259 65.3479C36.991 65.2027 36.7198 65.24 36.5655 65.4683C36.4579 65.626 36.4532 65.7464 36.5467 65.9083C36.6356 66.0577 36.7479 66.1158 36.977 66.1241C37.2014 66.1282 37.3511 66.0909 37.5335 65.9663C37.6691 65.8792 37.6878 65.8751 37.8702 65.9331C38.9224 66.2527 39.9184 65.9373 40.5778 65.0782C41.3447 64.0738 41.4383 62.7082 40.7882 61.9446C40.3393 61.4216 39.7127 61.2183 38.8148 61.3055ZM40.0494 61.8782C40.344 62.0151 40.5638 62.2808 40.6901 62.6418C40.8911 63.2187 40.7369 64.0904 40.3253 64.6963C40.0868 65.0449 39.694 65.3894 39.3806 65.5222C39.1609 65.6177 39.058 65.6343 38.7213 65.6343C38.2349 65.6343 37.9029 65.5596 37.945 65.46C37.959 65.4226 38.0946 65.0699 38.2536 64.6838C38.4079 64.2937 38.6418 63.7127 38.768 63.389C39.044 62.6917 39.3152 62.1604 39.4882 61.9778C39.5537 61.9072 39.6098 61.8201 39.6098 61.7786C39.6098 61.6956 39.7174 61.7204 40.0494 61.8782ZM37.0845 65.7007C37.0845 65.7215 37.0518 65.7422 37.0144 65.7422C36.977 65.7422 36.9443 65.7215 36.9443 65.7007C36.9443 65.6758 36.977 65.6593 37.0144 65.6593C37.0518 65.6593 37.0845 65.6758 37.0845 65.7007Z" fill="#013600"/>
<path d="M57.0812 61.3057C56.2722 61.4011 55.6409 61.9241 55.711 62.447C55.7344 62.6629 55.8092 62.7541 55.9541 62.7541C56.1038 62.7541 56.1786 62.6545 56.1506 62.4968C56.0945 62.1357 56.4686 61.8204 57.0765 61.7207C57.2261 61.6958 57.3665 61.6751 57.3898 61.6751C57.4553 61.6751 57.4319 61.7539 57.3103 61.9158C57.1373 62.1482 56.8427 62.7956 56.4405 63.8374C56.1459 64.6052 55.856 65.3108 55.8185 65.3564C55.8139 65.3605 55.7017 65.3356 55.566 65.3024C55.2667 65.2236 55.1218 65.2484 54.944 65.4104C54.7523 65.5763 54.7523 65.8254 54.944 65.9955C55.0563 66.0951 55.1218 66.1159 55.2995 66.1159C55.5239 66.1159 55.8045 66.0329 55.9401 65.9208C55.9962 65.8752 56.0383 65.8669 56.0804 65.896C56.1506 65.9457 56.5013 66.0163 56.8427 66.0536C57.1513 66.0868 57.6891 65.9872 57.9931 65.8378C58.6712 65.5099 59.2885 64.6674 59.4708 63.8166C59.5643 63.3808 59.5316 62.7832 59.396 62.4429C59.195 61.9448 58.7834 61.5547 58.2784 61.3846C57.9978 61.2891 57.4927 61.2559 57.0812 61.3057ZM58.3204 61.8452C58.5589 61.949 58.8536 62.2644 58.9798 62.5425C59.1154 62.8496 59.1294 63.5593 59.0032 63.937C58.7507 64.6716 58.269 65.2609 57.7172 65.5016C57.4459 65.622 57.3618 65.6386 57.0297 65.6386C56.824 65.6386 56.5574 65.6137 56.4405 65.5846L56.2207 65.5266L56.3283 65.2941C56.3891 65.1614 56.6088 64.6094 56.8193 64.0615C57.343 62.6919 57.6237 62.115 57.8247 61.9656C57.8622 61.9365 57.8949 61.8701 57.8949 61.8162C57.8949 61.729 57.9089 61.7166 58.0259 61.7415C58.0959 61.758 58.2269 61.8037 58.3204 61.8452ZM55.393 65.7009C55.407 65.7216 55.3789 65.7424 55.3275 65.7424C55.2714 65.7424 55.2293 65.7216 55.2293 65.7009C55.2293 65.676 55.2574 65.6593 55.2948 65.6593C55.3322 65.6593 55.3789 65.676 55.393 65.7009Z" fill="#013600"/>
<path d="M53.195 61.4467C52.9238 61.6916 52.5824 62.3598 52.096 63.5883C51.8855 64.1279 51.8528 64.1818 51.4038 64.7089C51.1467 65.0161 50.8287 65.3564 50.6977 65.4684C50.4919 65.6469 50.4592 65.6635 50.4311 65.5971C50.3751 65.4726 50.4967 65.0534 50.6884 64.7131C50.7819 64.5346 50.9175 64.2648 50.9877 64.1071C51.1093 63.8457 51.1139 63.8166 51.0438 63.7253C50.9549 63.6049 50.8053 63.5675 50.5107 63.5925C50.001 63.6381 49.4211 64.0116 48.9861 64.5803C48.771 64.8625 48.5466 65.0783 48.598 64.9538C48.612 64.9205 48.7243 64.6674 48.8411 64.3935C48.9627 64.1237 49.0563 63.8498 49.0469 63.7958C49.0283 63.6422 48.8505 63.5759 48.5185 63.5966C47.9293 63.634 47.4008 64.0033 46.8162 64.7878C46.5357 65.1613 46.1335 65.5763 46.054 65.5763C45.9885 65.5763 46.0119 65.4726 46.1382 65.153C46.2084 64.987 46.3112 64.7214 46.372 64.5636C46.5965 63.9951 46.4796 63.6672 46.0634 63.6672C45.8295 63.6672 45.6471 63.746 45.3853 63.9618L45.1841 64.1279L45.1514 64.0075C45.1374 63.9411 45.072 63.8415 45.0112 63.7917C44.9176 63.7128 44.8615 63.7004 44.7025 63.7211C44.4453 63.7501 44.1881 63.9743 43.5708 64.7047C43.0143 65.3647 42.6682 65.6925 42.5934 65.6261C42.5046 65.5473 42.6308 65.1488 42.9301 64.5553C43.2528 63.9162 43.2902 63.8 43.2014 63.6921C43.1125 63.5925 42.7711 63.5593 42.4672 63.6257C41.6347 63.8 40.7322 64.875 40.8444 65.5473C40.9146 65.954 41.3308 66.145 41.7423 65.9582C41.8452 65.9125 41.9574 65.842 41.9901 65.8088C42.0603 65.734 42.1819 65.7216 42.1819 65.7839C42.1819 65.8088 42.238 65.8751 42.3035 65.9291C42.4017 66.008 42.4812 66.0329 42.6449 66.0329C42.8459 66.0329 42.874 66.0204 43.1873 65.7299C43.3697 65.5681 43.7064 65.207 43.9356 64.933C44.4313 64.3478 44.6557 64.1154 44.7072 64.1445C44.7773 64.1818 44.6417 64.5844 44.3284 65.2526C44.0758 65.7922 44.0525 65.925 44.1974 65.9914C44.3564 66.0702 44.4967 65.9457 44.7306 65.5266C45.1655 64.7463 45.7547 64.0822 46.0026 64.0822C46.0961 64.0822 46.0587 64.2151 45.7968 64.8417C45.6799 65.1198 45.577 65.4435 45.563 65.5639C45.5396 65.7548 45.549 65.788 45.6565 65.8835C45.8342 66.0412 46.082 66.0287 46.3486 65.8586C46.4608 65.788 46.5637 65.7133 46.5684 65.6925C46.6012 65.622 46.7087 65.6635 46.7368 65.7631C46.7695 65.8751 47.0126 66.0329 47.1576 66.0329C47.2231 66.0329 47.1717 66.1034 46.9612 66.3027C46.5637 66.6803 46.3346 67.1079 46.3065 67.527C46.2784 67.9878 46.4141 68.1911 46.7601 68.1911C47.1155 68.1911 47.3634 67.8217 47.9807 66.3733C48.1631 65.9499 48.2052 65.8918 48.4203 65.7257L48.6635 65.5431L48.743 65.7175C48.8365 65.9125 49.0235 66.0329 49.2387 66.0329C49.4211 66.0329 49.6969 65.9333 49.8373 65.8171L49.9402 65.7299L50.0991 65.8835C50.4078 66.174 50.7725 66.0578 51.2682 65.5141C51.3898 65.3771 51.5067 65.2609 51.5254 65.2526C51.5488 65.2484 51.5535 65.3066 51.5442 65.3855C51.5161 65.5888 51.6845 65.8835 51.8622 65.9499C52.0913 66.0329 52.269 65.9665 52.6057 65.6635C53.0406 65.2776 53.3587 64.8998 53.3587 64.7712C53.3587 64.6965 53.3212 64.6467 53.2417 64.6135C53.1014 64.5595 53.0219 64.6093 52.746 64.9414C52.5449 65.182 52.1147 65.5763 52.0539 65.5763C51.9884 65.5763 51.9651 65.3813 52.0071 65.1696C52.1147 64.63 52.2503 64.3644 52.7601 63.6838C53.7094 62.4138 53.9152 62.0609 53.9198 61.7082C53.9198 61.4177 53.8123 61.3014 53.5363 61.3014C53.4007 61.3014 53.3259 61.3305 53.195 61.4467ZM53.3119 62.1606C53.1014 62.505 53.0313 62.5964 53.0313 62.5134C53.0313 62.4553 53.3399 61.8908 53.4195 61.8036C53.5504 61.6667 53.4849 61.8618 53.3119 62.1606ZM42.6495 64.0324C42.6495 64.0822 42.2473 64.8915 42.1538 65.0202C41.7937 65.5349 41.3401 65.788 41.2794 65.5099C41.1998 65.1323 41.7891 64.3478 42.3315 64.1071C42.5887 63.9951 42.6495 63.9784 42.6495 64.0324ZM48.5418 64.02C48.5418 64.0988 48.0368 64.9455 47.8591 65.1655C47.1904 65.9872 46.7695 65.5888 47.4055 64.7379C47.6393 64.4225 47.9152 64.1901 48.1912 64.0822C48.3689 64.0075 48.5418 63.9784 48.5418 64.02ZM50.4919 64.049C50.4779 64.078 50.4031 64.2358 50.3283 64.3935C50.0383 65.0077 49.7625 65.3896 49.5052 65.5349C49.1685 65.7175 49.0376 65.5888 49.1685 65.1945C49.2574 64.9123 49.4445 64.6591 49.7531 64.3852C50.057 64.1195 50.5715 63.883 50.4919 64.049ZM47.2559 66.9543C47.0361 67.4316 46.8209 67.776 46.7461 67.776C46.6573 67.776 46.7508 67.3195 46.8958 67.0622C47.0548 66.7841 47.4289 66.3649 47.4569 66.4396C47.4663 66.4645 47.3727 66.6928 47.2559 66.9543Z" fill="#013600"/>
<path d="M12.3881 62.2393C11.8877 62.5506 11.2236 62.9656 10.9056 63.1607C10.5502 63.3806 10.3397 63.5384 10.3537 63.5716C10.3865 63.6421 11.1254 64.5718 11.1675 64.5967C11.1862 64.605 11.6445 64.4638 12.1823 64.2812C13.4216 63.8662 13.3608 63.8786 13.2766 63.9865C13.2392 64.0322 12.9165 64.3725 12.5564 64.7419C12.1963 65.1154 11.9017 65.4516 11.9064 65.489C11.9064 65.5719 12.6219 66.4891 12.706 66.5183C12.7949 66.5514 15.7224 64.7046 15.6943 64.634C15.6523 64.5344 15.2407 64.0405 15.1986 64.0405C15.1799 64.0405 14.6702 64.3477 14.0716 64.7211C13.4683 65.0946 12.968 65.3935 12.9586 65.3852C12.9492 65.381 13.3281 64.9743 13.8004 64.4888C14.268 64.0032 14.6842 63.5716 14.7216 63.5342C14.7777 63.4719 14.7637 63.4346 14.558 63.1731C14.4364 63.0112 14.3148 62.8826 14.2867 62.8785C14.2493 62.8785 12.1028 63.5923 11.7193 63.7334C11.448 63.8289 12.0747 63.4221 13.5245 62.5465C13.6975 62.4427 13.8378 62.3347 13.8425 62.3057C13.8425 62.2435 13.3841 61.6748 13.3327 61.6748C13.3093 61.6748 12.8838 61.928 12.3881 62.2393Z" fill="#013600"/>
<path d="M28.3163 62.3638C28.176 62.4966 28.1667 62.6708 28.2836 62.7663C28.4706 62.9198 28.7606 62.7829 28.7606 62.5464C28.7606 62.4136 28.6202 62.2559 28.5033 62.2559C28.4613 62.2559 28.3771 62.3057 28.3163 62.3638Z" fill="#013600"/>
<path d="M80.9078 63.6007C80.7257 63.8124 80.5762 64.0033 80.5762 64.0157C80.5762 64.0323 80.6509 64.1319 80.7395 64.2356C80.8287 64.3394 80.9034 64.4474 80.9034 64.4681C80.9034 64.493 80.8236 64.5968 80.7257 64.7005C80.6321 64.8042 80.4587 64.9993 80.3469 65.1279C80.2345 65.2608 80.1176 65.3687 80.0799 65.3687C80.0473 65.3687 79.9116 65.3313 79.781 65.2857C79.6497 65.24 79.5379 65.2026 79.5285 65.2026C79.5191 65.2026 79.009 65.7713 78.8363 65.9787C78.808 66.0119 78.9531 66.0701 79.3456 66.178C79.6497 66.2609 79.9493 66.3439 80.0146 66.3647C80.0799 66.3813 80.3513 66.4602 80.6226 66.5307C80.894 66.6054 81.3054 66.7175 81.5347 66.7797C81.7683 66.8461 82.0955 66.9374 82.269 66.9789L82.5824 67.062L82.9611 66.6303L83.3399 66.1987L82.6288 65.1695C82.2407 64.605 81.843 64.0323 81.7451 63.8954C81.6515 63.7584 81.502 63.5467 81.4222 63.4263C81.3381 63.3102 81.2633 63.2106 81.2539 63.2106C81.2495 63.2106 81.095 63.3849 80.9078 63.6007ZM81.8104 65.5887C82.0114 65.8377 82.1659 66.0451 82.1521 66.0576C82.1282 66.0783 80.997 65.7131 80.9404 65.6634C80.9216 65.6509 81.0152 65.5098 81.1465 65.3562C81.2771 65.2026 81.399 65.0906 81.4179 65.1072C81.4316 65.1238 81.6138 65.3437 81.8104 65.5887Z" fill="#013600"/>
<path d="M33.4602 63.6419C33.0301 63.7623 32.67 64.0155 32.3286 64.443C32.062 64.775 31.7627 65.0323 31.6411 65.0364C31.5663 65.0364 31.5569 65.0157 31.5849 64.8705C31.599 64.7791 31.6645 64.6048 31.7253 64.4886C32.0058 63.9408 32.0386 63.8121 31.931 63.7166C31.8562 63.6502 31.6832 63.6544 31.6224 63.7166C31.599 63.7457 31.5008 63.9366 31.4073 64.14C31.1735 64.638 31.0332 64.887 30.8087 65.1858C30.631 65.4225 30.3878 65.6175 30.2662 65.6175C30.1072 65.6175 30.285 64.9535 30.6357 64.2313C30.7339 64.0279 30.818 63.837 30.818 63.808C30.818 63.7333 30.6403 63.6295 30.5468 63.6544C30.5047 63.6627 30.313 63.9117 30.1259 64.2064C29.6349 64.9784 29.0784 65.6175 28.896 65.6175C28.7978 65.6175 28.8866 65.3353 29.2561 64.4596C29.4992 63.891 29.5086 63.8578 29.4385 63.7623C29.3169 63.6005 29.1813 63.6544 28.9755 63.9366C28.765 64.2189 27.9467 65.19 27.7315 65.4058C27.6567 65.4847 27.5772 65.5345 27.5585 65.5179C27.5118 65.4764 27.769 64.8165 28.0356 64.2894C28.2647 63.837 28.274 63.7249 28.0729 63.6834C27.9327 63.6502 27.9046 63.671 27.4276 64.2271C26.3894 65.4349 26.1415 65.7378 26.1415 65.796C26.1415 65.8831 26.2678 65.991 26.3754 65.991C26.4783 65.991 26.4783 65.991 26.8524 65.5428C27.0067 65.3561 27.1423 65.2067 27.147 65.2108C27.1563 65.2191 27.1377 65.327 27.1142 65.4515C27.0301 65.8499 27.2218 66.0907 27.5632 66.016C27.7082 65.9828 28.1618 65.6175 28.2927 65.4266C28.3489 65.3478 28.4097 65.2855 28.4284 65.2855C28.447 65.2855 28.4517 65.3934 28.4424 65.522C28.4284 65.7213 28.4424 65.7835 28.5219 65.8748C28.7417 66.1197 29.1111 66.0492 29.5086 65.6839C29.6208 65.5802 29.7284 65.5055 29.7518 65.5179C29.7752 65.5304 29.7799 65.5552 29.7658 65.576C29.7144 65.6507 29.8781 65.9039 30.0184 65.9661C30.2054 66.0533 30.285 66.0492 30.5702 65.9329C30.7479 65.8582 30.8742 65.7628 31.0332 65.5802C31.1548 65.439 31.2576 65.327 31.2623 65.327C31.267 65.327 31.3371 65.3561 31.4213 65.3934C31.5195 65.4349 31.6271 65.4515 31.7253 65.4349C31.8796 65.41 31.8842 65.41 31.9123 65.5802C31.9591 65.8292 32.1976 66.0325 32.4408 66.0325C32.6372 66.0325 32.9599 65.9163 33.0581 65.8126C33.1282 65.7337 33.2498 65.7171 33.2498 65.7835C33.2498 65.8084 33.3013 65.8748 33.3667 65.9288C33.4977 66.0492 33.7408 66.0657 33.9419 65.9745C34.2132 65.8458 35.0269 64.9742 35.0269 64.8082C35.0269 64.6962 34.9427 64.6215 34.8165 64.6215C34.751 64.6215 34.6013 64.7542 34.3301 65.0572C33.8951 65.5428 33.6894 65.7088 33.6427 65.6009C33.5959 65.4888 33.7268 65.0697 33.9372 64.6671C34.2506 64.0695 34.3348 63.866 34.3067 63.7665C34.2552 63.5963 33.8391 63.534 33.4602 63.6419ZM33.6941 64.0777C33.5912 64.3765 33.2685 64.9576 33.0861 65.1858C32.857 65.4681 32.6465 65.6175 32.4688 65.6175C32.3707 65.6175 32.3613 65.5968 32.3613 65.4058C32.3613 65.2689 32.4034 65.1195 32.4828 64.97C32.6465 64.6588 33.1189 64.2189 33.4135 64.0985C33.6987 63.9781 33.7315 63.9781 33.6941 64.0777Z" fill="#013600"/>
<path d="M67.2899 63.659C67.1449 63.7254 67.1076 63.7295 67.0327 63.6798C66.986 63.6507 66.9299 63.6258 66.9064 63.6258C66.8223 63.6258 66.3734 64.045 66.2377 64.2566C66.1582 64.377 65.9993 64.6177 65.887 64.7879C65.7748 64.958 65.569 65.207 65.4287 65.3357C65.0312 65.7134 65.0078 65.6636 65.2884 65.0079C65.5409 64.4019 65.6157 64.1197 65.5596 63.9371C65.4427 63.5677 64.9377 63.576 64.4887 63.9536C64.3765 64.045 64.2829 64.1239 64.2783 64.1239C64.2689 64.1239 64.2549 64.0699 64.2408 63.9993C64.1801 63.7378 63.8948 63.6341 63.6095 63.7669C63.4318 63.8499 63.1325 64.1446 62.6556 64.7049C62.2534 65.1822 61.7998 65.6138 61.753 65.5681C61.7296 65.5474 62.1458 64.4476 62.3095 64.1072C62.4171 63.8789 62.4031 63.7627 62.2674 63.6839C62.1552 63.6175 62.1411 63.6216 62.057 63.688C62.0102 63.7254 61.8793 63.908 61.7764 64.0906C61.4911 64.5762 60.972 65.2444 60.7289 65.4436C60.5278 65.6054 60.4202 65.6594 60.4202 65.5847C60.4202 65.4975 60.5792 65.0743 60.8131 64.5264C60.958 64.1861 61.0749 63.8748 61.0749 63.8374C61.0749 63.7378 60.9814 63.6673 60.8551 63.6673C60.771 63.6673 60.6962 63.7378 60.5325 63.9661C60.3314 64.2442 59.8216 64.8708 59.3119 65.4602C59.1014 65.7009 59.0594 65.8627 59.181 65.9499C59.3119 66.0454 59.4569 65.9583 59.7328 65.6179C59.8871 65.4353 60.0133 65.2859 60.0227 65.2859C60.0321 65.2859 60.0274 65.398 60.0133 65.5307C59.99 65.7673 59.9947 65.788 60.1303 65.9043C60.3688 66.1201 60.6821 66.0495 61.089 65.6926L61.3088 65.4975V65.6636C61.3088 65.7839 61.3415 65.8586 61.4256 65.9292C61.7437 66.2156 62.1786 65.9333 63.1185 64.8294C63.5909 64.2691 63.7499 64.1155 63.7966 64.157C63.8574 64.2109 63.7124 64.6343 63.4272 65.2319C63.1653 65.788 63.1373 65.9499 63.2962 66.008C63.4506 66.0578 63.5815 65.9416 63.82 65.5225C64.3297 64.6343 64.9658 63.9495 65.1341 64.103C65.1528 64.1197 65.0733 64.3562 64.9658 64.6343C64.5963 65.5515 64.5682 65.73 64.7693 65.9084C64.9658 66.0827 65.4708 65.9458 65.7373 65.6428C65.8496 65.5225 65.8917 65.5059 65.8917 65.5972C65.8917 65.6304 65.9571 65.7217 66.0366 65.8005C66.2985 66.0662 66.7147 66.0412 67.0841 65.7383C67.2619 65.593 67.304 65.5764 67.5377 65.5764C67.9586 65.5764 68.1363 65.4478 68.8097 64.6426C68.922 64.5056 69.0903 64.3272 69.1839 64.2525L69.3522 64.1072V64.2151C69.3522 64.3479 69.1371 64.9041 68.8799 65.4228C68.6928 65.813 68.6835 65.9167 68.8425 65.9915C68.9921 66.0662 69.095 65.9748 69.3289 65.5681C69.8152 64.7297 70.3764 64.0823 70.6242 64.0823C70.7224 64.0823 70.713 64.157 70.5541 64.5139C70.3437 65.0079 70.194 65.4643 70.194 65.6179C70.194 66.0371 70.7084 66.1201 71.1152 65.7757C71.1995 65.7009 71.2743 65.6511 71.2836 65.6636C71.293 65.6719 71.3444 65.7383 71.4052 65.813C71.4613 65.8877 71.5782 65.9666 71.6624 65.9956L71.8214 66.0454L71.5688 66.311C71.2602 66.6347 71.1199 66.8505 70.9937 67.1826C70.7832 67.747 70.9562 68.1911 71.3912 68.1911C71.7279 68.1911 72.0085 67.7802 72.5556 66.5019C72.8033 65.9251 72.841 65.8628 73.0093 65.759C73.248 65.6096 73.7479 65.1323 73.8648 64.9455C73.954 64.7961 73.954 64.7879 73.8648 64.709C73.7342 64.5762 73.6362 64.6011 73.4207 64.8169C73.1914 65.0535 73.1965 65.0286 73.4954 64.348C73.6079 64.0948 73.7015 63.8457 73.7015 63.8001C73.7015 63.5552 73.1029 63.5095 72.6255 63.7171C72.2329 63.8872 71.9196 64.1653 71.5268 64.68C71.1527 65.1738 70.7645 65.5764 70.671 65.5764C70.5961 65.5764 70.6289 65.4685 70.8767 64.8626C71.176 64.1529 71.1947 63.9288 70.9796 63.7503C70.7645 63.576 70.3483 63.6673 70.0256 63.9578C69.8152 64.1487 69.7731 64.1612 69.7731 64.0242C69.7731 63.8541 69.6047 63.7088 69.4083 63.7088C69.1137 63.7088 68.894 63.8789 68.3234 64.5596C68.0288 64.9124 67.7295 65.1863 67.6827 65.1448C67.6734 65.1365 67.7202 65.012 67.7903 64.8667C67.9493 64.5306 67.9961 64.0367 67.8885 63.8499C67.7482 63.6051 67.5471 63.5428 67.2899 63.659ZM73.0231 64.3147C72.6821 64.9787 72.3124 65.4478 72.0412 65.564C71.8167 65.6594 71.7372 65.6179 71.7372 65.4021C71.7372 65.0037 72.2843 64.323 72.7757 64.1072C73.182 63.9246 73.2103 63.9495 73.0231 64.3147ZM67.5191 64.2815C67.4863 64.5679 67.2759 64.9788 67.2244 64.8585C67.1824 64.7671 67.2759 64.3147 67.3694 64.157C67.4817 63.962 67.5425 64.0159 67.5191 64.2815ZM66.8176 64.5098C66.7708 64.7837 66.7755 64.8626 66.8456 65.0826C66.9345 65.3648 66.9158 65.4104 66.682 65.5183C66.4669 65.6138 66.3734 65.593 66.3126 65.4311C66.2237 65.1905 66.4201 64.655 66.7241 64.2981C66.7895 64.2234 66.8456 64.1695 66.8597 64.1778C66.8691 64.1861 66.8503 64.3355 66.8176 64.5098ZM71.9243 66.863C71.6344 67.5063 71.466 67.776 71.3537 67.776C71.2743 67.776 71.3724 67.3403 71.5034 67.0913C71.6296 66.8588 72.0505 66.3815 72.0973 66.4189C72.1066 66.4314 72.0272 66.6306 71.9243 66.863Z" fill="#013600"/>
<path d="M15.9328 65.3814C15.8393 65.5433 15.6148 65.9209 15.4418 66.2197C15.2641 66.5144 14.9695 67.0208 14.7777 67.3403C14.5907 67.6599 14.3943 67.9836 14.3475 68.0542L14.2587 68.1911L14.6656 68.6061C14.89 68.8344 15.0817 69.0211 15.0864 69.0211C15.0958 69.0211 15.6569 68.8344 16.3304 68.602C17.0084 68.3737 17.8128 68.1039 18.1214 68.0002C18.4301 67.8965 18.7013 67.7969 18.7247 67.7761C18.7715 67.7346 18.07 67.029 17.9858 67.029C17.9577 67.029 17.8315 67.0747 17.7052 67.1328C17.5789 67.1868 17.4527 67.2199 17.4246 67.2075C17.3545 67.1784 16.653 66.4688 16.6203 66.39C16.6062 66.3526 16.6577 66.2322 16.7372 66.116C16.8167 65.9998 16.8822 65.896 16.8822 65.8836C16.8822 65.867 16.7326 65.7051 16.5454 65.5183C16.3631 65.3357 16.1854 65.1573 16.1573 65.1324C16.1199 65.0909 16.0638 65.1531 15.9328 65.3814ZM16.6483 67.5313C16.6483 67.5645 15.4839 68.0417 15.4558 68.0168C15.4325 67.996 15.5868 67.7636 16.0264 67.1411L16.1386 66.9834L16.3912 67.2449C16.5314 67.3901 16.6483 67.5188 16.6483 67.5313Z" fill="#013600"/>
<path d="M77.9569 66.8046L77.5593 67.1615L78.1115 67.6263L78.6636 68.0912L78.5417 68.1907C78.3778 68.3277 78.2189 68.3194 77.3961 68.116L76.7177 67.9459L76.2874 68.3485C76.0211 68.5975 75.8811 68.7594 75.9137 68.7759C75.9464 68.7926 76.2221 68.8714 76.5355 68.9544C77.1153 69.1079 77.5455 69.1453 77.7284 69.0623C77.8358 69.0084 77.8358 69.0125 77.7422 69.2117C77.6906 69.3196 77.6718 69.4566 77.6863 69.6517C77.7001 69.8882 77.7233 69.9546 77.8452 70.0874C78.163 70.436 78.5185 70.5564 78.9299 70.4527C79.1824 70.3904 79.2434 70.3448 80.1271 69.5479L81.0529 68.7137L80.8287 68.5269C80.347 68.1368 78.4481 66.5099 78.4344 66.4767C78.4017 66.4144 78.3451 66.4559 77.9569 66.8046ZM79.4255 68.7344C79.5706 68.8548 79.6874 68.971 79.6874 69C79.6874 69.0582 79.2434 69.4441 79.0845 69.5147C79.0003 69.5562 78.9488 69.5562 78.8414 69.5147C78.5933 69.4276 78.5374 69.191 78.7151 68.9668C78.7993 68.8548 79.1265 68.5228 79.1541 68.5228C79.1592 68.5228 79.2804 68.6183 79.4255 68.7344Z" fill="#013600"/>
<path d="M19.8284 69.4524C19.5853 69.6932 19.3748 69.8882 19.3608 69.8882C19.3467 69.8882 19.1784 69.7596 18.9866 69.6018C18.2711 69.0124 17.7052 68.9419 17.1675 69.3777C16.8775 69.606 16.7372 69.8467 16.7278 70.1082C16.7186 70.4859 16.8401 70.6395 17.7567 71.4115L18.5798 72.1002L18.7762 71.9179C18.8838 71.8182 19.4589 71.2786 20.0529 70.7184L21.1285 69.6973L20.731 69.3694C20.5112 69.1909 20.3147 69.0374 20.3007 69.0332C20.2867 69.0249 20.0716 69.2158 19.8284 69.4524ZM18.4021 70.0543C18.4816 70.0999 18.6125 70.1912 18.6967 70.2534L18.851 70.3738L18.5564 70.6519L18.2618 70.9342L18.0373 70.7391C17.9157 70.6312 17.8035 70.4984 17.7894 70.4444C17.7473 70.295 17.8596 70.0958 18.0233 70.0335C18.215 69.9588 18.2384 69.9629 18.4021 70.0543Z" fill="#013600"/>
<path d="M55.6269 76.1427C54.8318 76.2882 54.1585 76.4164 54.1304 76.4251C54.1023 76.433 54.0929 76.6534 54.1117 77.0352C54.1304 77.363 54.1444 77.8614 54.1491 78.1395C54.1491 78.4175 54.1631 78.666 54.1771 78.6992C54.1958 78.741 54.2893 78.7532 54.5419 78.7453C55.2528 78.7157 55.3463 78.6992 55.4352 78.5623C55.6082 78.3052 56.1273 78.1928 56.4266 78.3549C56.6745 78.4881 56.8615 78.9736 56.7914 79.3014C56.7259 79.6003 56.3284 79.8287 55.9964 79.7538C55.8701 79.7249 55.6784 79.5751 55.552 79.4008L55.482 79.3014L54.8646 79.4757C54.5232 79.5708 54.2473 79.6623 54.2473 79.6788C54.2473 79.7617 54.5279 80.0938 54.6822 80.1975C55.047 80.4467 55.2528 80.4964 55.8373 80.4928C56.9598 80.4885 57.7314 80.0981 57.9933 79.4094C58.1336 79.0313 58.1055 78.5213 57.9231 78.2057C57.5116 77.4753 56.5669 77.2549 55.6503 77.6698L55.3369 77.811L55.3089 77.5121C55.2948 77.3507 55.2995 77.2052 55.3183 77.1886C55.3369 77.1677 55.7157 77.0892 56.1647 77.01C57.3199 76.8068 57.3807 76.7903 57.3807 76.6822C57.3713 76.4582 57.2029 75.8899 57.1421 75.8812C57.1048 75.8769 56.4266 75.9972 55.6269 76.1427Z" fill="#013600"/>
<path d="M41.4196 76.4294C41.139 76.7406 40.2645 77.1144 39.8203 77.1144C39.6379 77.1144 39.6613 77.0727 39.521 77.6828L39.4368 78.0689H39.549C39.7501 78.0689 40.3347 77.9486 40.6386 77.8405C40.8023 77.7822 40.9379 77.7411 40.9426 77.7491C40.9473 77.7534 40.8117 78.3801 40.6386 79.1393C40.4657 79.8986 40.3393 80.5253 40.3534 80.5339C40.4001 80.5591 41.63 80.7745 41.6394 80.7579C41.6721 80.7205 42.6027 76.5209 42.584 76.5C42.57 76.4913 42.3315 76.4373 42.0509 76.3876L41.5365 76.2969L41.4196 76.4294Z" fill="#013600"/>
<path d="M50.7399 76.7651C50.492 76.7946 49.987 76.948 49.8046 77.0518C49.2107 77.3882 49.019 77.865 49.0704 78.8577C49.0891 79.2099 49.1359 79.5089 49.2154 79.7869C49.4212 80.5008 49.683 80.8328 50.2208 81.0698C50.492 81.1858 50.5528 81.1981 50.969 81.1945C51.7547 81.1901 52.3392 80.9949 52.6665 80.6297C52.9471 80.3099 53.0079 80.0736 53.0079 79.2726C53.0032 78.5213 52.919 78.0898 52.6712 77.6036C52.5169 77.2967 52.1053 76.9437 51.7827 76.8486C51.5489 76.778 51.0205 76.7363 50.7399 76.7651ZM51.2449 77.6705C51.4974 77.8694 51.6377 78.3095 51.7219 79.1602C51.7874 79.8496 51.7079 80.1651 51.4179 80.3351C51.273 80.4179 50.9643 80.3927 50.8334 80.289C50.5715 80.0815 50.3704 79.2892 50.3658 78.4795C50.3658 77.8405 50.4499 77.6576 50.7726 77.5704C50.9457 77.5294 51.114 77.5625 51.2449 77.6705Z" fill="#013600"/>
<path d="M45.2637 76.9192C44.768 77.0438 44.3611 77.3637 44.1975 77.7534C43.9309 78.3923 44.0806 79.0154 44.595 79.4347C44.913 79.6918 45.2403 79.7869 45.708 79.7624C46.0447 79.7415 46.2832 79.6623 46.4703 79.5088C46.531 79.4635 46.5872 79.4347 46.6059 79.4469C46.6526 79.488 46.4375 80.1939 46.3346 80.343C46.0728 80.7212 45.4882 80.6463 45.3853 80.2227L45.3526 80.0981L44.9036 80.1233C44.2395 80.1608 44.0525 80.1852 44.0525 80.2393C44.0525 80.3264 44.2676 80.7003 44.3986 80.8372C44.7025 81.157 45.2918 81.327 46.0167 81.2975C46.5872 81.273 46.9098 81.1649 47.2559 80.8825C47.775 80.4633 48.0041 79.7869 47.9714 78.7784C47.9574 78.3347 47.9293 78.164 47.8545 77.9731C47.644 77.471 47.2606 77.1353 46.7274 76.9898C46.33 76.8775 45.5677 76.8443 45.2637 76.9192ZM46.2177 77.6497C46.5357 77.7577 46.7181 78.1474 46.6293 78.5256C46.5357 78.9117 46.3393 79.0651 45.9418 79.0651C45.7595 79.0651 45.7033 79.0442 45.5724 78.9283C45.3058 78.6913 45.2544 78.2684 45.4461 77.9068C45.577 77.6619 45.9138 77.5502 46.2177 77.6497Z" fill="#013600"/>
</g>
<path d="M117.6 56L117.57 43.4L111.39 53.78H109.2L103.05 43.67V56H98.49V35H102.51L110.37 48.05L118.11 35H122.1L122.16 56H117.6ZM146.402 35V56H141.542V47.39H132.002V56H127.142V35H132.002V43.28H141.542V35H146.402ZM160.461 35C162.321 35 163.931 35.31 165.291 35.93C166.671 36.55 167.731 37.43 168.471 38.57C169.211 39.71 169.581 41.06 169.581 42.62C169.581 44.16 169.211 45.51 168.471 46.67C167.731 47.81 166.671 48.69 165.291 49.31C163.931 49.91 162.321 50.21 160.461 50.21H156.231V56H151.371V35H160.461ZM160.191 46.25C161.651 46.25 162.761 45.94 163.521 45.32C164.281 44.68 164.661 43.78 164.661 42.62C164.661 41.44 164.281 40.54 163.521 39.92C162.761 39.28 161.651 38.96 160.191 38.96H156.231V46.25H160.191ZM192.311 35V56H188.321L177.851 43.25V56H173.051V35H177.071L187.511 47.75V35H192.311ZM216.539 35V56H211.679V47.39H202.139V56H197.279V35H202.139V43.28H211.679V35H216.539ZM228.408 56.36C226.748 56.36 225.138 56.14 223.578 55.7C222.038 55.24 220.798 54.65 219.858 53.93L221.508 50.27C222.408 50.93 223.478 51.46 224.718 51.86C225.958 52.26 227.198 52.46 228.438 52.46C229.818 52.46 230.838 52.26 231.498 51.86C232.158 51.44 232.488 50.89 232.488 50.21C232.488 49.71 232.288 49.3 231.888 48.98C231.508 48.64 231.008 48.37 230.388 48.17C229.788 47.97 228.968 47.75 227.928 47.51C226.328 47.13 225.018 46.75 223.998 46.37C222.978 45.99 222.098 45.38 221.358 44.54C220.638 43.7 220.278 42.58 220.278 41.18C220.278 39.96 220.608 38.86 221.268 37.88C221.928 36.88 222.918 36.09 224.238 35.51C225.578 34.93 227.208 34.64 229.128 34.64C230.468 34.64 231.778 34.8 233.058 35.12C234.338 35.44 235.458 35.9 236.418 36.5L234.918 40.19C232.978 39.09 231.038 38.54 229.098 38.54C227.738 38.54 226.728 38.76 226.068 39.2C225.428 39.64 225.108 40.22 225.108 40.94C225.108 41.66 225.478 42.2 226.218 42.56C226.978 42.9 228.128 43.24 229.668 43.58C231.268 43.96 232.578 44.34 233.598 44.72C234.618 45.1 235.488 45.7 236.208 46.52C236.948 47.34 237.318 48.45 237.318 49.85C237.318 51.05 236.978 52.15 236.298 53.15C235.638 54.13 234.638 54.91 233.298 55.49C231.958 56.07 230.328 56.36 228.408 56.36Z" fill="#043803"/>
<path d="M103.66 64H102.812V61.0425H99.5864V64H98.7427V57.6016H99.5864V60.3525H102.812V57.6016H103.66V64ZM111.431 61.0073C111.431 61.6343 111.325 62.1821 111.114 62.6509C110.903 63.1167 110.604 63.4727 110.218 63.7188C109.831 63.9648 109.38 64.0879 108.864 64.0879C108.36 64.0879 107.913 63.9648 107.524 63.7188C107.134 63.4697 106.831 63.1167 106.614 62.6597C106.4 62.1997 106.29 61.668 106.285 61.0645V60.603C106.285 59.9878 106.392 59.4443 106.605 58.9727C106.819 58.501 107.121 58.1406 107.511 57.8916C107.903 57.6396 108.351 57.5137 108.855 57.5137C109.368 57.5137 109.819 57.6382 110.209 57.8872C110.601 58.1333 110.903 58.4922 111.114 58.9639C111.325 59.4326 111.431 59.979 111.431 60.603V61.0073ZM110.591 60.5942C110.591 59.8354 110.439 59.2539 110.134 58.8496C109.829 58.4424 109.403 58.2388 108.855 58.2388C108.322 58.2388 107.902 58.4424 107.594 58.8496C107.289 59.2539 107.133 59.8164 107.124 60.5371V61.0073C107.124 61.7427 107.278 62.3213 107.585 62.7432C107.896 63.1621 108.322 63.3716 108.864 63.3716C109.409 63.3716 109.831 63.1738 110.13 62.7783C110.429 62.3799 110.582 61.8101 110.591 61.0688V60.5942ZM115.136 57.6016L117.228 62.8223L119.32 57.6016H120.414V64H119.57V61.5083L119.649 58.8188L117.549 64H116.903L114.806 58.832L114.89 61.5083V64H114.046V57.6016H115.136ZM126.87 61.0425H124.097V63.3101H127.319V64H123.254V57.6016H127.275V58.2959H124.097V60.3525H126.87V61.0425ZM138.223 61.0073C138.223 61.6343 138.118 62.1821 137.907 62.6509C137.696 63.1167 137.397 63.4727 137.01 63.7188C136.624 63.9648 136.172 64.0879 135.657 64.0879C135.153 64.0879 134.706 63.9648 134.316 63.7188C133.927 63.4697 133.624 63.1167 133.407 62.6597C133.193 62.1997 133.083 61.668 133.077 61.0645V60.603C133.077 59.9878 133.184 59.4443 133.398 58.9727C133.612 58.501 133.914 58.1406 134.303 57.8916C134.696 57.6396 135.144 57.5137 135.648 57.5137C136.161 57.5137 136.612 57.6382 137.001 57.8872C137.394 58.1333 137.696 58.4922 137.907 58.9639C138.118 59.4326 138.223 59.979 138.223 60.603V61.0073ZM137.384 60.5942C137.384 59.8354 137.231 59.2539 136.927 58.8496C136.622 58.4424 136.196 58.2388 135.648 58.2388C135.115 58.2388 134.694 58.4424 134.387 58.8496C134.082 59.2539 133.925 59.8164 133.917 60.5371V61.0073C133.917 61.7427 134.07 62.3213 134.378 62.7432C134.688 63.1621 135.115 63.3716 135.657 63.3716C136.202 63.3716 136.624 63.1738 136.922 62.7783C137.221 62.3799 137.375 61.8101 137.384 61.0688V60.5942ZM144.368 61.1743H141.683V64H140.839V57.6016H144.803V58.2959H141.683V60.4844H144.368V61.1743ZM154.991 58.2959H152.934V64H152.095V58.2959H150.043V57.6016H154.991V58.2959ZM162.208 64H161.359V61.0425H158.134V64H157.29V57.6016H158.134V60.3525H161.359V57.6016H162.208V64ZM168.673 61.0425H165.9V63.3101H169.121V64H165.056V57.6016H169.077V58.2959H165.9V60.3525H168.673V61.0425ZM179.81 61.9697C179.731 62.6465 179.481 63.1694 179.059 63.5386C178.64 63.9048 178.082 64.0879 177.385 64.0879C176.629 64.0879 176.022 63.8169 175.565 63.2749C175.111 62.7329 174.884 62.0078 174.884 61.0996V60.4844C174.884 59.8896 174.99 59.3667 175.2 58.9155C175.414 58.4644 175.716 58.1187 176.106 57.8784C176.495 57.6353 176.947 57.5137 177.459 57.5137C178.139 57.5137 178.684 57.7041 179.094 58.085C179.504 58.4629 179.743 58.9873 179.81 59.6582H178.962C178.889 59.1484 178.729 58.7793 178.483 58.5508C178.24 58.3223 177.899 58.208 177.459 58.208C176.92 58.208 176.497 58.4072 176.189 58.8057C175.885 59.2041 175.732 59.771 175.732 60.5063V61.126C175.732 61.8203 175.877 62.3726 176.167 62.7827C176.457 63.1929 176.863 63.3979 177.385 63.3979C177.853 63.3979 178.212 63.2925 178.461 63.0815C178.713 62.8677 178.88 62.4971 178.962 61.9697H179.81ZM187.234 64H186.385V61.0425H183.16V64H182.316V57.6016H183.16V60.3525H186.385V57.6016H187.234V64ZM193.694 62.3301H191.014L190.412 64H189.542L191.985 57.6016H192.723L195.171 64H194.305L193.694 62.3301ZM191.269 61.6357H193.444L192.354 58.6431L191.269 61.6357ZM198.472 57.6016L200.564 62.8223L202.656 57.6016H203.75V64H202.906V61.5083L202.985 58.8188L200.885 64H200.239L198.143 58.832L198.226 61.5083V64H197.382V57.6016H198.472ZM207.433 61.4951V64H206.59V57.6016H208.95C209.65 57.6016 210.198 57.7803 210.593 58.1377C210.992 58.4951 211.191 58.9683 211.191 59.5571C211.191 60.1782 210.996 60.6572 210.606 60.9941C210.22 61.3281 209.664 61.4951 208.941 61.4951H207.433ZM207.433 60.8052H208.95C209.401 60.8052 209.746 60.6997 209.987 60.4888C210.227 60.2749 210.347 59.9673 210.347 59.5659C210.347 59.1851 210.227 58.8804 209.987 58.6519C209.746 58.4233 209.417 58.3047 208.998 58.2959H207.433V60.8052ZM214.523 64H213.679V57.6016H214.523V64ZM222.342 61.0073C222.342 61.6343 222.236 62.1821 222.025 62.6509C221.814 63.1167 221.515 63.4727 221.129 63.7188C220.742 63.9648 220.291 64.0879 219.775 64.0879C219.271 64.0879 218.824 63.9648 218.435 63.7188C218.045 63.4697 217.742 63.1167 217.525 62.6597C217.311 62.1997 217.201 61.668 217.196 61.0645V60.603C217.196 59.9878 217.302 59.4443 217.516 58.9727C217.73 58.501 218.032 58.1406 218.422 57.8916C218.814 57.6396 219.262 57.5137 219.766 57.5137C220.279 57.5137 220.73 57.6382 221.12 57.8872C221.512 58.1333 221.814 58.4922 222.025 58.9639C222.236 59.4326 222.342 59.979 222.342 60.603V61.0073ZM221.502 60.5942C221.502 59.8354 221.35 59.2539 221.045 58.8496C220.74 58.4424 220.314 58.2388 219.766 58.2388C219.233 58.2388 218.813 58.4424 218.505 58.8496C218.2 59.2539 218.044 59.8164 218.035 60.5371V61.0073C218.035 61.7427 218.189 62.3213 218.496 62.7432C218.807 63.1621 219.233 63.3716 219.775 63.3716C220.32 63.3716 220.742 63.1738 221.041 62.7783C221.34 62.3799 221.493 61.8101 221.502 61.0688V60.5942ZM229.875 64H229.026L225.805 59.0693V64H224.957V57.6016H225.805L229.035 62.5542V57.6016H229.875V64ZM234.608 61.1479C233.885 60.9399 233.357 60.6851 233.026 60.3833C232.698 60.0786 232.534 59.7036 232.534 59.2583C232.534 58.7544 232.735 58.3384 233.136 58.0103C233.541 57.6792 234.065 57.5137 234.709 57.5137C235.149 57.5137 235.54 57.5986 235.883 57.7686C236.229 57.9385 236.495 58.1729 236.683 58.4717C236.873 58.7705 236.968 59.0972 236.968 59.4517H236.12C236.12 59.0649 235.997 58.7617 235.751 58.542C235.505 58.3193 235.158 58.208 234.709 58.208C234.293 58.208 233.968 58.3003 233.734 58.4849C233.502 58.6665 233.387 58.9199 233.387 59.2451C233.387 59.5059 233.497 59.7271 233.716 59.9087C233.939 60.0874 234.315 60.2515 234.846 60.4009C235.379 60.5503 235.795 60.7158 236.094 60.8975C236.396 61.0762 236.618 61.2856 236.762 61.5259C236.908 61.7661 236.981 62.0488 236.981 62.374C236.981 62.8926 236.779 63.3086 236.375 63.6221C235.971 63.9326 235.43 64.0879 234.753 64.0879C234.314 64.0879 233.904 64.0044 233.523 63.8374C233.142 63.6675 232.848 63.436 232.64 63.1431C232.435 62.8501 232.332 62.5176 232.332 62.1455H233.18C233.18 62.5322 233.322 62.8384 233.606 63.064C233.894 63.2866 234.276 63.3979 234.753 63.3979C235.199 63.3979 235.54 63.3071 235.777 63.1255C236.015 62.9438 236.133 62.6963 236.133 62.3828C236.133 62.0693 236.023 61.8276 235.804 61.6577C235.584 61.4849 235.186 61.3149 234.608 61.1479Z" fill="#043803"/>
<defs>
<clipPath id="clip0">
<rect width="95.7746" height="85" fill="white"/>
</clipPath>
</defs>
</svg>
